<?xml version="1.0" standalone="no"?>
<!DOCTYPE svg PUBLIC "-//W3C//DTD SVG 1.1//EN" "http://www.w3.org/Graphics/SVG/1.1/DTD/svg11.dtd" >
<svg xmlns="http://www.w3.org/2000/svg">
<metadata>
Created by FontPrep 20130207 at Tue Apr 11 17:39:53 2017
 By Martin Campillo
Generated with Fons http://osp.kitchen/tools/fons/ from hd scan found in Specimen de caracteres Plantin, MIB G 158 B, KRB Brussels.
Prepared by Paol Darcel et Ludi in April 2016 - zigzaganimal.be
</metadata>
<defs>
<font id="eb189d72567d4fd871cc47dba614ffc5" horiz-adv-x='1024' >
  <font-face 
    font-family="AntiqueNobleLightItalic"
    font-weight="400"
    font-style="italic"
    font-stretch="normal"
    units-per-em="2048"
    panose-1="2 0 5 3 0 0 0 0 0 0"
    ascent="1597"
    descent="-451"
    x-height="874"
    cap-height="1535"
    bbox="76 -432.692 2168.5 2005.17"
    underline-thickness="51"
    underline-position="-105"
    unicode-range="U+0020-FEFF"
  />
<missing-glyph horiz-adv-x="1024" 
d="M205 102h614v861h-614v-861zM102 0v1065h820v-1065h-820z" />
    <glyph glyph-name=".notdef" horiz-adv-x="1024" 
d="M205 102h614v861h-614v-861zM102 0v1065h820v-1065h-820z" />
    <glyph glyph-name=".null" horiz-adv-x="0" 
 />
    <glyph glyph-name="nonmarkingreturn" horiz-adv-x="681" 
 />
    <glyph glyph-name="space" unicode=" " horiz-adv-x="450" 
 />
    <glyph glyph-name="exclam" unicode="!" horiz-adv-x="516" 
d="M84 63l10 25q2 6 3 20t3 19q2 6 5 16q3 11 5 15t0 19q-1 15 8 23t26 10q18 1 22 2t18 -1q47 -12 47 -39l-6 -20q0 -4 2 -24q2 -23 -6 -37q-9 -13 -11 -29q-4 -48 -34 -48q-10 0 -19 -7t-17 -1q-9 6 -11 6q-45 17 -45 51zM338 860q0 -4 -6 -16v-29l-10 -18v-29l-5 -25v-26
q0 -6 -2 -12l-8 -19q-2 -8 0 -28t-2 -25l-14 -33v-12q0 -10 -10 -27q-2 -8 1 -21t3 -16l-4 -12v-9q0 -7 -2 -9l-15 -45q0 -7 1 -21t-5 -26t-6 -15v-11q0 -7 -1 -9q-1 -3 -3 -7t-4 -7q-4 -6 -5 -26t-21 -38q-19 -18 -28 -21t-32 15h-8q-13 0 -13 16q-2 6 8 17t2 20
q-8 8 -7 15t11 17q9 11 9 17t-5 14t-5 27q13 27 14 29l-4 28l6 25q2 20 0 58t5 51t6 26q-1 14 -1 21q8 16 8 22l-2 19l11 26q0 7 -1 21q-1 18 5 27t6 14v41l4 14l-4 22q2 6 8 14t8 14q2 5 1 27t-1 27t10 25q0 8 -1 33t7 41q11 21 10 63q-2 42 19 62q4 2 12 4t9 11q0 9 -6 19
q-18 31 0 78l-7 41q0 8 11 25v11q0 8 4 18q4 11 5 15t-4 14q-5 9 -5 13l14 31q2 8 4 10q1 2 15 8t29 12q15 7 26 9l26 -10q31 -18 33 -41l-4 -25v-24q-2 -6 -10 -19t-7 -33q2 -32 -10 -40q-2 -3 -3 -13t-3 -12v-37l-10 -20q-2 -10 -1 -34t1 -34l-10 -23q-3 -6 -1 -28
q2 -23 -16 -47q-2 -14 0 -46t1 -43t-16 -26t-12 -38q3 -22 5 -30t2 -12z" />
    <glyph glyph-name="quotedbl" unicode="&#x22;" horiz-adv-x="673" 
d="M219 1488q0 5 -4 11t-7 12q-3 7 0 17t8 13t12 4q6 1 18 13t22 13l31 -10q4 -2 9 -2t9 1q17 4 23 -20q2 -9 -1 -24t-3 -19l-2 -33l-10 -18q0 -4 1 -20t-6 -26q-12 -17 -11 -31t-12 -30q-13 -17 -17 -36q-5 -22 -13 -31q-8 -8 -11 -18q-3 -9 -5 -12t-8 -13q-27 -45 -62 -45
q-10 -10 -13 -10l-33 23q-32 22 -14 44q5 6 10 11q10 10 12 20q1 10 11 20q9 10 11 14t4 7q2 4 2 9t2 7q0 2 10 17v20q2 6 8 18l11 22q4 9 4 21l-6 37q0 6 10 12t10 12zM494 1563q8 0 21 -7t22 -5q26 4 29 -19q1 -8 1 -20t-6 -23v-33l-10 -18q0 -4 1 -18t-1 -19
q-2 -4 -8 -12q-9 -11 -7 -27q2 -15 -12 -30t-26 -64q-2 -2 -8 -7t-8 -14q-3 -9 -10 -20q-7 -9 -10 -15q-19 -36 -54 -36q-11 -11 -17 -11l-16 15q-2 0 -20 13t-16 25q3 11 17 25q14 13 14 21q1 8 3 11t5 7t9 11t7 11t2 10q2 10 8 17q6 8 5 17q-1 8 9 28t14 43l-8 37
q2 6 11 12q15 10 9 20q-13 19 -8 33q4 15 21 15q5 2 17 14t20 13z" />
    <glyph glyph-name="percent" unicode="%" horiz-adv-x="1835" 
d="M1620 57q-22 22 -4 70q-6 6 -6 18l-2 93l2 36l-11 27q-2 0 -1 22t1 23v76q0 2 6 11t-2 19q-7 11 -10 17l6 37l-6 14q0 2 1 11t-1 11q-17 21 -11 49q6 27 2 38q-3 10 -1 26l10 24q0 3 -6 18t9 20q14 4 14 12t-12 16q-12 9 -14 13q-1 4 -1 53v51l-10 21q-2 4 -1 24t1 25
l-6 31l6 14q2 35 0 102l-4 21l4 20l-4 21l4 20q-12 37 -10 42t5 11q20 40 -7 60q-12 8 -10 -13q2 -14 -7 -17q-21 -7 -24 -40q-6 0 -12 -7t-13 -9q-14 2 -15 -1t-1 -11v-11q0 -4 -4 -10q-7 -10 -7 -22v-11q-7 -13 -24 -35v-10q0 -16 -25 -41q-8 -12 -16 -32t-19 -37
q-10 -17 -16 -31t-20 -31q-14 -16 -18 -21t-6 -11q-2 -9 -12 -16t-12 -25q-2 -17 -5 -22t-10 -13q-9 -11 -13 -24q-3 -13 -13 -19t-14 -11l-2 -12q-24 -23 -24 -39t-2 -19q-1 -3 -11 -11t-12 -13l-12 -18q0 -20 -12 -35q-12 -14 -16 -20q-3 -6 -5 -15q-2 -8 -5 -15
q-3 -6 -5 -12q-3 -6 -11 -13t-12 -11q0 -11 -14 -28t-16 -25q-1 -7 -6 -13q-6 -7 -8 -16t-11 -22q-11 -13 -21 -34q-10 -22 -20 -34q-16 -20 -15 -31t-4 -18q-6 -7 -10 -13t-7 -10t-11 -27t-25 -24q-18 -2 -22 13q-5 15 -10 20q-5 4 -7 6l-14 20q-2 4 -1 24t1 24q0 5 -6 14
q-1 18 -11 39q-10 20 -10 65q-5 5 -10 17q0 36 -7 44q-7 9 -8 12t0 10t-1 9l-8 17q-2 1 -2 21t-4 31q-3 11 -6 15q-11 15 -11 35l-8 21q-2 2 -2 12v13l-10 16q-1 44 -13 57q-12 12 -12 14l-2 47q0 1 -14 29v27q-11 11 -11 22l2 15l-12 37q-10 45 -13 50t-9 42q0 4 -11 26
q0 39 -12 63q-12 25 -13 43q-1 19 -7 26t-21 3q-25 -17 -25 -34t-2 -21t-5 -9t-7 -11q-4 -5 -6 -11t-3 -16t-2 -13t-5 -7q-6 -6 -6 -13v-6q0 -4 -5 -12q-5 -7 -7 -21q-2 -18 -8 -25q-7 -7 -6 -14q1 -6 0 -8q-3 -6 -9 -12t-6 -25q-13 -13 -12 -25q1 -11 1 -15
q-12 -18 -10 -28q2 -11 -8 -20q-9 -9 -12 -26q-4 -18 -14 -31q-10 -12 -8 -24q1 -13 -1 -18t-7 -11l-10 -12t-7 -11q-2 -4 -1 -9t-1 -7l-15 -27v-16l-10 -19v-18q-2 -4 -7 -12q-9 -15 -8 -30t-11 -34q-13 -19 -14 -33t-7 -22t-6 -14q0 -12 -9 -25t-7 -22q1 -9 -12 -31
t-13 -27q0 -8 -10 -18q-2 -8 -4 -29t-13 -37t-15 -32q-2 -17 -6 -24t-6 -15t-2 -24t-12 -33t-18 -22t-6 -10l-2 -36q0 -4 -11 -15v-12l-14 -29v-6q0 -15 -17 -29t-28 -14q-2 -2 -18 -10l-31 10q-2 0 -10 -3q-7 -3 -17 1t-10 18t6 48q9 52 25 59q4 9 11 27t11 24t3 18
q-2 23 16 35q2 5 1 13q-2 14 6 21q7 7 8 14q1 8 2 10t4 5t4 5t1 7t1 7t5 6t4 16t8 22t9 25q0 15 7 23q7 9 17 45q9 36 15 47q6 12 16 23q9 11 11 20q1 9 3 11l13 16q2 3 2 13v14l20 61q0 15 9 25t7 21q-2 17 7 27t12 28q4 19 11 28t8 23q2 14 4 20q26 40 25 51t0 16t6 10
q6 6 6 36l18 27q4 6 5 16t8 20q9 12 9 22q0 11 4 15t5 8q2 4 6 8q4 5 1 12t-3 10q0 4 3 12t12 17t11 14t2 12t11 23v7q3 13 16 28t11 28q-1 14 -1 18q8 16 10 19t4 15q1 12 6 16q5 5 15 23q12 22 12 52l23 55v6q9 30 14 35l10 15q2 10 0 32t3 29q6 6 8 6q23 43 49 39
q6 1 18 -17t11 -40l-5 -17q0 -4 9 -15t6 -32q-2 -22 2 -31l20 -49q0 -6 -6 -18q-11 -21 6 -35t16 -31q-1 -16 -1 -22l10 -19q6 -12 6 -39q10 -10 10 -14v-29l11 -29q0 -7 2 -9l12 -25q2 -2 2 -12v-11q0 -8 6 -22l8 -19v-8l17 -37v-20q4 -5 6 -9t4 -9t1 -17t-1 -15l10 -33v-9
q2 -2 4 -11t10 -22q7 -13 7 -35q10 -20 10 -28v-19l12 -19q0 -5 -1 -19t1 -23q2 -8 12 -33q11 -25 13 -33t1 -16q-1 -9 0 -13t5 -11q10 -18 10 -48l10 -20v-36q0 -26 17 -26q8 -2 19 15t16 24q2 12 14 25q12 12 12 19v13l27 42v5q5 23 18 35q15 11 17 15t2 8t1 6t7 8t6 10
q2 4 1 12t1 11q2 4 20 22q2 5 6 13t9 23q4 15 26 26q2 -18 9 -19q16 12 12 21q0 4 -9 3t-9 5q-4 11 13 26q17 14 25 38v6q0 9 14 20q14 12 13 25q0 14 8 22t11 12t6 6q2 3 4 12q2 8 11 18t18 27t18 26q10 8 13 13t5 17q2 11 8 17t10 20q5 14 10 20t17 4q12 -1 17 3
q4 6 -1 21q-5 14 -2 20t6 10t6 9t5 7t2 8q0 25 41 66q2 2 2 7v8q6 10 21 30t18 26q7 21 23 39t15 33t1 19t14 16q37 54 37 70t2 21t16 11q13 7 16 9t8 2t9 -4q31 -18 21 -41l-8 -16l6 -29l-6 -21q0 -16 -4 -53t5 -48q9 -12 9 -37t-2 -48l-8 -24q4 -15 5 -31q1 -19 10 -31
t9 -20l-4 -19v-41q0 -47 9 -82t-3 -75l8 -23q2 -16 0 -64t4 -59q7 -10 7 -16l-19 -31l8 -15v-8q0 -13 15 -43l-2 -32l4 -25l2 -30v-31l-2 -16q6 -22 6 -74q-6 -12 -6 -25l10 -29q2 -12 1 -50t-1 -52l10 -49l-4 -47l4 -17q2 -4 1 -16q-1 -13 -1 -19t6 -12v-61l11 -17l-11 -39
q-2 -6 -1 -22q1 -15 -2 -21q-5 -10 -16 -10t-19 -4q-49 -20 -66 31v22z" />
    <glyph glyph-name="ampersand" unicode="&#x26;" horiz-adv-x="1400" 
d="M1165 666q11 22 11 28q0 12 9 26t8 32t-1 22q7 37 30 37h19l19 6q25 2 53 -22q6 -5 6 -33v-31q-6 -12 -10 -16q0 -8 -17 -31q0 -17 -7 -26q-10 -12 -8 -24t-27 -48q-28 -36 -26 -56t-10 -32t-14 -16t-2 -12q0 -7 -1 -10t-6 -8q-5 -6 -7 -8t-2 -6q0 -10 -14 -19
q-14 -10 -13 -17q0 -11 -19 -24t-27 -36q-7 -24 -7 -27l-17 -32q-1 -1 7 -9t19 -25t42 -50q12 -24 25 -32q12 -7 21 -12t17 -20q7 -14 10 -17t6 -5t7 -4q4 -3 7 -5t6 -8q2 -6 10 -16t15 -16q25 -23 17 -34q-29 -36 -57 -28l-20 10l-15 -6l-22 14q-4 2 -12 2q-14 1 -18 11
q-4 9 -20 19q-20 13 -24 29q-4 15 -23 33q-20 17 -25 24t-10 15q-5 9 -8 13l-20 10q-20 18 -32 16t-22 -22q-15 -29 -29 -26q-13 2 -40 -25q-29 -15 -43 -30q-14 -16 -35 -20q-31 -7 -45 -20t-40 -21q-26 -9 -34 -14q-12 -8 -22 -7q-11 1 -28 -10t-33 -5q-15 6 -21 11t-10 5
q-30 -23 -39 -26q-9 -4 -29 1t-24 5q-46 -15 -61 -8q-15 6 -3 28t-6 23q-8 2 -11 -3q-3 -4 -3 -16t-2 -14q-4 -2 -23 -4l-31 -4q-6 2 -16 7t-20 4q-14 -2 -44 19q-51 23 -61 48q0 16 -19 20q-24 5 -37 36q-4 10 -18 18q-13 8 -18 23q-4 15 -3 26q1 15 -8 26q-10 11 -9 33
t1 31q-10 10 -10 16l2 22l-8 29q0 8 7 20q10 16 8 35q-2 20 14 33q6 12 9 31t14 29q10 11 13 23q3 13 7 21t19 25q15 15 17 19t3 9q0 8 16 22q16 15 22 25q7 15 18 21q11 5 21 17t18 18q9 6 20 19t29 23q19 9 33 24t34 24q23 10 39 22q16 13 32 15t28 14t34 17q22 4 27 13
t5 29t-12 32q0 34 -8 49q-8 14 -7 23q1 11 -9 27t-6 28q5 19 -7 49l8 33l-2 15q0 2 4 22t2 30q-1 10 4 18q8 11 6 22q-1 12 17 42q3 6 17 8t18 6t2 20t0 21q0 7 5 12t16 21t22 23q11 6 23 12t30 17q18 10 23 14q6 4 14 9t26 3q19 -3 29 6q11 8 15 10l26 -8q24 12 37 9
q12 -3 42 -17t55 -22l63 -52q2 -4 2 -17t9 -21q9 -7 11 -12t2 -17q-1 -13 1 -19t11 -14t11 -11t2 -17t1 -39q1 -26 -9 -50t-13 -29q-5 -8 -5 -17v-9q-1 -2 -11 -12q0 -18 -8 -32t-8 -22t-25 -28q0 -2 -3 -7t-5 -9t-8 -6q-6 -3 -8 -5t-9 -12q-8 -11 -12 -15t-9 -5t-7 -3
l-33 -28q-14 -27 -37 -31q-24 -4 -37 -16q-12 -11 -24 -18t-19 -8q-8 -1 -27 -8t-23 -14q-5 -6 -9 -13q-4 -6 9 -22t15 -25t17 -32q16 -22 21 -29q5 -6 19 -26q22 -30 23 -42q0 -11 25 -43t43 -62q19 -31 27 -38t10 -14q11 -11 16 -29t11 -23q10 -8 24 -25q14 -16 21 -21
q8 -4 20 9q12 14 20 20q24 20 23 33q1 14 15 30q14 15 21 37t11 28q6 10 5 21q-1 10 11 22q13 13 15 18t1 13t1 12t7 11q7 8 7 18v11zM687 123q7 0 9 1t6 4t8 5t12 4q9 2 11 3q3 1 11 6q8 4 14 4t10 2t13 11q10 10 30 17t20 23l23 10q38 16 62 46t22 40t-33 43t-38 48
t-16 26q-9 10 -15 24t-10 20t-11 12q-8 7 -10 10t-3 8q-1 6 -2 8t-6 8t-3 20q3 14 -1 16t-14 3q-10 0 -14 6t-9 17q-5 12 -7 16t-12 13q-9 9 -11 13t-2 8q0 8 -12 23q-12 14 -14 23q-1 10 -14 25t-13 26v14q-8 37 -45 51q-3 0 -13 -3t-18 -2t-53 -38h-11q-32 1 -54 -23
q-23 -24 -70 -57t-103 -98q-12 -24 -31 -29q0 -6 -8 -18t-11 -18t-7 -12t-6 -11q-16 -20 -19 -29q-4 0 -3 -16t1 -18l-4 -43q-2 -3 -6 -13t-6 -14q0 -22 6 -38t5 -34q-1 -21 6 -35t17 -35t75 -69q66 -48 96 -38q8 3 30 -2t40 -5t38 5q19 5 33 2t20 -3l27 10q2 2 8 1
q10 -2 45 16h23q10 10 17 10zM651 1204q-6 -9 -5 -37t1 -53v-76l10 -18v-31l9 -24q2 -3 2 -11v-10q2 -10 18 -24t33 -2t31 21l20 13q4 2 15 2t23 16q11 16 15 19q11 7 21 17t38 36t38 41q4 3 3 11t1 12t11 14q15 17 14 39q-2 22 16 47q11 46 -10 74q-14 23 -19 42
q-8 33 -32 31q-13 -1 -23 4q-11 5 -15 6t-15 0t-15 -1l-19 4q-2 0 -9 -5t-18 -4q-12 1 -17 -1t-13 -14q-8 -11 -17 -16t-24 -21q-10 1 -15 -5q-4 -6 -14 -22t-19 -28q-14 -19 -14 -28t-6 -18z" />
    <glyph glyph-name="quotesingle" unicode="'" horiz-adv-x="448" 
d="M310 1559q5 0 9 1q17 4 23 -20q2 -9 -1 -24t-3 -19l-2 -33l-10 -18q0 -4 1 -20t-6 -26q-12 -17 -11 -31t-10 -28q-14 -19 -21 -41q-7 -23 -13 -30q-7 -7 -9 -16t-5 -12q-2 -3 -8 -13q-27 -45 -62 -45q-10 -10 -13 -10l-33 23q-36 25 -8 50q14 13 16 24t11 21t11 12t3 7
q1 4 2 6q1 3 1 7t12 22v20q2 6 12 26t11 35l-6 37q0 6 10 12t10 12q0 5 -4 12t-7 12q-3 6 1 18t9 12l13 2q3 2 15 14t22 13l31 -10q4 -2 9 -2z" />
    <glyph glyph-name="parenleft" unicode="(" horiz-adv-x="825" 
d="M281 824q0 -5 -2 -9l-17 -51v-14l-6 -27l2 -27q-12 -36 -12 -53l2 -16v-6l-2 -16l2 -15v-8q0 -4 -15 -45l9 -27v-86l-4 -18l4 -13v-22l6 -15l-6 -24q14 -84 14 -94l12 -39l-8 -29q1 -5 14 -37l13 -47l-2 -18l14 -25q25 -58 24 -69t-1 -15l16 -25v-6q3 -18 10 -30
q9 -13 12 -35t19 -41q23 -12 37 -60q2 -4 12 -14t11 -25q1 -16 3 -20l13 -31q-1 -14 -11 -21t-12 -11q-42 -30 -50 1q-4 14 -16 17q-11 4 -20 32q-10 29 -26 45t-21 30q-4 14 -8 24t-7 20t-10 16q-6 7 -8 11t-3 10t-2 10t-5 7q-21 21 -19 37t-4 24q-21 28 -28 56t-15 38
t-10 16t-2 19q0 11 -2 19t-12 22q-16 22 -11 44t-8 36q-13 15 -11 21q1 6 1 9l-6 23l2 15q0 2 -10 47l2 14q0 6 -4 26t-15 113l2 13l-6 24q-3 39 4 72q4 6 5 10l-13 47q0 5 10 25l3 18v9l8 30v15l6 22q0 2 -2 23q-3 24 10 52q14 26 13 32t-1 8t26 80l26 77l6 9t4 8q2 2 3 9
t7 13t6 16v13q5 11 14 16t11 9t4 11t3 9t6 8t6 15t8 21q16 27 37 51t23 34t19 27q7 14 21 24q20 14 21 20t13 11q12 6 14 19q3 15 12 23q9 9 11 14t18 23t40 30q23 12 32 23t27 20q18 10 29 22t21 16q11 5 15 9t10 8q5 4 8 6t7 6q5 4 23 12t28 -4q15 -12 26 -10q10 2 22 -20
q2 -2 -10 -36t-16 -41q-6 -7 -25 -14q-19 -8 -23 -12q-4 -3 -8 -19t-41 -16q-17 -6 -23 -15t-6 -11q-6 -6 -12 -6q-8 -16 -12 -18q-28 -16 -33 -24q-5 -7 -7 -15t-13 -22q-14 -18 -20 -19q-6 -2 -9 -9q-4 -2 -8 -18t-12 -20q-9 -5 -12 -8t-4 -9q0 -6 -10 -16t-16 -14
q-6 -6 -9 -10t-6 -14t-7 -14t-6 -7t-3 -12q-2 -9 -5 -13l-9 -12q-6 -7 -8 -10t-4 -11t-4 -13l-17 -18q-14 -29 -29 -85q-15 -55 -21 -69t-12 -23q-7 -9 -8 -13t-1 -10z" />
    <glyph glyph-name="parenright" unicode=")" horiz-adv-x="821" 
d="M610 1315q0 -6 2 -8l9 -21v-13q0 -11 9 -23t9 -21l25 -43v-6q10 -10 10 -20v-19q34 -85 33 -103q-2 -18 1 -28q3 -11 3 -19t2 -10l14 -31l-6 -22l6 -13v-20l4 -18v-164l-4 -17l4 -26q2 -12 -2 -37l-12 -37q-2 -4 -1 -12t1 -13q-6 -7 -6 -15v-19q-1 -13 -5 -26t-1 -25
t-10 -28q-18 -21 -16 -36t-17 -68l-13 -22q-2 -2 -2 -7v-8q-6 -6 -14 -29q-8 -24 -12 -34q-37 -62 -37 -70q0 -9 -12 -24q-12 -16 -13 -20q-2 -4 -1 -10q1 -5 -1 -9t-7 -11q-9 -13 -9 -22q-5 -4 -15 -11q-18 -12 -19 -32t-13 -29q-11 -10 -21 -19t-16 -26t-18 -27
q-13 -10 -17 -14t-9 -12t-9 -15t-9 -14q-6 -6 -18 -15t-17 -13q-6 -11 -7 -21q-2 -10 -17 -18q-19 -11 -29 -31q-20 -10 -26 -19q-7 -10 -13 -18l-12 -16q-12 -16 -32 -26t-35 -30t-21 -24t-12 -4t-10 -2t-5 -5q-2 -3 -4 -5t-5 -6t-7 -5q-4 -2 -10 2t-7 2q0 -1 -6 5t-7 6
t-11 17q-15 25 1 41t18 24q3 8 5 12t7 8q4 4 13 10t13 10q5 4 9 10q8 8 14 17q7 9 23 16q29 12 44 50q4 4 17 16t17 22q3 10 15 18q12 7 17 28q4 21 51 62q14 12 14 28q4 8 15 22q10 15 12 19t12 14q15 15 14 34q-2 19 25 46l2 14q41 62 41 77v20q17 17 17 32q8 8 10 11v20
q28 85 34 91q7 7 7 14l2 47l10 27v9q15 30 15 50t2 26l8 25q2 6 2 14v12q0 3 3 11t3 32v25l2 16l-8 35q0 20 2 85t0 77t-7 19q-8 11 -6 23t-4 24t-7 16t0 13t1 16l-6 14v22q-22 44 -22 50v8q-3 6 -10 16q-7 11 -6 23q1 15 -12 32q-13 18 -13 39q0 20 -12 35q-12 14 -13 18
q-2 4 -3 7q-1 4 -3 8t-6 9t-4 7q-2 2 -6 16t-15 17q-2 2 -18 9t-16 21q0 13 -3 19q-4 7 -19 21q-14 14 -18 21t-4 42t8 42t21 7l13 -4q4 0 6 2t5 4l11 5q8 3 24 -11q16 -15 24 -30q9 -15 19 -24q9 -9 13 -17q4 -9 6 -13l4 -8q5 -9 17 -16t16 -21q7 -21 22 -32q16 -10 28 -39
q13 -29 13 -35z" />
    <glyph glyph-name="plus" unicode="+" horiz-adv-x="892" 
d="M392 59h-19q-41 0 -54 27v20l-6 52q-3 26 17 80q0 40 19 66q19 27 3 58q-4 -12 -10 -12l-31 -4h-24l-58 -6q-6 0 -21 7t-28 2q-14 -5 -20 -3q-51 8 -58 25q-2 4 1 15t1 17q-10 41 9 52q5 0 65 7t73 11t29 -2t19 -6l53 -4q32 0 36 11q9 21 9 46v17l6 22q2 6 4 34t14 43
q12 16 10 30q-1 14 1 22q20 51 37 55q6 2 17 0t16 -2q43 12 49 -8l-12 -141q-1 -8 -9 -24t-10 -21q-2 -6 -13 -30t-9 -46q4 -4 8 -4l26 6l86 -4l23 4l25 -2q8 0 59 2t56 -11t4 -21q-1 -9 -1 -11q0 -52 -36 -61l-12 -3q-4 0 -22 -8q-17 -8 -28 -10q-6 -6 -39 -3t-39 2t-21 -4
t-23 -1t-18 7q-8 5 -16 5t-26 1t-29 -7q-6 0 -2 -33l-24 -88v-20l-9 -27q-2 -8 -8 -43t-20 -65q-11 -11 -20 -11z" />
    <glyph glyph-name="comma" unicode="," horiz-adv-x="448" 
d="M307 32v-7q-2 -4 -9 -15t-5 -34t0 -28t-6 -9t-14 -28t-21 -37q-12 -13 -41 -67q-29 -53 -51 -67t-25 -14q-12 -2 -24 32q1 4 -5 10t-8 5q-16 25 4 50t23 37q2 11 5 15t9 11q6 8 8 12q3 4 5 9t2 12l10 28q19 38 17 60q-2 23 11 60q13 38 15 56l4 27l-4 23q0 14 9 16
q9 1 9 4q6 2 15 14t45 12q12 4 28 -4q32 -16 21 -63l-10 -21q-2 -9 -1 -25t1 -22l-15 -45q-2 -2 -2 -7z" />
    <glyph glyph-name="hyphen" unicode="-" horiz-adv-x="700" 
d="M463 508q6 0 10 1t7 2t6 0q2 -1 6 -1h6q4 0 29 1t42 -5q6 -4 6 -48t-24 -52q-10 -5 -21 -12q-12 -7 -20 -9q-4 -6 -26 -4t-26 2t-14 -3q-14 -4 -23 4q-10 7 -18 7l-28 -12l-51 12l-27 -6l-14 4q-7 0 -16 -3t-14 -2t-7 1l-39 -6q-4 0 -11 5q-8 5 -12 6t-12 -3t-12 -2
q-42 10 -37 41q2 12 -2 34t3 30q7 6 47 13t49 10q10 3 20 -2t14 -5l37 4q12 2 47 -4t57 0q21 6 41 4q21 -2 27 -2z" />
    <glyph glyph-name="period" unicode="." horiz-adv-x="366" 
d="M244 96q0 -17 -11 -24q0 -9 -4 -21t-6 -19q-13 -45 -69 -33q-14 3 -18 3q-14 0 -20 20q-1 4 -3 8q-2 5 -3 8t-8 11t1 19q10 17 10 30v17q0 10 6 25t11 30t22 28q18 13 22 13l21 -8q4 -2 24 -2q20 -1 29 -11q8 -10 9 -29t-2 -25l-4 -8q-1 -3 -3 -6t-3 -6t-1 -20z" />
    <glyph glyph-name="slash" unicode="/" horiz-adv-x="1497" 
d="M94 -415q-2 1 -10 3t-8 11q0 10 18 28q4 8 19 42t30 48q7 11 15 29t13 28t19 28q14 19 22 32t12 23q5 10 20 21t30 47q23 56 50 77q4 8 14 32t21 33t17 18t19 36q15 27 21 36t17 19t17 18t7 24q3 21 11 29q11 11 28 46q24 49 52 80q28 32 44 65q17 33 38 50q21 16 25 16
q5 0 7 -8t5 -10t10 4q7 8 4 37q-4 35 15 59q19 25 17 43q-3 18 12 32q15 15 38 54q22 39 46 63q6 12 15 34q11 27 26 42t35 60t32 56q11 11 17 18t12 11q9 27 16 34t15 17t19 22q11 13 17 32q5 18 6 21t17 30t21 34t31 30t26 39t3 21t16 19t28 47q19 44 35 64q17 19 28 39
t25 31q8 12 16 38t35 52q43 41 56 39t28 -17h10q14 0 20 -13q10 -21 -6 -40q-18 -20 -24 -26t-10 -16q-4 -9 -7 -13t-11 -16t-17 -19q-6 -10 -16 -34t-40 -64q-30 -41 -39 -62q-9 -20 -22 -40q-14 -20 -24 -36q-15 -23 -18 -35q-4 -12 -24 -34t-27 -39q-10 -24 -27 -45
t-24 -44t-17 -34l-19 -19q-14 -14 -15 -31q-2 -17 -21 -36q-18 -35 -34 -51l-20 -21q-13 -17 -21 -35t-15 -24q-12 -11 -28 -50t-40 -62q-33 -32 -38 -53t-18 -34q-19 -20 -37 -63t-43 -67q-24 -24 -24 -37t-4 -29q-4 -6 -23 -26t-21 -27q-1 -7 -2 -10t-2 -7t-3 -8
q-1 -3 -11 -13q-29 -29 -59 -96q-6 -10 -22 -22q-28 -21 -37 -48q-10 -27 -22 -38q-13 -10 -17 -16t-5 -22q-1 -15 -5 -26q-5 -6 -17 -17q-22 -21 -42 -68q-19 -47 -29 -54q-11 -7 -16 -14t-13 -27q-14 -33 -31 -46q-17 -12 -19 -27t-12 -27q-13 -15 -24 -41l-12 -27
q-4 -6 -14 -14t-12 -14q-29 -53 -49 -52l-20 -2q-27 -13 -45 -10q-2 2 -3 8t-3 7z" />
    <glyph glyph-name="zero" unicode="0" horiz-adv-x="1294" 
d="M688 1516l70 4h57l22 -9q12 0 21 9q25 8 38 -7q13 -16 18 -18q4 -2 18 -1t18 -1l27 -23q63 -55 75 -68t18 -20q8 -7 17 -11q9 -5 11 -9t5 -15q5 -19 23 -34q17 -15 17 -27t13 -32t13 -38q0 -20 2 -24l15 -27q0 -4 -1 -15t5 -20t6 -14v-82l10 -24v-70l2 -39
q-12 -35 -12 -51t1 -30t-1 -19q-2 -4 -6 -11q-4 -6 -5 -16t1 -43t0 -46t-15 -34t-15 -45q-1 -24 -6 -44t-20 -46q-14 -26 -13 -34t-1 -13q-2 -6 -12 -20q-15 -21 -13 -37q2 -17 -3 -21t-14 -16q-9 -13 -9 -17v-8q-6 -17 -16 -25q-11 -7 -16 -13t-9 -9q-4 -2 -2 -33
q-5 -20 -18 -32q-13 -11 -23 -19t-47 -62q-38 -53 -56 -53h-8q-26 -13 -39 -29t-27 -13q-14 2 -30 -16q-16 -17 -23 -19t-23 -1t-29 -9t-38 -12q-26 -3 -34 -7l-29 -10l-27 6l-14 -2l-35 2q-6 0 -22 -6t-22 -5t-11 4q-4 3 -11 7t-14 4q-8 0 -10 2l-20 8q-4 2 -18 1t-20 2
q-7 3 -26 21t-31 23t-20 17t-14 16q-19 0 -27 8l-23 33q-18 18 -21 36q-4 19 -19 31q-15 13 -19 19t-3 16t-1 15q-4 4 -16 11t-10 23q2 21 -13 40q-14 19 -12 47l-4 16q-2 4 0 15t-6 20q-7 10 -7 14l7 23l-11 32q-2 4 2 14t-2 38t4 61q0 47 2 49l9 21q-6 19 -4 39l10 28v39
l6 12v15l10 43q12 26 10 43t5 25t14 31q8 24 8 28t1 8t5 9t7 8q3 2 6 8t6 10q2 4 1 17t11 39q12 24 14 30t1 11t1 7q0 2 15 17v6l26 48v8t16 21t19 21q4 6 10 17q7 10 11 18t40 46t52 57q15 19 29 25q13 7 23 13t17 9l15 12t15 11t11 3t20 8t26 16q12 7 18 11t10 6t11 1
t11 0t13 5q8 4 12 5t10 0q14 -2 33 12zM272 274v-8l13 -22q2 -8 15 -22t15 -27l21 -7q4 -25 49 -51l10 -2q7 -4 15 -12q13 -12 28 -12q16 0 25 -6t21 -10q11 -3 34 0t35 1t18 -2l19 6l28 -6l12 4t16 7q9 5 22 7q14 3 20 5t15 8l19 13q10 6 16 10q5 4 21 4t26 18t19 18t19 10
q9 10 17 19q8 8 14 16q17 23 28 28t14 17q3 13 6 18t11 19t23 35q11 34 20 45q9 9 9 15v10q26 39 26 47q22 22 25 33q2 10 1 27t-1 28q4 10 26 46t18 65q-3 28 -1 34l10 25l-4 23q0 6 9 19t7 21q-2 7 -2 13v9l6 24v79l11 29v31l-11 18l11 24l-11 25v33q-6 12 -6 22v25
l-10 23v14q0 19 -10 29q-2 6 -6 24t-12 26q-9 9 -35 44t-30 47q-3 12 -8 17q-6 4 -20 8t-17 5t-7 4t-8 5q-2 2 -10 7t-17 5l-19 15h-8l-45 26l-29 -10q-6 0 -17 3t-26 -2q-14 -5 -19 -6t-15 5q-11 6 -23 0t-19 -6h-10q-11 -3 -25 -12t-20 -10t-10 -2t-8 -3t-11 -10
q-10 -11 -21 -13t-20 -15t-16 -14q-6 -1 -10 -3t-9 -8q-17 -21 -35 -29q-18 -9 -25 -24q-36 -18 -45 -45q-2 -9 -11 -21l-14 -17q-4 -5 -9 -20t-10 -23q-10 -13 -10 -20v-8q-9 -8 -16 -31q-18 -23 -20 -25t0 -10q1 -8 -1 -12t-4 -9t-5 -10t-4 -9t-1 -9q0 -7 -5 -15
q-11 -16 -11 -38q-21 -32 -25 -43t-2 -29q4 -31 -10 -45q0 -37 -8 -68q-8 -32 -8 -39q2 -12 -11 -38q-2 -20 0 -33l6 -29l-6 -16q-2 -2 -1 -41t1 -41v-59q0 -3 5 -13t6 -15t0 -17q-3 -33 10 -41q2 -7 3 -21t3 -20q24 -24 24 -49q2 -1 2 -7z" />
    <glyph glyph-name="one" unicode="1" horiz-adv-x="626" 
d="M492 1202q6 -18 6 -41t-7 -33t-5 -32q1 -22 -1 -29l-10 -23v-16l-10 -53v-25q0 -4 -4 -13t-6 -18t1 -38t-1 -41l-11 -20v-21l-16 -60l4 -26l-8 -21q-3 -11 -4 -28q-2 -17 -8 -30t-5 -25t-6 -36l5 -34q0 -8 -9 -27t-7 -32q1 -13 0 -18t-5 -13q-4 -9 -6 -17t-2 -30t-2 -31
q-16 -34 -12 -46t4 -24q1 -12 -9 -23t-10 -20v-14l-8 -25q-4 -3 -3 -25t1 -34t-5 -28q-5 -18 -4 -26t1 -13t-6 -30q-12 -12 -17 -36q-5 -23 -24 -27q-3 0 -19 4l-26 -4q-6 0 -14 6t-9 8q-14 0 -17 6t-1 29v43l4 17v45q10 20 10 30t-1 30t1 26q2 8 8 17t6 13q2 4 2 34t2 34
t13 16t4 22q-6 11 -6 17l12 37q2 0 2 4t1 6t4 6t5 8t-1 12q-3 7 -7 12t-2 11l20 46q2 4 -2 10t-3 10t6 13q9 16 6 44q-3 29 8 46q15 23 13 43t7 38q10 13 10 17l-14 26l12 32q0 7 -1 44q-2 57 16 87q18 29 6 40v23q14 28 15 44t6 29q5 11 5 17v19q-1 13 1 17t7 16q5 11 2 28
t-16 6h-6q-32 -5 -50 -17t-24 -14t-16 -4t-14 -4t-11 -8q-7 -7 -11 -9t-40 0q-35 2 -45 2h-30q-15 0 -19 4t-3 20q1 15 1 26q0 51 27 51h4q10 0 20 10q36 0 84 12l21 -2q6 1 18 9t18 8h7q10 0 20 10q19 0 27 12t24 30q24 28 31 45t17 29t13 16q3 5 2 18t-1 20q2 0 14 14
l6 13q29 29 85 -9q3 -2 9 -5t8 -20q1 -18 -10 -51q-12 -33 -11 -61q1 -27 -6 -37t-9 -15t2 -17t2 -18t-10 -18q-8 -13 -10 -22z" />
    <glyph glyph-name="two" unicode="2" horiz-adv-x="1280" 
d="M479 10q-18 -6 -76 -6l-24 -4q-14 -2 -31 6l-22 8l-19 -10q-14 -2 -50 0t-50 0l-31 -10l-16 4q-58 6 -66 16t-9 20t0 27q1 15 1 25v12q10 34 59 54q16 6 37 26h7q14 0 26 8t16 10q5 2 11 6q12 9 17 8q6 -1 30 11q16 4 30 25q1 2 11 4t14 5t9 9t11 12l11 11q35 22 50 25
t20 8q5 4 7 6t10 9q7 7 14 7q14 0 26 24q2 3 9 7t16 14t15 14q6 5 8 7q3 2 7 3t7 4t10 12q9 12 25 17t28 19q15 17 24 23t12 11t8 9t21 12t22 14t11 13q4 8 7 11t10 6q6 4 42 34t68 68t39 42q14 8 19 19t14 20q9 10 24 35q45 61 49 66l2 16q23 23 25 28t1 13t13 32
q15 23 14 32t9 24q6 17 6 41v39q0 4 10 18t5 32t-15 28v22q0 8 -6 27l-8 21v6q-6 12 -18 22t-10 22q1 13 -2 17t-9 7t-8 5q-16 31 -34 31q-10 0 -19 13q-5 9 -9 14q-7 4 -17 6t-18 10q-32 0 -55 17q-30 5 -47 -1q-18 -6 -25 -6t-12 7h-29l-18 -7h-35l-16 -10h-10
q-13 0 -20 -6q-8 -7 -20 -9t-30 -21q-25 -25 -33 -28q-8 -2 -12 -8q-35 -27 -58 -63q-24 -35 -24 -40v-7q-2 -4 -7 -11t-8 -18t-8 -23q-4 -12 -4 -16q-6 -8 -25 -16t-27 -14t-13 -5l-21 11h-12q-10 0 -14 1t-12 2t-17 19q-16 8 14 54q4 4 4 15l2 17q3 6 11 14t10 14
q2 5 7 21q8 24 17 32q10 8 14 19q5 11 9 15t9 10t10 10q6 5 12 11t11 10t11 9t10 8t9 11q6 12 15 13q9 0 13 4l25 18q2 3 4 7q9 20 37 20q7 6 35 18t34 13q6 0 8 1q3 1 6 3t5 4t5 3t14 0t18 2t18 3h27q12 6 16 10q5 4 25 0t22 -4l37 4l31 -14l35 4q10 0 19 -8t28 -8
q12 -6 16 -10h21q6 -4 15 -9t38 -25t42 -33q12 -12 24 -20t17 -13t7 -16t4 -16q4 -4 18 -14t15 -24q0 -15 1 -19t3 -9t5 -10t4 -9t9 -19q8 -14 6 -27q-1 -13 6 -32q7 -18 5 -47t1 -43t1 -23l-8 -38v-23q0 -13 -3 -20t-2 -17t-6 -20q-12 -15 -10 -32q2 -18 -11 -31
q-15 -15 -15 -25l-11 -22v-9q0 -11 -14 -31q-14 -19 -16 -23t-6 -14t-8 -16t-10 -10q-5 -5 -10 -9q-4 -4 -18 -20t-14 -25q0 -8 -2 -12q-8 -8 -24 -20q-27 -19 -28 -23q-4 -15 -29 -38t-31 -29t-7 -10q-2 -5 -4 -7t-6 -5q-13 -10 -45 -47q-27 -27 -31 -29t-10 -1t-21 -15
q-21 -23 -31 -28t-37 -28q-26 -23 -32 -24q-6 -2 -10 -4t-12 -11q-11 -12 -24 -18t-18 -13q-6 -7 -15 -7q-18 0 -46 -27t-38 -30q-9 -2 -17 -4t-13 -5t-10 -8q-4 -6 -7 -8t-6 -5q-4 -4 -20 -13q-15 -8 -22 -19q-8 -10 -12 -12t-13 -7t-13 -7q-22 -10 -29 -32q-2 -7 3 -15
t12 -8t16 3q20 7 42 -10h66l29 7h32q26 7 58 1q33 -5 47 -3l30 6q10 2 26 -1t20 -3l22 4q47 2 59 0l31 -11l21 11q4 2 19 1q16 -1 20 0t15 9t17 7t27 -11q31 -1 47 -17t16 -26t-12 -33t-15 -31q-4 -10 -21 -12t-44 -10l-55 16q-4 2 -16 -3t-17 -5l-61 4q-6 0 -22 -12t-25 -6
l-16 12t-12 6l-28 -4q-20 -2 -47 4l-43 -4l-30 14l-31 -12q-29 0 -45 2z" />
    <glyph glyph-name="three" unicode="3" horiz-adv-x="1247" 
d="M375 16q-22 11 -45 11l-25 14q-2 2 -9 2h-9q-7 2 -17 12q-10 11 -14 13t-13 1t-13 2q-8 5 -12 20t-19 21q-10 3 -15 5q-12 11 -24 27t-31 27t-25 28q-6 16 -8 19t-7 8q-8 8 -6 26t18 31q16 14 21 22t7 10q1 2 23 4t32 -4q27 -10 39 -36q0 -19 22 -35q22 -15 58 -60
q4 -2 11 -5t26 -19t29 -17q10 0 14 -2t11 -11q11 -14 30 -12t32 -9t19 -13l33 6q27 -14 81 -5t60 8t10 -1l60 23h7l19 10q6 2 24 3t41 23q23 21 38 31t22 17q7 15 20 27t21 12q-1 15 15 29t16 24q0 11 5 18q7 10 7 21t12 24q16 18 14 31q-1 13 4 33t0 54t-3 53t-10 29
q-13 10 -15 16t-2 14t-1 13t-9 11q-11 8 -14 21q-3 14 -12 17q-9 2 -11 4t-22 14t-25 16l-16 15q-4 2 -14 2q-15 0 -26 12q-10 12 -28 7t-24 -3l-27 14q-9 2 -25 -1t-20 -3l-64 2q-10 0 -26 -8q-7 -2 -72 6q-29 12 -24 78q2 15 17 27t41 12t30 -1t14 -11l43 6q23 0 35 -6
l16 6h21l37 16l49 4q4 2 11 6q9 5 21 5t36 17q104 74 104 92q0 6 9 17t12 17t9 21q10 24 18 36q8 13 12 24q3 11 3 77v36q0 4 -3 10q-5 10 -2 21t-3 17t-8 9q-6 9 -8 25t-24 24q-23 9 -36 28q-16 12 -45 22t-35 14q-33 0 -46 6t-27 6q-14 -1 -19 -1l-14 6l-79 -6
q-12 0 -30 -11q-20 0 -27 -6q-8 -7 -31 -14q-23 -8 -43 -23q-21 -16 -43 -25t-31 -26l-13 -23q-8 -15 -19 -18q-16 -6 -26 -26q-18 -17 -38 -27t-50 21q-2 4 -18 18t-15 35q22 50 30 56q7 7 21 15t26 24q28 37 82 62t66 37q17 0 24 9q11 13 48 16q37 2 60 13q22 11 33 10
t19 -1t13 7l24 -2l21 4l27 -9l26 7q7 -7 16 -7h19l44 -11q14 -4 26 -4q12 1 17 -1t15 -12q14 -14 25 -16t33 -23q51 -39 55 -45q4 -7 8 -17q4 -11 15 -16q10 -6 12 -9t3 -7t2 -6t11 -13q10 -10 12 -15t2 -12q-1 -6 0 -10t4 -8q11 -15 11 -22v-47q8 -16 8 -23q11 -42 -8 -80
v-18l-14 -25v-5q1 -9 -5 -15q-8 -8 -8 -19v-10q-4 -8 -14 -23q-3 -19 -16 -29t-13 -22q-4 -6 -15 -17t-11 -22q-10 -21 -43 -37t-39 -26t-18 -10t-27 -17t-10 -26q4 -7 6 -11q5 -9 17 -14q11 -4 22 -13q11 -10 24 -16q15 -6 19 -10t6 -8t3 -8t10 -9t13 -12q4 -6 19 -43
q10 -14 12 -23q5 -18 12 -26q11 -29 11 -38t6 -27v-27q8 -16 9 -20t-1 -37l2 -27q-16 -31 -13 -44t3 -18l-15 -30q-2 -4 -1 -12t-13 -28q-14 -19 -13 -33q2 -14 -10 -30t-27 -26t-29 -34q-13 -23 -19 -30q-7 -6 -17 -7t-16 -6t-13 -16q-8 -12 -12 -14t-12 -13t-10 -13
l-25 -4l-24 -23q-18 -6 -33 -6q-34 -17 -45 -18t-22 -6t-17 -7t-18 -3t-19 -3l-18 -10l-39 10q-10 0 -24 -12t-54 2q-5 0 -19 -5t-20 -2t-12 2q-11 -2 -19 9q-8 10 -14 10l-12 -2q-1 -2 -7 1t-8 3l-26 -6l-19 14q-4 2 -10 2h-10zM858 770q-8 -4 -4 -9t9 -3t1 10zM874 803
q6 -6 14 -2t4 12q-5 8 -13 4t-5 -14z" />
    <glyph glyph-name="four" unicode="4" horiz-adv-x="1236" 
d="M432 383l-48 10q-8 0 -17 -4l-15 4q-10 -10 -24 -10l-26 12l-13 -2q-14 -1 -10 11t7 15t4 6t1 17t-4 16q-3 2 -23 -14q-20 -14 -20 -17t7 -14t0 -15t-19 -4q-17 1 -43 -13q-25 -14 -37 -2q-42 0 -60 18q-2 2 -3 30t1 34t14 19q12 14 18 24q7 10 11 14q3 4 13 9t14 9
q20 22 28 31q4 3 14 11t16 12q5 4 15 22t46 54q7 14 23 28t20 20t15 18q18 21 22 31t24 20q20 11 21 15l10 19q29 39 44 59t32 37q17 16 32 37t26 35t12 19t16 13q14 7 18 11q6 11 7 21q2 10 31 30q29 21 35 40q6 20 26 37t29 32q9 16 22 27t24 32q12 21 23 32t21 26
q11 16 24 26q14 9 19 17t13 26t12 24t14 15q9 8 13 14v5q-1 18 17 30t32 14q24 3 33 11q18 6 32 -5q13 -11 13 -20l12 -31q-2 -5 -4 -7t-4 -7q-4 -8 -4 -17v-9l-16 -41q0 -10 2 -37q2 -33 -6 -46q-8 -12 -17 -30q0 -5 7 -33q-11 -22 -12 -30t1 -42t-2 -49l-10 -27v-7
q-8 -24 -8 -29l2 -27l-8 -24q-2 -9 -1 -25t1 -24q-11 -22 -11 -25l-2 -29q0 -35 -14 -88v-35l-12 -24q-2 -7 -2 -17v-20q0 -30 -13 -47v-27q-16 -48 -16 -60v-16q0 -25 3 -34t56 -2h43q2 0 25 10l35 -6l43 6q12 2 28 -7t18 -21t-2 -28q-5 -18 -5 -24q0 -16 -49 -47
q-8 -2 -22 5t-17 7l-29 -6q-23 10 -38 9t-20 0t-20 12l-22 -13h-16q-23 0 -36 -16q-4 -1 -3 -15t-4 -30t-5 -51t-7 -47t-9 -18q-2 -5 -1 -29t1 -29l-10 -49v-43l-17 -21q0 -4 2 -16q3 -20 -10 -26q-14 -5 -35 -5q-16 -4 -26 1t-26 4q-15 -1 -22 22l7 22q0 4 -1 27
q-1 24 1 26l12 17v43l12 20q4 4 7 16t5 14q2 3 2 14v24q0 6 9 16t5 24q-5 14 -1 24t3 22q-1 14 -1 17t4 16t-12 21t-47 7q-31 -2 -37 -2h-43l-21 -10l-31 10h-61l-20 -10h-60zM786 520l11 37v37l6 24v33q0 4 4 9q4 4 6 10t1 26t-1 29l10 29v39q0 4 15 34l-4 21q12 36 12 43
l-2 35q10 20 11 27t-1 34q-2 31 4 40t9 22t10 24q4 14 4 42t1 41q4 46 -31 18q-11 -9 -17 -21q-36 -35 -50 -55t-24 -30q-10 -9 -22 -29q-11 -19 -15 -23t-12 -9t-13 -10q-28 -40 -28 -50q0 -9 -3 -13t-17 -10t-26 -20q-11 -14 -51 -66l-39 -39q-43 -41 -51 -62
q-10 -10 -22 -24q-13 -13 -25 -27t-20 -25q-7 -11 -13 -15q-6 -5 -11 -10t-9 -7q-4 -4 -11 -14t-53 -56q-33 -41 -28 -59q0 -11 24 -11h58l33 7q39 0 53 -7l28 5q2 0 15 -5l43 7q2 -2 5 -3q6 -2 12 -6t12 -4t22 7q15 7 47 -1l19 7q18 0 26 -4t49 -3q41 0 49 21v10zM969 1286
q-12 -2 -8 -10t11 -6t3 12z" />
    <glyph glyph-name="five" unicode="5" horiz-adv-x="1202" 
d="M770 1393q-8 0 -26 -6t-31 1q-14 7 -21 7l-63 -11q-8 0 -27 6t-29 0t-14 -6h-9t-10 2t-8 3q-49 8 -75 -21q-6 -6 -4 -24t-7 -38q-15 -30 -11 -37q5 -8 -7 -22t-14 -23t-1 -37t-1 -35t-6 -13q-4 -7 -6 -13t-2 -25q-1 -19 -3 -25t-5 -11q-3 -3 -12 -29t-7 -44t16 -27
q14 -8 31 -2l12 8l10 2q14 14 22 14t14 6q7 6 19 5t27 7q15 9 39 9q63 16 127 16l51 2q23 0 31 -8q13 -13 38 -10q26 3 54 -25q37 -22 48 -22q11 1 25 -15q13 -16 29 -32t31 -29q17 -13 21 -19q5 -7 9 -23q5 -17 13 -25q8 -9 12 -13t4 -15q1 -15 10 -27t10 -34t13 -57v-33
l7 -29q0 -16 -13 -55v-45l-10 -16v-51l-14 -35q-2 -4 -1 -12t-6 -22q-6 -13 -6 -24q-4 -8 -13 -19q-12 -15 -14 -31q-1 -16 -17 -26q-15 -9 -19 -16v-14q0 -18 -13 -33q-18 -20 -18 -24v-7q0 -4 -18 -15t-28 -24q-17 -26 -35 -29t-25 -18t-26 -24q-19 -10 -23 -14
q-6 -6 -14 -5h-7q-16 -4 -43 -16q-40 -32 -64 -26q-24 7 -30 5t-19 -15t-22 -15q-23 7 -49 0q-53 -4 -96 3t-65 6t-30 9t-10 12q-6 2 -14 -1t-21 -3t-34 16t-24 17q-3 2 -6 3t-5 1t-4 2l-15 15q-4 2 -15 4t-23 11q-11 9 -31 33t-22 26q-48 29 -48 42q-4 33 -1 39t25 30
t28 26q5 2 25 2q20 -1 26 -7q5 -6 7 -8t5 -6q2 -4 4 -7t10 -11t10 -12t4 -13q1 -8 7 -13t12 -9q6 -5 12 -9t11 -7t18 -16t27 -18q14 -4 20 -7t33 -15t41 -19q41 -11 49 -9q8 3 17 0t14 -5q6 -2 12 -1t20 5t22 5t19 0q18 -2 37 5t38 7t37 10t37 15q19 6 45 30t48 35
q14 14 22 30q6 6 22 20t22 30q7 15 14 22t10 21l12 18q13 20 13 30t12 24q14 17 14 51q10 20 10 22v29q0 2 7 37l10 18q7 55 -5 105t-8 67q4 16 -9 31q-13 14 -28 27t-16 24q-2 10 -7 17q-5 6 -30 20q-26 14 -28 17t-10 13q-14 17 -27 16t-58 21h-21q-8 0 -14 2q-5 2 -11 4
t-19 -1q-12 -3 -16 -3l-32 9q-13 0 -28 -11h-10q-9 0 -15 -4q-10 -8 -25 -9q-15 -2 -31 -12q-16 -11 -40 -11q-3 -2 -49 -27t-98 -84q-12 -12 -16 -29q-8 -34 -41 -27q-15 3 -21 3h-11q-11 0 -17 4t-19 40q-12 36 15 81q7 9 8 32q2 23 14 48v14l20 49q0 4 -2 12q-2 9 -1 13
t4 11t4 12t5 20q5 23 8 28t3 15v38q9 18 12 21v29q0 15 7 26q7 12 9 18l5 10q2 3 1 21q-1 19 5 25v23q0 6 8 20t7 27q-1 14 5 28t4 39t2 31q6 25 33 39q35 24 68 2l22 6l23 -6l14 4l29 -6l26 4q4 0 23 -5t29 3t13 10t11 0t10 -2l27 4q12 -6 15 -6h8l16 2q57 -4 61 -4l21 6
q4 2 19 2l31 4q11 0 21 -10h29q6 0 21 6l24 -6q22 6 39 6q16 -8 33 -8l31 12l14 -4q2 -2 16 0t30 -18q15 -20 11 -39q-17 -37 -35 -48t-84 -12t-82 10t-22 11l-25 -8l-18 2q-4 -2 -11 -8q-23 -20 -58 -2q-10 4 -17 4z" />
    <glyph glyph-name="six" unicode="6" horiz-adv-x="1175" 
d="M92 479q0 5 10 25q0 72 8 83q14 20 13 52l11 48q2 7 6 11t3 11q1 7 7 17q6 9 9 24t21 44q17 29 17 35v9q4 8 14 21t14 25q3 13 8 16q7 5 7 11v7q38 38 53 83q9 17 31 43q22 27 28 41q9 20 36 44q28 24 38 49q6 8 24 22t23 29q5 16 26 35q21 18 25 22t7 12q6 15 22 20
q16 4 37 40q2 2 9 5t17 16q17 20 38 33q20 12 33 26t28 29t36 28t27 19t10 12q5 8 17 16t19 19q7 10 14 12t32 8q22 1 47 -21t25 -26l8 -29q-2 -23 -39 -55q-9 -9 -29 -13q-21 -5 -34 -20q-12 -16 -19 -22l-12 -2q-18 -10 -31 -19q-4 -4 -13 -18t-18 -16q-9 -3 -19 -10
q-12 -7 -20 -7t-26 -27q-39 -37 -52 -53t-22 -22q-8 -5 -31 -25q-22 -20 -27 -26t-10 -14l-20 -20q-28 -26 -30 -38q-3 -11 -6 -15q-4 -4 -18 -14t-17 -18l-2 -15l-9 -24q0 -4 8 -16t20 -5q13 7 41 23t60 16l29 4h80l33 10l56 -10h13q65 -26 71 -26h7q49 -20 78 -56
q33 -17 43 -35q9 -19 19 -25q10 -7 14 -11q0 -11 3 -14t7 -8q6 -8 10 -18q3 -10 11 -26q8 -17 12 -25t10 -17t6 -15v-56q6 -6 6 -14v-33q20 -60 -6 -105q-7 -12 -4 -46q3 -36 -5 -54t-14 -25q-5 -7 -6 -17t-1 -19q1 -9 -7 -23t-11 -17t-7 -6q-8 -6 -11 -32t-17 -40
q-14 -13 -26 -37t-20 -34q-8 -11 -28 -27q-22 -19 -29 -36q-7 -16 -21 -24q-17 -9 -29 -22q-13 -13 -26 -12q-12 1 -17 -3t-19 -21t-25 -18q-18 0 -33 -13t-25 -11q-10 3 -16 1t-18 -10t-18 -10t-24 -1q-17 1 -22 1l-23 -10q-28 -3 -42 1q-15 3 -28 -1t-20 6q-11 14 -20 10
q-8 -4 -14 -8t-29 8q-2 0 -15 -1q-15 -1 -33 9t-35 14q-17 3 -23 5t-20 14t-29 17q-15 4 -21 10t-10 12t-8 11t-10 10q-5 5 -9 11q-3 6 -17 11q-14 6 -21 15t-8 17q-1 9 -5 13t-12 16t-14 34q-7 20 -17 36q-11 16 -13 24t-1 27q1 18 1 27l-10 20q-2 8 -2 20l2 42v65z
M628 934q-3 0 -28 2t-27 -4q-10 -4 -30 -16q-30 -18 -41 -19h-10q-10 -5 -14 -9t-18 -7t-22 -9t-16 -15t-18 -19l-16 -16q-5 -6 -23 -16q-18 -11 -33 -40l-18 -18q-7 -6 -7 -18t-18 -21q-5 -5 -13 -26q-8 -22 -23 -38q-16 -17 -14 -34t-14 -40t-11 -36t1 -24t-3 -21t-5 -37
q-6 -26 0 -45t5 -32q-1 -14 3 -26t3 -25t-1 -20q12 -12 12 -31v-8q10 -15 25 -30q43 -68 86 -97q2 -2 10 -2t18 -11q16 -17 37 -16q20 1 30 -6q11 -8 18 -10l26 6l37 -12l41 10l21 -4l26 10q4 2 10 2t12 2t15 3q10 2 28 14q18 13 33 16q22 5 35 16q13 10 37 23q24 14 27 22
q6 13 22 28t20 25q4 11 11 22q8 10 16 17q13 11 13 19v9q8 17 21 32q18 22 17 37q-2 15 4 23q11 17 11 27q0 11 10 26q17 47 17 92l6 23q-6 18 -6 34l10 27q6 26 -10 59v29q-3 12 -21 40t-21 36t-10 17q-8 8 -20 18q-18 14 -38 40q-20 25 -61 25q-7 0 -28 9q-21 8 -26 16
t-7 13t-5 7t-7 1t-8 -9q-3 -8 -9 -9t-28 2t-33 0q-10 -3 -13 -3z" />
    <glyph glyph-name="seven" unicode="7" horiz-adv-x="1024" 
d="M681 1372q-3 -2 -25 -2t-33 10l-27 -10q-2 -2 -12 -1t-25 -5l-33 4l-16 -2l-30 8l-27 -4q-4 -2 -68 -4l-33 2q-8 0 -19 -4t-15 -5t-12 1q-7 2 -11 2l-53 -4q-19 19 -63 0q-9 -4 -13 -4l-37 14q-2 2 -11 1q-10 -1 -14 3t-4 24t-1 27q-1 9 0 15t2 13q3 20 21 19q19 -2 25 0
l29 11h60q4 0 16 -3t21 0t16 3l30 -6l21 6q29 2 70 0l34 -13l25 11q6 2 33 2l94 -6l20 6l26 -13l26 13l22 -4l17 4l32 -2q16 0 22 4q5 4 7 5t15 -6t24 -7l18 6l35 -2q2 0 22 2t21 0q43 -9 41 -51t-41 -97q-2 -2 -8 -13q-8 -15 -32 -33q-23 -18 -26 -33q-3 -16 -4 -22t-7 -11
q-6 -4 -13 -17q-8 -13 -10 -19q-2 -5 -12 -16t-18 -31q-7 -20 -7 -24q0 -8 -18 -25q-18 -16 -19 -31q0 -14 -2 -18t-7 -9t-6 -7t-1 -7t-12 -17t-28 -52t-28 -51q-12 -12 -12 -21q-1 -9 -21 -35t-20 -43q0 -18 -33 -59t-41 -53t-7 -28t1 -17l-10 -20l4 -13q-5 -34 -24 -46
q-19 -13 -22 -20q-3 -8 -8 -22q-4 -14 -16 -34t-45 -80v-9q0 -5 -9 -18q-17 -23 -17 -51l-27 -39v-7q0 -10 -6 -17t-7 -15t-7 -12q-13 -11 -24 -52t-24 -49q-2 -13 -7 -21t-5 -18v-14q-4 -8 -7 -12t-5 -10l-3 -9q-1 -2 -3 -7t-4 -7t-4 -6t-6 -7l-7 -7t-11 -7q-7 -2 -9 -4
l-25 -12l-52 6q-23 0 -29 10q-7 10 -5 22t11 26t11 19q2 6 5 36q4 30 32 66q29 37 34 47t3 32q-2 21 10 30q13 9 15 13t2 10q0 7 8 19t8 17t11 16v9q0 11 11 21q11 11 13 15t4 15q3 18 13 28q13 40 19 47q7 9 7 19t19 32t21 32t8 21q5 10 5 17t8 14t9 12q0 4 10 19v10
q-1 12 21 40q22 27 22 36v10l10 20q0 4 2 6t5 6t5 7q2 2 7 5q4 3 6 6t4 11q3 12 15 24t12 29t38 62q0 8 6 14t9 12q8 11 18 23t10 37q11 22 29 45q25 31 25 42q-1 12 19 35t32 47t27 38q16 14 22 29t28 48t17 42q-8 20 -33 22q-33 -6 -45 -2t-15 2z" />
    <glyph glyph-name="eight" unicode="8" horiz-adv-x="1284" 
d="M809 35l-21 -10h-10q-8 -1 -24 -9q-28 -13 -44 -15q-16 -1 -29 -7t-23 0t-17 4l-47 -14q-10 -2 -33 2t-33 4l-28 -2q-9 0 -21 6h-24q-11 0 -25 8t-37 6q-5 2 -27 7t-29 9t-12 9q-10 8 -28 7q-18 -2 -29 19q-4 15 -7 17t-13 5t-31 20q-20 18 -31 26t-17 21q-7 17 -21 27
q-13 10 -13 20v12q-6 8 -14 26l-12 27q-12 12 -15 19q-2 6 2 20q6 23 -1 30t-7 13l6 41q2 7 0 23t0 22q0 6 7 15t9 15t0 16q-1 11 -1 15q12 24 11 31t7 20q8 12 8 19l2 12q6 10 41 54l64 69q4 2 11 14t12 14q5 3 11 4q11 2 29 17q17 16 34 21t31 17q13 11 19 16h17
q20 0 26 16q7 16 -15 30q-21 13 -25 16t-17 11q-14 8 -27 33l-20 27q-2 4 -4 11t-12 19t-12 20t-2 28q1 20 1 26l-6 68q0 46 9 63t7 33t27 45v19q6 18 16 38q4 4 12 10t12 10q3 3 3 11t3 12q4 3 26 21t34 30t18 17q6 4 18 8q11 4 16 6q4 5 11 13t10 11t21 11t29 16
q10 7 19 7h14q27 12 34 19t16 10q8 3 24 -2t24 -5q8 1 24 9t23 10t17 -3t13 -5t11 3q21 8 45 -10q7 -2 25 0q23 3 39 -7t40 -8t44 -12t41 -21q20 -7 26 -11t11 -10q4 -6 6 -8q3 0 14 -7q49 -43 58 -68q11 -29 21 -39t12 -24q3 -15 12 -27q8 -12 8 -18l-4 -28q0 -4 9 -20
t4 -40t-7 -29q-2 -4 -4 -10t-3 -11t0 -14t1 -16q-6 -6 -6 -14v-20l-25 -37l-2 -15q-10 -18 -39 -51q0 -15 -19 -17t-21 -18q-7 -39 -31 -39q-10 0 -23 -16q-17 -20 -36 -20h-13q-9 -2 -19 -12t-10 -20t10 -16t28 -20t38 -25l22 -16q4 -4 12 -15q11 -16 28 -31q17 -16 20 -25
q4 -9 14 -29l12 -21q2 -4 1 -12t12 -27v-18q10 -10 14 -25l-4 -22v-66q-10 -20 -10 -24v-52q-3 -4 -7 -8q-7 -6 -5 -17t-12 -32q-15 -21 -16 -31t-3 -16q-4 -6 -18 -14t-16 -14q-3 -6 -2 -16q1 -9 -3 -14t-32 -35q-38 -40 -46 -40q-7 1 -17 -11t-14 -15t-18 -9t-30 -19
q-15 -13 -26 -10q-12 4 -16 2t-12 -11q-12 -13 -24 -13h-9zM304 660q-5 6 -11 2t-1 -10t11 -1q6 3 1 9zM1008 576l-11 28q-6 12 -12 16t-15 12q-9 7 -16 19q-8 13 -14 19t-28 18t-33 20q-10 8 -17 9h-31l-18 4q-4 2 -12 1q-11 -1 -34 11q-23 13 -55 10q-32 -2 -69 7
q-13 0 -39 -13h-45q-6 0 -31 -10q-10 0 -22 -3t-28 -2t-50 -26h-7q-11 0 -26 -18q-4 -2 -12 -5t-17 -14q-10 -11 -24 -21l-18 -14q-4 -4 -10 -6q-9 -4 -11 -13q-4 -15 -23 -28t-22 -24q-2 -12 -4 -20t-2 -15l-14 -26q-2 -4 -1 -11t-14 -31t-13 -38q1 -14 1 -19q-6 -6 -6 -28
l6 -17l-6 -26q2 -10 15 -26q14 -16 16 -20t1 -15t0 -16t14 -25t17 -23q12 0 26 -17t28 -26l26 -15l32 -14h9l14 -10h6q3 0 5 -2l20 -13q2 -2 11 -1t12 1l37 -6l16 4q2 0 27 -10h41l18 -4l37 14q9 2 29 1t26 0t12 5q10 7 21 7h10q9 3 22 9t19 6q15 -2 49 26h9q23 0 80 57
l59 59q12 34 24 47q16 16 14 28t7 24q8 12 8 16v23q16 32 0 79l2 43l-16 41v7zM1128 1235q0 6 -7 9t-14 -2t-3 -19q6 -6 14 -2q10 8 10 14zM1051 1038l10 26v11l14 33q2 0 2 32t4 47q4 14 -4 29q-12 23 -9 29q13 26 -10 40q-7 4 -20 22q-12 18 -20 26q-4 2 -12 5
q-16 6 -27 28q-4 4 -13 5q-13 1 -28 12q-15 10 -24 10l-27 10q-5 2 -17 -2t-16 -2l-20 10h-35l-14 4l-15 -4h-43q-5 0 -17 6t-18 2q-76 -43 -85 -41t-14 4t-18 -12q-13 -13 -36 -25q-33 -18 -33 -26q0 -13 -14 -27q0 -11 -39 -41q1 -2 -5 -4q-21 -8 -24 -44q-2 -36 -8 -49
q-6 -14 -5 -22t-1 -14l-7 -39q0 -10 9 -28q0 -2 -2 -26q-3 -39 18 -56t21 -31q10 -22 22 -30q12 -7 21 -12q8 -5 14 -11t10 -7t14 0q10 0 16 -2t15 -12q11 -10 17 -13t26 -1q22 2 58 -8l28 4l55 -2q38 0 60 11t45 11q4 2 14 8t29 7q19 2 34 21q22 28 32 29q11 2 49 48
q43 52 43 61z" />
    <glyph glyph-name="nine" unicode="9" horiz-adv-x="1183" 
d="M877 1522q9 0 13 -2t8 -5q4 -4 12 -5t12 -4t8 -8t8 -11t8 -9q4 -4 9 -8t11 -8t8 -8q3 -4 6 -11t7 -12l20 -25q21 -26 24 -38t20 -30q16 -17 19 -25q3 -9 2 -23t-1 -22q10 -10 10 -19v-28l9 -31q0 -19 -2 -54t8 -46q0 -3 -9 -21q0 -30 -9 -44t-8 -33t1 -24t-8 -17t-7 -35
t-1 -31q-3 -9 -13 -23q-12 -17 -12 -24t-10 -25l-6 -20q-6 -20 -16 -38q-10 -19 -24 -41q-14 -25 -19 -29q-5 -5 -5 -15t-10 -17q0 -19 -30 -49t-29 -45t-15 -28q-22 -18 -22 -29t-22 -31t-29 -28q-43 -58 -44 -68q-2 -9 -38 -31q-37 -22 -39 -28t-2 -13q-12 -22 -27 -37
q-14 -14 -16 -19t-10 -3q-13 3 -13 41q-10 16 -19 8t-10 -20l9 -48q4 -20 -11 -29q-20 -11 -38 -28q-1 0 -9 -5t-12 -7q-4 -4 -7 -14t-8 -16q-5 -5 -19 -8t-17 -6q-4 -3 -6 -14t-13 -13q-10 -2 -15 -6q-17 -10 -40 -36t-30 -29q-15 -5 -40 -20t-44 -8q-19 6 -30 26
q-16 29 0 52q15 23 15 32q6 10 22 24t21 14q6 1 13 3l20 5q28 7 48 36q21 29 40 37q18 8 28 23q11 14 16 18t20 19t25 17q11 2 24 19t19 20q5 3 14 9q10 6 14 15t11 21t27 30t38 38t36 36t21 19q2 3 2 13q14 23 14 36v15q-8 5 -17 -1q-9 -7 -13 -7q-3 0 -11 8t-12 7t-9 -9
t-7 -8q-20 -23 -46 -23l-28 5l-33 -11q-6 0 -51 1q-46 1 -66 -1q-28 -3 -88 19t-70 23t-38 28q-27 26 -36 33t-17 21q-9 13 -14 17q-7 7 -11 19q-3 12 -14 26q-11 13 -10 23q2 17 -15 30q-16 13 -16 31q-1 19 -7 28t-6 23l2 36l-6 27l4 24l-2 18l4 15q0 8 -1 37t6 41
q12 18 11 39q-1 20 5 32t6 18q0 8 8 18t7 27q-2 17 10 29q16 16 16 26t14 28t26 49q13 31 30 44q16 13 20 17q15 31 24 35q11 5 18 18t19 18q12 6 32 22q20 17 46 38q15 -1 30 11t26 12q17 0 24 10q17 20 57 20h12l25 11h19q18 0 30 6q15 8 25 8h10q16 4 29 0l27 -14l28 4
q3 0 11 -4q12 -7 21 -3q8 3 24 -9q16 -11 21 -13t14 -1q14 2 26 -8q13 -9 21 -9zM475 1427q-10 0 -13 -4q-3 -3 -13 -21t-27 -18q-26 -15 -32 -24q-5 -10 -9 -13t-14 -13t-17 -15q-7 -6 -12 -21q-6 -15 -19 -25q-13 -9 -21 -34q-9 -25 -30 -48q-22 -23 -24 -27t-1 -16
q2 -19 -8 -35t-9 -34t1 -24l-10 -27q-6 -12 -6 -49l-6 -16l6 -23v-53q0 -56 27 -92q47 -106 83 -123q13 -6 21 -8t40 -19t64 -20l21 4l29 -11l18 7h57l15 4h24q44 22 70 22q12 6 18 15q29 10 38 17q8 7 12 9t20 8t22 12t14 16q7 11 13 15q80 76 119 168q2 3 9 15
q11 18 11 32t9 29t7 29q-2 15 12 39t5 50t-4 43q4 18 2 38t-1 26t-1 10t-12 14q-10 9 -12 15q0 6 1 19t-6 22q-8 8 -13 20t-39 48q-34 37 -41 42t-35 10t-43 24q-15 18 -21 22q-6 2 -18 -1t-15 -3l-22 8q-13 4 -27 2t-42 0t-38 0t-31 -17t-38 -8t-19 7l-27 -19h-12z" />
    <glyph glyph-name="colon" unicode=":" horiz-adv-x="448" 
d="M231 106q0 -20 -6 -29t-6 -15v-17q0 -19 -14 -20q-14 -2 -22 -14q-13 -16 -24 -11q-11 6 -15 9t-8 4q-3 1 -16 3q-12 2 -16 8t0 37l-2 43q0 5 6 13t6 13q1 5 -2 29t3 27q9 17 20 19q12 2 22 3t31 7q20 6 38 -14t20 -35q0 -15 -15 -35v-25zM209 714v25l-6 21q0 4 3 12
t2 20t5 19q6 8 8 33q3 25 13 27q10 3 19 5t23 8q14 7 17 10q4 3 13 -2t13 -7t22 -19t9 -55q-2 -4 -5 -9t-3 -9l-2 -41l-14 -34q0 -5 -2 -7q-17 -38 -68 -25q-4 2 -13 -1t-13 -1t-9 5q-4 3 -6 7t-4 6t-2 12z" />
    <glyph glyph-name="semicolon" unicode=";" horiz-adv-x="532" 
d="M143 -104q4 8 4 19t16 32t13 34q-2 13 1 24t3 13l8 15q0 6 -1 28t7 42q9 20 9 28l2 49q11 43 13 44q1 1 6 1t9 2l37 15l32 -13q7 -2 9 -6q21 -16 21 -49t-2 -37t-8 -13t-9 -15l2 -31l-12 -17l2 -43q-4 -18 -11 -30q-7 -13 -6 -20t0 -10q-2 -3 -8 -10t-7 -15t-9 -19
t-10 -23q-6 -30 -35 -35q-6 -1 -9 -4q-3 -4 -2 -22t0 -26q0 -8 -18 -15q-18 -8 -28 -23t-21 -17t-19 12q-7 14 -11 18q-2 0 -12 7t-4 22q5 14 7 16q0 19 18 42q18 22 23 30zM426 885q0 -6 8 -23t-8 -47v-39q-2 -4 -5 -13t-5 -13t1 -8t3 -7q4 -23 -19 -30q-6 -2 -15 3t-13 5
t-7 -3q-4 -3 -8 -5l-6 -3q-47 -8 -57 21q-12 23 0 41t12 27l-10 38q0 5 7 16t9 26t7 19q6 5 28 9t41 11q18 7 35 -17q2 -2 2 -8z" />
    <glyph glyph-name="less" unicode="&#x3c;" horiz-adv-x="1275" 
d="M606 591q0 -13 -35 -13l-8 -9l-18 -4q-7 -3 -15 -6q-8 -2 -15 -8t-27 -8q-20 -3 -27 -9q-6 -6 -12 -8l-23 -4q-4 -2 -3 -5t-2 -5t-13 -4t-16 -4t-11 -5q-6 -3 -12 -7q-7 -4 -11 -6t-11 -4q-7 -1 -19 -9t-26 -8t-15 -6v-2q-6 -6 -19 -6q-11 -11 -18 -11q-12 -6 -21 -6
l-34 -10q3 -6 30 -13t31 -12q4 -4 16 -7t18 -10q7 -7 10 -9t11 -4t11 -3q2 -2 0 -4t0 -4t18 -6t20 -6l23 -12v-4q8 -8 21 -12q14 -5 17 -7l6 -4t11 -4t14 -5t13 -9q6 -6 9 -7t10 -3l10 -5t8 -6q12 -12 26 -12l25 -16l16 -4q4 -2 0 -6t-2 -5l4 -2q14 -4 11 -12q-17 -17 16 -6
q31 -1 42 -11t20 -12q26 -5 38 -16t21 -13q8 -2 8 -7t3 -6t11 -3q14 -4 26 -14t28 -10q2 -1 14 -13q12 0 16 -4q3 -4 7 -6t6 -4t5 -4q9 -6 19 -9t14 -5q3 -2 6 -3t11 -5t12 -7q5 -3 9 -7t10 -6q9 -2 13 -6q5 -4 14 -10t10 -8l-19 -2l-4 -2q-2 -2 -5 -2t-40 2l-25 2
q-10 0 -26 11q-15 0 -31 16q-8 0 -14 6v2q0 3 -14 6t-20 10q-7 7 -13 8t-10 3t-11 9q-6 7 -11 9q-4 2 -14 4t-13 4t0 6t1 5l-20 4q-4 2 -7 6q-5 7 -23 10t-23 8q-5 6 -8 7t-8 4t-13 6q-8 2 -9 3t-1 3t-2 4q-21 0 -26 5t-3 8t0 5l-27 9q-6 4 -15 12t-18 10q-8 2 -10 3t-3 4
t-4 4t-16 5q-14 5 -18 7t-10 8t-12 8q0 4 -6 5t-10 3l-6 3q-3 1 -6 3t-9 3t-10 3q-3 2 -7 4l-6 3q-2 2 -4 2l-12 6v3q0 5 -8 5t-16 5t-10 8q-1 3 -3 4t-5 2q-3 2 -7 4t-11 7t-18 8q-10 3 -14 7t-21 11q-16 7 -19 11t-5 5l-37 18q-4 0 -10 6t-15 8q-10 3 -18 11q-4 0 -10 2
q-5 2 -11 3t-8 3q20 10 24 11t20 9q15 8 21 10q5 1 11 5t11 7t17 6q11 3 14 4t6 3q6 4 21 6q16 3 25 11q19 16 39 16l21 12q22 5 34 12q16 9 33 13q16 4 18 8q2 5 12 7q9 3 21 10q12 8 20 10t14 4q7 2 13 4q5 2 11 3t24 11t32 10t22 -3q6 -3 12 -1t0 11q2 6 8 10l16 4
q2 2 -1 5t1 5l21 4q6 4 16 8q9 5 15 7t13 4t11 4t11 6q20 11 30 13t26 11q15 9 26 11t15 4q3 2 15 8q15 0 33 10q10 0 10 7q0 8 38 17t38 12q0 4 14 7t28 12t26 12t15 5q4 2 18 7q15 4 24 13q32 18 100 13h14l13 -4q6 -2 4 -5l-29 -8q-4 -2 -6 -4t-5 -3t-11 -3q-9 -2 -13 -4
t-10 -6t-10 -4l-141 -58l-15 -8q-2 0 -14 -4t-16 -10t-19 -6l-39 -19q-6 0 -11 -4t-18 -6t-26 -8q-15 -6 -21 -7q-7 -1 -18 -11q-12 -9 -36 -14t-27 -9q-4 -5 -16 -8t-25 -11t-19 -11t-17 -5q-20 -4 -20 -9z" />
    <glyph glyph-name="equal" unicode="=" horiz-adv-x="935" 
d="M666 350q6 0 57 2t56 -11t4 -43t-27 -48q-4 -4 -16 -5t-28 -8q-17 -7 -28 -10q-6 -6 -39 -4t-41 2l-45 -4q-6 0 -15 6t-20 6l-43 -12l-78 12l-41 -6l-22 4q-6 0 -20 -3t-23 -2q-8 1 -13 1q-4 0 -24 -4t-33 -2l-34 10q-5 0 -17 -3t-40 2q-28 6 -34 16q-4 10 -1 21t1 18
q-10 41 9 49q5 2 65 9t73 10t29 -2t19 -5l55 4q20 2 68 -3t88 -1l22 4q12 2 43 0t43 -2l23 2q4 2 13 1q8 -1 14 -1zM707 545q7 0 33 1q86 3 87 -22l-2 -20q0 -54 -37 -62q-16 -4 -33 -11t-28 -9q-6 -6 -39 -3t-53 -1t-29 -2q-8 2 -18 7t-21 5l-43 -12l-78 12l-40 -6l-23 4
l-31 -4h-24l-58 -6q-6 0 -21 7t-28 2q-14 -5 -20 -3q-51 8 -58 24q-2 4 1 16t1 17q-10 41 9 51q4 0 64 8t74 11q12 4 28 -2t20 -6l55 6q21 0 69 -5t70 -2t28 5q7 2 11 2l86 -4l23 4l17 -2h8z" />
    <glyph glyph-name="greater" unicode="&#x3e;" horiz-adv-x="1228" 
d="M571 181q0 -13 -32 -13q-4 -2 -4 -4q-1 -2 -11 -5t-12 -3l-16 -9q-4 0 -10 -4l-9 -6q-4 -2 -17 -4q-12 -2 -18 -4t-11 -6t-9 -6l-23 -4q-2 -2 -1 -5q2 -6 -16 -10t-29 -12t-16 -10t-11 -3t-10 -3q-3 -2 -13 -7q-10 -6 -20 -8q-15 -3 -15 -6q0 -8 -18 -8l-19 -10
q-6 -6 -18 -6q-20 -10 -33 -11l-24 -2q-37 -2 -41 -2l-25 6q0 2 6 4t19 11t21 11q8 1 14 5t10 6t15 6q11 3 17 7q9 5 22 8t31 14q18 12 31 12q11 6 21 13q22 5 41 15q20 11 35 11l10 11q0 4 8 5q7 1 19 8t19 9t19 6t18 5q5 1 22 11t44 11q17 -6 21 -3t-2 9q2 6 8 10
q2 0 14 4q2 2 -1 5t1 6l21 4q19 13 34 16q16 3 32 14t24 12t18 7t16 9t17 5q9 2 13 4q9 5 29 12q19 6 28 15q33 15 53 19q20 5 20 8t1 5q2 2 11 3q18 4 38 20l22 6q2 0 5 2t12 5t12 6q8 0 27 6q20 6 24 10l-29 10q-12 0 -16 3t-18 14q-6 0 -15 6v2q0 2 -2 2l-22 8q-4 0 -6 2
t-6 4t-5 4q-2 2 -10 3t-17 11q-10 9 -16 11t-14 4t-11 4t-1 5t-2 5l-21 4q-15 15 -30 17t-18 4t-7 6t-8 4l-15 8q-18 0 -18 5q0 4 -3 6t-15 5t-15 5q-2 2 0 5t-2 5q-4 0 -10 2t-10 3t-16 10q-17 13 -28 16q-12 3 -13 7t-22 10t-27 12q-7 6 -13 10t-9 5q-4 1 -8 3t-7 3t-7 3
t-14 4t-16 6q-8 6 -15 7q-7 2 -5 6q1 4 -2 5l-17 5q-13 0 -15 6t-5 7t-10 4t-10 4t-8 3q-2 4 -14 8q-12 5 -15 7t-5 4q-1 2 -9 5t-17 7t-13 8t-6 4l-39 19l-17 10l-20 8q-2 0 -8 6l-25 8l6 7l12 2q8 0 49 2q40 2 62 -15q0 -10 16 -14t17 -6q3 -3 17 -7q14 -3 19 -10
q5 -6 8 -8t8 -3t9 -2t5 -2t0 -3t1 -4q4 -2 32 -9t32 -17q0 -7 5 -8t13 -4t15 -5q6 -2 8 -4q5 -5 22 -9t35 -22q13 0 23 -8q20 -16 32 -16l27 -17l19 -4q4 -2 0 -5t-3 -5q12 -4 16 -6t-1 -10q-6 -7 -2 -9t12 1t16 3q7 0 21 -5t21 -10t11 -6q36 -8 48 -18q11 -10 17 -12
q7 -2 9 -4t2 -5t8 -4t46 -24q21 -5 32 -16q17 0 29 -12t20 -14q7 -1 12 -2t7 -2t4 -3t5 -3t13 -5t13 -6q4 -2 8 -6t7 -5t7 -2t4 -4q10 -4 19 -11t24 -13q-2 -2 -8 -3t-13 -3t-11 -2q-6 -6 -28 -16t-26 -9l-43 -18q-4 0 -9 -4q-5 -5 -16 -9t-18 -7t-47 -19l-12 -8
q-17 0 -27 -10t-22 -11q-4 -4 -10 -4t-6 -2l-7 -6q-8 0 -12 -3t-9 -7t-18 -6q-12 -3 -16 -5t-8 -3l-21 -8q-11 -3 -21 -11t-30 -13q-20 -6 -23 -7t-5 -4t-4 -4t-12 -3q-12 -3 -27 -13t-29 -13q-21 -4 -21 -10z" />
    <glyph glyph-name="question" unicode="?" horiz-adv-x="978" 
d="M877 1063q-1 -23 -9 -31q-10 -10 -10 -20v-8q-20 -60 -34 -68q-15 -8 -17 -12t-7 -12t-7 -17q-2 -10 -7 -12q-4 -6 -16 -16t-16 -16q-4 -7 -6 -9q-2 0 -12 -8t-18 -10q-7 -1 -16 -15q-9 -13 -23 -11q-15 1 -19 -2t-19 -27q-18 -30 -51 -47t-41 -32q-6 -4 -23 -11t-28 -21
q-16 -20 -36 -24q-21 -4 -36 -34q-2 -4 -12 -12t-10 -16q-1 -7 -3 -10t-7 -10q-7 -10 -7 -38q-10 -10 -10 -18v-39q-10 -10 -10 -25l4 -31l-11 -34q0 -4 2 -27t-16 -37q-18 -15 -26 -30t-20 -15t-14 1q-3 1 -7 6q-5 5 -9 8t-10 3t-17 10t-10 27l5 17q2 2 1 12q-1 14 11 39
q0 6 -2 25t10 32q19 31 17 69q-1 38 1 48l11 25q0 2 -1 13t3 13q4 14 22 29q19 15 19 27q10 15 25 24q15 10 20 14l14 15q12 1 25 23t24 22q12 0 18 3t20 13q13 10 32 17t24 18q47 54 79 60q9 2 20 16q10 14 20 24q11 9 17 13t18 16q4 8 10 23q4 4 16 14t16 14q3 4 3 11
q0 11 8 22q8 10 8 18q1 11 6 16q4 4 9 29l-4 23l14 31q2 1 2 37t-5 46q-7 14 -6 23q1 10 -20 28q-22 17 -23 25q-1 7 -16 32t-29 29q-14 3 -25 13t-16 14q-4 4 -20 3q-15 -2 -37 8l-24 -4l-21 7q-14 5 -22 7l-31 -4l-14 6l-25 -10q-4 0 -22 1t-35 -16q-2 0 -14 -12l-25 -10
h-7l-30 -16q-20 -7 -29 -34q-1 -3 -9 -7t-30 -47q-22 -42 -51 -62q-26 -26 -73 0q-25 10 -30 20t8 46t29 54t28 34q21 28 29 32q8 5 16 15t15 19t18 11q16 4 27 17t24 18t24 15q10 10 21 8t20 1q8 3 18 3t19 10h12q8 -1 18 7q9 8 12 9t21 -6l27 7l21 -9l26 9l30 -7h11
q19 -6 32 -2t25 -2q13 -6 22 -5q12 1 24 -9q13 -10 18 -10q4 -4 20 -5t34 -20q19 -18 37 -32t29 -27q11 -14 13 -19q3 -8 10 -13q9 -5 11 -9t10 -22t15 -29q10 -15 12 -33t14 -31v-31l4 -32l-4 -17v-69l-8 -21v-10zM207 129v21q0 2 6 14v16q5 4 23 12t26 17q8 8 31 -5
q22 -14 30 -18t11 -6q2 -4 2 -9l-2 -19q2 -31 0 -39l-8 -27l-2 -20q-2 -4 -8 -12t-6 -12q-1 -3 -4 -10q-3 -8 -4 -12q-5 -22 -57 -16q-52 5 -52 27q-12 45 10 84q4 6 4 14z" />
    <glyph glyph-name="A" unicode="A" 
d="M1169 301l-14 35v43l-10 20q-2 1 -1 11t0 13t-3 7t-6 22q-3 18 -15 24q-12 5 -22 4t-14 1t-11 8q-8 7 -13 7t-11 -4t-19 -11t-69 2l-39 -8q-11 0 -17 6h-31q-12 0 -18 -6h-29l-14 -4l-29 10q-18 2 -30 -2t-24 -1t-99 3l-19 6q-23 -8 -45 -4t-31 3t-14 1t-11 1
q-5 -1 -25 -9t-32 -12t-12 -16l-12 -24q-13 -24 -22 -36q-17 -21 -17 -31q-10 -10 -11 -28t-18 -38q-16 -19 -25 -37l-13 -26q0 -17 -21 -38q-2 -3 -4 -9t-4 -10t-11 -16q-13 -17 -17 -38q-4 -20 -12 -25q-9 -5 -19 -6t-15 -5q-4 -8 -3 -22q3 -38 -29 -56q-31 -19 -70 -6
q-4 2 -9 1q-6 -1 -10 -1q-28 0 -17 32t16 37t15 10t13 10q2 5 -2 14q-7 16 12 32t20 29q1 14 12 29q15 20 15 32q0 13 12 20t15 12q2 5 1 17t3 19t23 22q0 8 26 54q0 17 5 19t9 4q23 7 25 34q3 28 14 38q11 9 15 15l2 15q2 4 7 12t6 18t11 22t11 17q2 4 5 12q4 11 21 32
t20 35q2 14 11 22q16 13 16 26l13 23v7q0 9 11 21q11 13 14 19t7 20q3 14 5 18t28 31q26 26 27 45q2 19 5 24t8 13q5 7 9 15q3 8 11 19t8 21q0 9 2 12t8 10t15 21t21 23q13 8 16 12t1 14t1 15q2 5 12 15q12 12 16 32q3 19 10 22q22 11 20 24q-2 18 14 32t28 48q12 35 14 40
q2 4 11 11t13 18q3 12 6 18q3 7 16 17q19 15 19 25q-1 10 13 30t14 29q0 10 11 21t13 23q2 18 17 33l12 21q0 2 -1 10t10 15q12 8 14 11t6 8t8 8t10 3t14 -2t13 -3q26 -4 14 -58l-4 -21l17 -24v-33q0 -4 10 -14q2 -6 1 -20t-1 -17q0 -4 10 -21v-22q0 -5 3 -10t2 -11
q-2 -9 5 -16t7 -15v-10l16 -24q-2 -24 2 -33t3 -21t0 -16t5 -13q6 -14 6 -19v-7q2 -2 11 -14q2 -9 3 -29q2 -33 10 -47q9 -15 8 -27t0 -16t15 -31q0 -4 -1 -14t7 -22q10 -13 12 -37q1 -24 7 -40t6 -21v-40q12 -13 12 -31t3 -22l12 -18v-25l10 -18q2 -7 3 -23t3 -22t6 -16
q4 -9 4 -14v-19q0 -13 2 -19l13 -39q0 -4 -2 -14q-2 -9 -1 -15t7 -13q8 -9 8 -19v-10q14 -21 14 -33l2 -19q11 -11 11 -34t2 -25l12 -21q4 -4 3 -18t-1 -22t10 -17v-29q4 -8 11 -15t5 -21q-1 -13 1 -18t15 -25t11 -50q-3 -31 13 -53q2 -4 2 -20v-25q0 -25 -25 -33h-33
q-59 -3 -59 24v11q-2 6 -7 14q-5 9 -7 13t-1 10t-9 32t-11 35l4 37q-10 10 -10 19l-12 51q-11 22 -11 34v17zM836 1180v-11l-15 -24v-12q0 -18 -18 -32q-26 -21 -24 -32t-11 -24q-12 -13 -14 -18t-6 -19t-6 -18t-8 -11q-5 -6 -7 -13q-3 -11 -12 -20q-8 -8 -18 -33t-20 -39
q-11 -14 -23 -35t-30 -35q-17 -14 -16 -28q4 -34 -46 -94q-5 -6 -9 -12l-2 -13q0 -5 -11 -25t-10 -26q8 -18 25 -22l29 6q68 -4 79 -1t37 -2t37 -5l23 10q4 2 12 0t12 -2l18 2l19 -10l29 10q6 2 18 -1t25 -3l25 4h104l25 -4l16 4q2 0 9 -3t11 -1q27 12 19 39q-2 4 -6 9t-4 9
v14q0 14 -17 31q-2 6 -2 20t-3 20q-3 5 -7 9q-4 5 -4 9t1 19t-1 19t-17 21t-10 41q10 20 -2 36t-13 21q-1 3 2 15t1 18t-7 13q-8 11 -6 23q1 12 -7 28q-9 16 -9 22l-2 35l-8 14q-6 24 -6 49q-6 12 -6 23l-21 74q0 6 3 21t1 22q-31 69 -80 -27q-4 -9 -17 -23q-19 -22 -19 -32
z" />
    <glyph glyph-name="B" unicode="B" horiz-adv-x="1267" 
d="M334 12l-20 -6q-6 0 -7 -2l-18 -8q-9 -4 -21 2t-19 8t-48 -12l-60 6q-39 0 -51 17t-6 32l4 14l-4 33q10 19 10 28v13q6 11 12 17t5 36q-2 30 -2 31q16 32 16 37l-4 47l16 33l-2 41l6 16q0 5 -1 15q-2 17 12 39q0 6 -1 21t5 23q6 7 6 11v74l14 36q2 8 1 24q-2 28 11 54v15
q11 11 11 20l-4 43l8 23q2 4 1 11t0 11t5 12t6 13v45l10 20q2 12 3 48t9 49q7 14 12 27t1 31t-4 30l12 18q0 2 -1 10t5 16q6 7 8 23t-10 27q0 6 8 22v25q0 10 8 19t5 17q-2 7 -2 10l6 17v41q0 5 10 25v22l14 29v32q0 22 2 32l19 28q0 3 -3 17t0 18t6 5t8 2t13 5l6 6
q8 2 22 1t34 -1h26l27 -6q6 6 11 6h19q13 1 19 4q6 4 13 0t36 -4l86 7q3 0 45 -7l37 5l19 -5l75 -2q2 0 23 3t47 -8q25 -11 29 -14q7 -5 33 -5q6 -4 15 -13q14 -14 23 -14h9l27 -24q1 1 19 -13q26 -20 28 -28q3 -8 20 -20q22 -14 22 -32v-8q0 -7 8 -17q8 -9 9 -13l2 -15
q4 -8 16 -21q11 -13 13 -24q6 -40 6 -96v-51l-19 -33q-4 -12 -4 -37q0 -39 -9 -48t-20 -13q-16 -16 -16 -26t-3 -14t-19 -20t-23 -24q-8 -8 -15 -16q-14 -15 -27 -17t-16 -4q-3 -1 -19 -19t-25 -18h-13q-8 -2 -19 -11t-11 -17q0 -12 10 -18q10 -7 18 -7q6 -5 16 -13
q18 -14 31 -17t20 -12t33 -30t38 -42q16 -29 28 -38t12 -17t11 -24v-33q5 -9 14 -21t6 -26q-4 -14 -4 -18l4 -16l-4 -27v-43q0 -41 -2 -45q-2 -5 -11 -15q-15 -17 -12 -24q8 -27 -4 -42t-21 -33q-9 -19 -12 -21t-11 -5q-9 -3 -16 -19q-6 -16 -13 -18q-27 -9 -27 -30
q-7 -10 -17 -17q-10 -8 -19 -24t-26 -18q-17 -3 -22 -9l-20 -17q-34 -29 -46 -27q-12 1 -17 -2t-14 -12q-13 -13 -31 -12q-18 2 -36 -12q-6 0 -19 2t-18 -2l-34 -10h-35q-2 0 -7 3q-7 4 -18 -3t-29 -4q-18 4 -25 -1t-13 -5l-39 4l-37 -14q-27 0 -37 10h-25q-10 0 -16 -6
q-46 -5 -70 8zM274 496q0 -13 -12 -37v-66q0 -8 -8 -28q-8 -19 -7 -30t1 -13l-6 -17v-15l-6 -14v-38l-11 -25v-37q0 -6 -6 -12q-4 -31 14 -53q4 -4 31 -5h84l56 -2q13 0 26 2l27 5q4 0 13 -4t30 -2q20 1 27 4t15 3q8 -1 11 1l13 4l16 -6l28 6h76l19 -4q6 0 14 7t21 10t18 7
q6 6 12 6h6l39 17q15 10 24 11t14 4t14 10t44 31t48 46q12 22 15 26t11 13q11 11 14 24q3 12 19 33t16 23l2 37q0 9 11 24q3 48 -6 60q-8 12 -5 33q2 20 -1 28t-25 29q-8 14 -11 22l-2 13q-1 9 -25 23q-33 19 -47 37q-15 18 -34 18q-7 2 -30 15t-34 11q-12 -2 -16 0t-12 8
t-13 6l-47 3l-22 10q-12 2 -42 0t-42 0l-29 16l-43 -10q-2 -2 -41 0l-59 10q-48 -16 -54 -16q-5 0 -19 8t-23 6l-21 -8q-4 -2 -10 -2h-8q-21 0 -21 -47q-10 -10 -10 -33t-2 -23l-17 -32q0 -12 13 -25q-4 -16 -4 -47q-11 -43 -11 -47v-12zM823 809q-4 10 -14 5t-7 -19t13 -11
q12 6 8 25zM1004 924q16 -4 18 4l-2 6q-7 7 -16 -10zM315 1317q-6 -2 2 -8q4 2 -2 8zM356 1008l-14 -48v-16q-2 -2 -3 -6q-2 -8 -12 -28t3 -38q14 -14 66 -14h114l37 10h20q10 -10 19 -10l24 8q4 2 10 0l9 -3q7 -2 20 5t23 3q11 -5 38 -4q26 1 50 9t30 9h10q7 0 17 10
q4 0 11 1q6 1 14 2t13 3t15 9q17 12 28 12t21 10q15 16 23 20q9 4 28 28q19 25 38 41q18 16 18 36q10 10 10 16v8l14 21q13 21 12 38t1 23l10 25l-6 18v31q0 2 -6 14l2 27q-5 41 -17 50q-30 22 -35 35q-6 13 -26 21q-21 8 -31 18q-10 11 -13 13t-6 3t-6 1q-7 0 -14 7t-23 5
q-27 -2 -55 15t-65 10l-20 -6q-26 8 -74 7q-49 -1 -68 -1q-18 0 -22 2t-18 14t-23 0q-8 -12 -10 -14q-3 -2 -9 0t-8 2l-24 -8q-12 -2 -17 5q-4 7 -4 19t-1 14q-1 3 -8 3h-11q-10 -10 -19 -10t-12 -6q-2 -5 11 -5t11 -6q0 -6 -8 -6q-11 0 -14 -11t-18 -29q-15 -19 -11 -31
q12 -33 0 -77v-20l-16 -24q17 -63 2 -93q-15 -31 -12 -51t-6 -32q-16 -22 -5 -45z" />
    <glyph glyph-name="C" unicode="C" horiz-adv-x="1560" 
d="M332 1083v-14q-4 -6 -14 -14q-14 -11 -13 -28q0 -16 -13 -33t-12 -35q2 -18 -7 -29q-9 -12 -10 -18t0 -18q1 -19 -10 -37t-10 -34t-9 -48q-11 -33 -14 -53t1 -79l4 -14l-4 -39l6 -19q0 -2 -1 -10t0 -12t5 -10q7 -11 6 -26t4 -22q5 -8 6 -11t1 -9t1 -9t6 -10q9 -13 7 -32
t26 -56q26 -36 32 -42t9 -15q3 -8 6 -12t8 -9q5 -4 10 -10t8 -9t7 -10q7 -11 17 -12q9 -2 12 -14t27 -22q24 -11 47 -33q21 -22 27 -24t15 -2h13q2 -2 6 -4t8 -3q4 -2 7 -3q4 -1 6 -3q15 -14 29 -14h12l20 -10h27l59 -15h111q23 0 41 8t30 8q12 -1 16 0q5 1 12 5q6 4 10 5
t11 0t11 1l27 14q9 0 16 11q8 4 33 12t37 16l16 15h8l17 10q23 0 29 8q5 8 7 12t11 10q10 5 13 9t7 9t7 10q6 10 20 13q14 2 18 7q8 16 19 26q16 14 21 24q12 27 61 0q17 -11 19 -23q4 -18 20 -33q16 -14 -7 -39q-22 -33 -40 -38q-19 -4 -24 -10t-19 -21q-40 -45 -95 -63
q-28 -28 -45 -28q-4 -2 -16 -14t-33 -11q-21 0 -31 -3t-28 -17t-29 -19h-25l-22 -6q-6 6 -16 6t-26 -9q-18 -9 -30 -11q-14 -2 -26 1t-21 3l-24 -10q-44 -3 -62 6l-33 -6l-24 10q-8 0 -38 -1t-37 1t-16 8t-13 7t-11 1q-10 0 -17 7t-17 5q-11 -1 -14 0q-9 3 -12 6t-23 7
q-19 3 -28 15q-9 11 -25 17q-22 9 -36 26q-15 17 -22 19q-7 1 -10 2t-8 2q-24 5 -35 30q-4 7 -26 30t-35 39q-13 17 -23 25t-12 13q-3 5 -6 16q-4 14 -8 21q-5 7 -5 10v8q0 9 -16 17q-11 5 -15 9q-2 4 -3 18t-24 47l-2 17q-14 14 -14 26v66q-10 10 -10 14l-2 33l-9 16
q0 4 6 17t0 28t-6 20t6 16t1 22q-5 12 -3 16l11 25q0 4 -4 16t0 29l14 26q2 6 -4 23t10 33q2 8 3 28t10 42q10 22 12 28t3 18t8 24q7 11 9 24q3 19 9 27q6 9 4 19q-1 11 11 21t14 16q1 5 2 8t1 5l25 35v7q0 8 8 14t8 14v12q2 0 14 18t13 24q0 5 2 8t5 7t7 7t12 11t12 17
q5 15 18 17t17 18t8 19t19 8q14 5 24 19q11 13 20 19t11 10t5 13q5 14 17 14q12 -1 36 21q35 32 43 32t25 10q26 16 37 25q10 8 18 8h10q6 3 15 13q8 10 14 12t14 1t12 1t11 7t11 6t15 3q10 2 20 10t23 9q6 4 26 2t27 0l35 8q4 2 12 1t19 3q12 4 25 3t20 -1l20 6l25 -6h98
q4 0 10 -4q7 -4 13 -6t22 -3t22 -2t18 -7q20 -11 36 -5q17 6 26 -7t48 -33h12q18 0 38 -18t36 -25q16 -9 21 -13t13 -11t15 -12q6 -5 14 -11t24 -22t23 -27q6 -11 12 -20t5 -31q0 -22 -5 -33q-5 -9 -34 -21t-35 -3t-6 16q0 14 -18 14h-11q-12 2 -23 13t-12 25q2 14 2 17
q-4 8 -12 8q-11 0 -24 16q-12 16 -21 15l-22 10h-8q-8 1 -22 15t-25 14t-14 1t-8 7q-10 13 -28 5t-27 8q-10 17 -15 19t-20 2q-15 -1 -20 -1q-6 6 -11 6t-13 -1t-24 3t-23 1t-10 -5t-7 -3t-14 5q-9 6 -17 5t-19 -8t-23 -8t-66 11q-4 -2 -13 -10q-15 -13 -27 -12t-21 -5
t-20 -11t-17 -12q-7 -7 -12 -9t-21 -4q-16 -1 -17 -3l-18 -8q-10 0 -24 -11q-21 -16 -30 -17q-8 -1 -11 -5t-11 -8t-29 -16q-2 -2 -4 -8t-5 -10t-9 -5q-6 -2 -9 -4t-9 -10q-7 -8 -11 -10l-18 -9t-22 -23q-7 -15 -11 -19t-13 -9q-9 -4 -13 -6q-5 -6 -9 -15q-4 -10 -9 -16
t-21 -20t-20 -20t-6 -8q-1 -3 -2 -7q0 -3 -14 -19t-18 -20q-20 -20 -20 -33zM1225 1458q0 4 -8 13q-9 9 -11 -1t4 -12l7 -2q2 0 8 2z" />
    <glyph glyph-name="D" unicode="D" horiz-adv-x="1417" 
d="M662 27q-11 0 -33 -11h-25l-18 -10q-6 -2 -22 -1t-34 -4q-19 -5 -38 -1l-27 6q-4 -2 -11 -9t-14 -7l-22 4l-35 -4l-33 10l-39 -8q-4 -2 -10 0t-10 2h-103l-36 -4q-18 8 -24 12t-19 6q-14 2 -19 16q-6 15 -6 19l4 18q-2 27 -3 39h1l-1 2q0 14 11 25v25q0 20 11 27t2 20
q-14 18 -5 25q9 6 9 12t1 9t6 11t8 15t1 34t-1 35t7 16t6 25l-2 45l4 35l-4 20q2 10 15 35v11q0 11 11 25t10 25t1 14t7 8t7 9q-16 26 -14 39l14 35l-8 20q2 4 5 13t6 15q2 5 -3 29t17 68v21q14 42 14 45l-4 20q0 17 6 23v33l15 41l-5 24l15 25q2 8 1 25t-1 24l11 44t0 15
t1 17t8 13t6 11l2 27l11 20v31l8 16t4 9q2 4 3 8t0 14q-1 11 1 15t6 9t4 9l-10 27q-2 4 4 12t6 12q0 3 -3 15t-2 18t10 15q8 9 10 15t-5 22q-7 14 -5 20t16 19t18 14t47 1h293l17 -4l26 4l23 -10q18 -2 33 6q16 8 21 5t11 -8q5 -5 13 -10t13 -7t18 -1q34 3 63 -26
q6 -2 16 -4q16 -3 26 -13q9 -8 45 -20t44 -18t13 -19q4 -12 54 -55q13 -17 25 -21q12 -5 16 -12q5 -2 9 -9q6 -9 17 -19q12 -10 19 -31q8 -21 32 -39q25 -19 27 -31q3 -12 2 -25t1 -19t10 -20t10 -18t1 -12t-1 -13t7 -9v-19q2 -8 17 -26t7 -35q1 -2 -7 -8q-7 -6 5 -19v-7
l-2 -12v-6l6 -18v-160q-13 -56 -22 -65q-6 -13 -4 -47q3 -34 -5 -37q-25 -12 -24 -33q2 -22 2 -24l-14 -31q-2 -2 -2 -9v-12q-6 -16 -13 -24q-8 -8 -11 -16q-4 -10 -16 -16q-12 -8 -12 -26t-5 -24t-12 -22q-6 -15 -22 -30q-16 -16 -16 -24q-4 -4 -14 -11t-15 -21
q-5 -13 -22 -32q-16 -18 -48 -44t-57 -45t-33 -27t-15 -11t-11 -5t-12 -14t-26 -16q-19 -4 -27 -13q-7 -9 -15 -14t-31 18q-2 -3 -6 -15l-6 -18q-9 -8 -25 -16t-25 -14q-9 -7 -20 -7h-14q-9 -9 -41 -16h-28zM84 100h1v2l-1 2v-4zM254 328l-16 -39v-29l-7 -22q-2 -42 -4 -50
t-3 -22t-3 -21t-2 -15q0 -32 50 -29q15 1 29 0t28 -1q4 4 14 4l27 -4q6 6 16 6q18 -6 37 -6q18 6 31 6l18 -6q12 6 17 6l22 -4q20 2 35 10t29 6q15 -1 24 -1q23 11 41 13t27 7q9 6 32 8t54 15l10 8q8 4 22 14l21 15q43 11 67 41q6 4 34 19t37 31t23 23q14 6 17 13q5 2 9 12
t24 31q53 53 58 81q1 6 13 15q12 10 20 33q7 23 22 48q15 24 19 32t3 14q0 6 2 8t5 6t5 8t4 6t1 12t-1 13q11 22 11 41l10 14q2 6 0 30t8 34l8 20q2 6 1 24t-1 26t8 24l-2 25l4 20l-2 17l7 30q0 6 -9 23t-6 40q2 23 0 31l-10 27q0 4 4 17t-13 24q-16 11 -21 45t-37 50
q-11 7 -44 54q-32 47 -46 50t-25 15q-10 12 -25 19q-16 7 -20 8q-3 1 -7 3t-11 10t-11 12q-4 2 -9 5t-11 5t-10 6q-5 4 -13 8q-9 5 -19 7t-55 17t-76 12q-32 -3 -54 7q-21 9 -29 9t-19 -6q-59 -7 -77 5t-44 9q-26 -4 -46 -2t-24 0q-3 -2 -17 -15t-15 -23q-2 -11 -3 -15
t-1 -17v-29l-4 -18l2 -16l-19 -47q-2 -6 1 -14q5 -14 -7 -39v-23l-10 -67v-43q-13 -25 -11 -36q1 -11 -1 -16l-13 -39v-6l2 -8l-10 -31v-34l-10 -19v-41q0 -2 -6 -11t-6 -33t-5 -34l-10 -20l4 -26l-8 -27q0 -29 -7 -37t-7 -15l8 -28q-4 -19 -4 -47l-12 -23v-55l-11 -23
q-4 -20 -4 -44t-7 -39t-6 -40q1 -26 1 -32z" />
    <glyph glyph-name="E" unicode="E" horiz-adv-x="1200" 
d="M137 418q17 34 17 54t-1 36q-1 18 1 24t6 15q4 8 4 12l2 33q14 35 14 72v45q2 4 7 13t4 27q-1 19 1 24t7 13q6 8 8 12t1 19q-1 14 -1 19l10 49q2 4 1 16q-1 11 0 17t8 15t7 15v62l11 20q2 2 1 16t-1 21q0 32 9 48t9 69l-2 37q0 4 4 8q6 6 6 14v6l11 25v20q0 10 6 17v59
l10 16v52l4 15v12q0 16 10 21t13 11q2 6 2 21q0 38 53 38q3 7 47 -2l79 4q30 -2 46 -8l39 6q25 2 74 0t73 -2l30 13q10 0 32 -13l41 7q13 0 22 -7q10 0 74 5l29 -5l32 9q3 2 7 1t7 -1t25 8q22 7 50 -13q51 -37 20 -76q-16 -22 -30 -27t-27 -1q-12 4 -29 -14q-6 -2 -23 0
l-32 14q-2 2 -45 2l-37 -6l-23 4l-24 -10l-43 10q-10 4 -46 2t-47 3q-12 5 -17 6t-10 -3t-9 -8t-12 -5t-17 5q-10 6 -14 6l-33 -12q-6 -2 -14 2t-15 4l-25 -10l-24 10q-8 2 -42 -3t-42 -13l-2 -13q-10 -10 -10 -24v-51q-3 -9 -11 -27t-11 -41t-5 -29t-1 -23q1 -18 0 -26
t-6 -27t-7 -25t-1 -19q2 -21 -12 -39q0 -8 1 -33t-1 -32t-8 -15t-8 -15v-57q0 -4 -10 -26t-2 -42q4 -8 30 -8h52l30 6h54q117 -6 159 5l27 -5q10 -2 57 0l37 11l33 -11h55q49 29 78 -13q22 -30 4 -53q-5 -6 -12 -24q-6 -6 -31 -16l-12 -8q-12 -6 -59 -2l-21 10q-16 2 -26 -4
q-11 -6 -17 -4l-33 10l-26 -6l-29 6l-35 -8l-37 8l-37 -12l-41 10l-28 -4q-25 -6 -39 0q-15 6 -28 2q-14 -5 -43 3q-48 13 -70 -9q-12 -6 -14 -14t-5 -40q-2 -35 -14 -59v-29q0 -4 -10 -14v-33l-5 -32q0 -12 -2 -15l-10 -20l6 -25q0 -16 -6 -22q0 -5 1 -17t0 -17t-5 -14
t-5 -21t-2 -26t-6 -33t-7 -25q-2 -7 0 -44l-11 -31q-2 -4 -2 -12v-10l-4 -15v-38q0 -32 5 -40t83 -8q41 6 61 2t36 -2q14 14 30 10q15 -5 26 -4t17 1q19 -9 41 -9l58 2l165 2q9 9 16 9t13 -4t23 -11t37 6t28 15q62 -17 64 -49q0 -7 -15 -27v-11q0 -11 -7 -18t-30 7
q-2 -1 -7 -9q-8 -11 -22 -12h-11l-25 -8q-8 -2 -20 3q-18 7 -52 5l-24 2q-7 2 -17 -2t-15 -4l-30 10l-35 -8l-18 4l-45 -4l-16 4q-30 -10 -43 -10t-33 10q-10 2 -35 0l-29 -10q-34 -2 -50 5t-37 5q-20 -2 -39 4l-21 -4q-6 0 -31 1t-28 -1q-15 -10 -23 -10l-29 10h-25
q-19 0 -28 19q-2 1 -2 37t1 38t5 8t4 7l8 34q0 2 6 10t4 29q-1 22 -1 27l6 23l-6 22q16 16 11 27q-5 10 -5 15l14 40q2 2 2 14v15l4 14v35zM356 813q-12 -6 -7 -13t16 -2t4 15h-13z" />
    <glyph glyph-name="F" unicode="F" horiz-adv-x="1130" 
d="M546 860q17 6 79 6l25 6l28 -6l31 4l28 -4l21 6l37 -6q6 0 20 7q15 7 25 2t15 -5t19 7q33 6 64 -11q20 -14 10 -49q-2 -2 -2 -5l-2 -13q-34 -45 -59 -45l-31 12l-44 -10l-44 14l-10 -4h-18q-8 0 -11 -2l-25 -8l-40 16q-11 0 -17 -6h-22l-13 -4q-34 10 -56 -2
q-23 -11 -34 16v6q2 14 -4 17q-6 1 -6 -15t-11 -18t-59 6l-37 -4l-24 4l-19 -6q-2 0 -13 1t-16 -4t-16 -9l-6 -16v-25q-14 -14 -11 -34q3 -21 -1 -28l-25 -69v-45q-2 -8 -10 -31t-6 -47q2 -25 0 -35l-10 -18q-2 -10 -1 -46t1 -47l-10 -24l8 -23q-12 -24 -15 -26q0 -6 1 -20
t-7 -28t-8 -20l2 -22l-2 -15q-2 -2 -1 -16q1 -20 -11 -35q-13 -16 -10 -34t-8 -26t-16 -15t-15 -13t-41 8q-2 2 -11 12q-9 19 -4 37q6 19 4 25q-4 14 -12 24t-8 21l20 51v47q0 1 7 29v39q0 6 10 16v31l4 26l-4 21q15 31 16 33q0 91 25 141v18q0 21 10 29t11 12t-6 33t-3 45
l12 47v9q0 10 4 18l11 18v9l12 28q3 3 -6 19q-9 17 -1 31q7 14 7 17l-2 28l16 34l-8 31l12 35q2 4 1 15t6 26v28l6 15v41l8 20q2 5 1 15t1 14t8 15t6 20l2 47q10 18 10 26v10q1 2 3 7q2 4 2 6l-4 29l14 22v56q0 12 6 18v25q6 17 6 25t4 20q5 12 19 21t24 9l16 -4l21 4l17 -4
q6 0 15 5t34 5l88 -6l35 6h110l19 -4l19 2l22 2h135q11 0 27 4t29 2q13 -1 19 1l35 4q2 0 7 -5t19 -9q34 -9 31 -27t-6 -26q-4 -9 -4 -17t-8 -16q-8 -7 -12 -8t-9 -2t-9 -3t-12 -7q-7 -5 -13 -5q-20 -6 -33 20q-6 0 -12 -6t-15 -5q-8 1 -26 -4t-22 19q-2 15 -13 11
q-4 -1 -7 -9q-9 -25 -43 -23q-34 1 -40 7t-9 15t-9 10t-12 -13t-12 -16q-5 -2 -9 -1t-9 3q-6 2 -10 2t-15 -6t-17 -4l-31 16q-9 0 -20 -5t-19 0t-7 18t-7 18q-13 -33 -22 -33h-11q-33 -14 -49 -14l-21 4q-33 2 -55 -29q-2 -4 -1 -15t-9 -26q-8 -19 -7 -39q1 -21 -7 -37
q-7 -16 -9 -21t-1 -14t1 -14q-8 -19 -8 -39l-2 -53q-2 -4 -6 -10t-6 -14t-1 -39q0 -31 -4 -41t-13 -30t-8 -32t-1 -16t-7 -13q-9 -17 -8 -22t-4 -21q-4 -16 5 -34q10 -16 47 -23q5 -6 17 -6t32 10h108zM424 791q6 4 2 9t-9 2t-1 -7t8 -4z" />
    <glyph glyph-name="G" unicode="G" horiz-adv-x="1611" 
d="M571 127q7 0 31 -12q24 0 43 -13t66 0l25 -8h24l18 4l35 -10l28 10h27l16 6h27q8 0 19 11h14q24 12 40 13q18 1 24 4t19 12q13 10 19 12t13 1q8 -1 12 1t8 6q5 4 11 8l9 6q6 4 12 4t27 18t37 19q16 0 27 25q2 2 2 6t17 16t18 18q8 23 25 23q42 42 43 51q3 10 21 35
q22 30 22 40v7q2 4 7 10t8 11q3 6 6 22q3 15 5 21t7 13t9 17t-12 24q-18 14 -19 15h-42q-2 -1 -8 5t-15 6l-55 -6l-31 6q-4 0 -17 -7t-95 -4l-19 5q-6 0 -20 -6t-25 -3q-51 6 -55 45q0 15 6 27q2 27 10 39q5 4 21 7t24 7t15 4l47 -6l35 6q6 0 26 -10l25 4l78 -8h12l33 4h39
l18 -6q29 0 40 3q12 3 22 1q26 -5 38 8q35 8 52 -18q4 -10 4 -18t-11 -31q0 -4 3 -16t-11 -29t-14 -35v-34q0 -18 -7 -29q-9 -14 -9 -32q1 -18 -15 -33t-21 -21t-20 -36l-2 -14q-11 -11 -10 -26q2 -15 0 -17l-12 -18q-6 -8 -25 -23t-29 -29l-20 -28t-36 -28q-25 -13 -25 -27
q-8 -12 -28 -27t-37 -19q-27 -7 -40 -22q-13 -16 -28 -16q-14 0 -29 -11q-20 -16 -33 -15q-13 2 -31 -11t-27 -15t-34 0t-32 0q-10 -3 -21 -11t-38 -5q-28 3 -52 -7q-25 -9 -33 -10q-7 -1 -17 5t-14 6l-16 -4h-43l-19 -4q-17 0 -23 4q-7 4 -15 6t-13 4q-6 2 -17 1t-18 -1
q-30 10 -42 10t-25 10q-16 11 -55 23t-45 19q-7 8 -10 10t-10 4t-13 5t-9 5q-4 2 -9 9q-10 14 -18 17q-8 2 -15 13t-18 23q-11 13 -22 12q-12 0 -15 2q-6 4 -9 13t-18 17q-19 9 -19 17v6q0 4 -2 6q0 2 -21 23q-45 45 -20 78q-5 4 -23 14t-22 15t-8 21t-10 27q-6 10 -4 20
q1 9 -11 31t-11 39t1 21l-4 16l4 11l-15 21l15 28q0 8 -12 24q-12 15 2 52q-13 30 -2 44q15 20 5 36t0 32q9 15 7 35q-3 20 10 33q2 4 1 14t4 19l7 14q0 31 4 45l11 29v20q2 2 4 6t5 8q7 9 7 19t19 35q19 26 24 52q6 26 13 31q6 5 12 8q10 5 10 17t14 32q14 19 20 23t9 17
q2 12 47 51q4 4 10 20t26 32q21 15 25 22q6 4 22 24t24 21q8 2 18 12t23 11q14 2 19 8q14 17 28 20t31 19t26 20h4l31 16q28 1 56 19q29 18 40 22l18 -4q6 0 18 9t34 7q22 -1 30 1l19 8q4 2 9 1t18 2q14 3 26 2t23 5q10 6 14 6l80 -14l18 2l21 -2q4 -2 13 -1t11 -1l37 -8
q2 -2 8 -2h8l19 -11q27 0 36 -8t22 -11t17 -6q5 -3 13 -7t18 -5q11 -2 15 -4t8 -6t6 -5t9 -3q23 -7 30 -23q6 -4 21 -11q16 -7 22 -12l42 -37q14 -11 16 -19q1 -8 3 -11q53 -27 41 -67q-18 -43 -69 -43q-14 0 -25 13t-25 22q-13 8 -21 14q-8 7 -21 21t-19 18q-4 4 -14 20
t-22 15q-11 0 -15 2t-13 10q-16 15 -27 13t-40 20q-6 2 -16 4t-15 4l-24 12q-4 2 -18 1t-23 2q-8 3 -5 23q3 21 -9 21q-11 0 -17 -11t-11 -13t-12 1q-22 10 -87 -12q-21 -3 -30 4q-27 21 -37 -1q-7 -16 -21 -14q-20 2 -43 -14q-24 -15 -33 -15l-19 2q-10 -2 -22 -16
q-11 -14 -19 -16q-12 -5 -27 -5q-14 -1 -24 -13q-14 -16 -21 -16h-8q-6 -4 -22 -10q-8 -6 -24 -23t-44 -34q-37 -22 -43 -40q-6 -17 -26 -32q-19 -15 -23 -17t-8 -6t-8 -11t-8 -15q-14 -27 -27 -27q-19 -19 -25 -39t-8 -24t-7 -10q-7 -7 -7 -17t-18 -34q-18 -25 -19 -31
q0 -7 -2 -9l-12 -20q-2 -2 -2 -10q1 -8 -5 -14q-6 -5 -6 -11t-10 -21q0 -30 -7 -41q-7 -12 -8 -16t0 -15q2 -22 -16 -34q-12 -25 -16 -43l6 -23v-73l-6 -39q0 -5 3 -13t2 -19t1 -17t4 -14t6 -18q4 -9 4 -34l11 -27v-11l10 -36q0 -6 2 -8l14 -31q0 -25 16 -41t31 -34
q16 -18 25 -27q4 -9 11 -23t13 -21t11 -12q6 -5 14 -11t12 -11q3 -4 15 -13q12 -10 16 -14t8 -9t10 -8t15 -5q10 -2 14 -4t7 -5q4 -3 8 -5t16 -5t24 -11t15 -9q8 -4 13 -4h7zM1450 532q0 -12 -5 -18q-5 -8 -6 -12t4 -9t10 -1t6 9t-1 12t-2 9v7q0 11 -6 14v-11zM1309 1397
q-12 -12 -5 -20q7 -7 16 -3t4 16t-15 7z" />
    <glyph glyph-name="H" unicode="H" horiz-adv-x="1497" 
d="M1053 39l10 37v15l4 26v16l10 19q2 6 1 21q-2 26 8 34q10 9 9 24t-1 19t2 11t3 10t0 9t-1 9v8l6 18q0 24 8 52t7 43t11 45v25q0 9 5 44q10 10 10 21l2 26l8 19q4 16 4 28v22q1 31 13 63t8 38q-14 18 -64 11h-51q-28 -16 -56 -9q-28 6 -51 5l-30 -7q-10 1 -41 9t-47 6
l-37 -13l-23 9q-6 2 -32 1t-29 -1q-6 -6 -19 -11h-71l-28 11l-32 -11q-18 0 -20 2l-21 13q-6 0 -41 -15l-26 9q-7 2 -17 2t-16 2l-22 10l-33 -12l-15 6q-31 4 -53 -21q-4 -4 -4 -14v-16q-12 -24 -11 -46t1 -28l-10 -27v-16q-7 -8 -7 -12t1 -14t-1 -11q-2 -2 -10 -21v-55
l-10 -24q0 -48 -6 -58l-8 -16q-2 -10 -1 -39t-5 -41q-7 -12 -6 -23q1 -12 -7 -25t-8 -20l10 -26q0 -13 -10 -23v-24l-10 -31q-2 -9 -1 -25t1 -24l-17 -48q0 -14 -11 -23t-16 -10t-23 4t-23 4q-31 -5 -31 40l6 49v39l8 23q2 4 0 18t13 33l4 41q2 4 6 10t4 8v58q2 6 9 14t7 24
v17l4 14q0 9 -4 30t15 48q2 4 1 15t1 16l8 22q2 10 1 30t1 34l10 28q0 26 8 64q8 39 7 54t2 22l14 28q4 4 2 37t-2 39l10 23q2 8 1 25t-1 26q12 24 12 34v16q0 21 15 36q2 6 1 23t-1 21t2 10q2 5 3 7t0 10t5 22q6 13 5 27t1 15l2 14q0 3 -2 11t0 14t12 19t12 19t1 13
q-2 6 -5 12t-1 13l6 22q0 4 -1 27t1 27t6 9t4 9l2 51q0 2 2 6q2 5 4 9l4 8t4 9t3 10t3 10t-3 15t4 23q10 11 18 13t22 2t23 10h13q17 0 22 -14q0 -23 10 -33q4 -10 0 -28t-4 -30t-2 -18l-8 -29q-2 -2 -1 -11t-6 -22q-8 -14 -10 -18t-1 -12t-1 -15l-8 -22q-2 -8 0 -22
q6 -39 -6 -56q-6 -15 -3 -27t3 -18l-8 -27q-2 -4 -1 -13q1 -12 -12 -34q0 -49 -12 -63t-14 -19l6 -26l-10 -23q-2 -4 -1 -10t-1 -8l-4 -35q-8 -27 -4 -37t30 -18q27 -8 22 -35t19 -29q10 -2 2 28t25 36h190l21 4l22 -4l23 4q24 -6 45 -4l28 8l25 -8l41 2l43 -2l49 6l29 -10
l31 6l18 -2q27 6 84 4q19 -6 33 -5t18 1l14 -4l54 12q17 21 18 38q2 18 3 34t3 24l11 39l-5 37l11 25q0 6 -1 18t2 23l12 44q13 48 12 68t0 26q2 8 9 19t7 68q0 4 14 39q0 4 -1 14t2 13t6 5q18 12 18 21l-13 18v68q4 10 30 37q3 2 31 2t29 -2q20 -10 30 -30t6 -36
q-3 -14 -9 -23t-7 -15t0 -23q2 -28 -11 -41v-29q0 -2 -1 -4t-2 -5t-3 -8t4 -28l-13 -26q-2 -6 -1 -20t0 -17q-1 -4 -3 -6t-5 -7t-3 -26q0 -20 -1 -22t-6 -11q-5 -8 -6 -14q-1 -7 -1 -23t-2 -24l-9 -23q-4 -14 -4 -42t-2 -37t-7 -20q-5 -10 -4 -22t1 -18q-12 -24 -12 -34
l-2 -25q1 -15 -5 -21t-8 -14t0 -33t1 -33t-7 -15q-10 -12 -9 -30t-4 -27q-5 -10 -5 -14v-55q-3 -12 -17 -54v-65l-10 -27q0 -6 1 -24q1 -17 -1 -23t-6 -14t-4 -10l-6 -50q-10 -19 -11 -29q0 -9 -2 -17t-2 -15q-10 -20 -10 -23l4 -26l-6 -25l2 -41l-12 -22q0 -29 -2 -31
l-12 -25q0 -4 6 -16t0 -26q-6 -13 -7 -16t-3 -10t-4 -13t-5 -11t-49 -26q-6 -2 -24 8q-43 23 -39 43zM1255 768q-2 8 -8 7t-7 -6t2 -9t9 -2t4 10zM1251 825q-7 -2 -11 -16t11 -14q14 2 11 20q-3 12 -11 10z" />
    <glyph glyph-name="I" unicode="I" horiz-adv-x="512" 
d="M197 807l20 72l-4 28q0 11 10 31q0 4 -1 15t1 17t8 20q9 23 8 55q-1 31 6 60t7 54l-2 17q0 6 6 12t13 15t6 26q-1 18 -1 24l7 25v45q0 5 7 15t7 22l6 83q0 44 2 44q8 17 32 31q23 14 45 17t37 -13t15 -37l-10 -21q-4 -8 -5 -28t5 -31l-6 -21q0 -6 1 -23t-26 -52
q-2 -5 1 -13t3 -14t-6 -18q0 -6 1 -22t-7 -52q-8 -34 -8 -39l-4 -10l4 -35l-10 -20q0 -3 4 -13t-6 -25q-9 -15 -9 -32q-6 -12 -6 -15v-38l-10 -21v-29l-4 -18q0 -4 3 -14q3 -11 1 -17t-8 -16q-11 -18 -8 -50q3 -33 -7 -51t-11 -44q-1 -27 -5 -40q-4 -12 -3 -20t1 -10
l-14 -31l2 -14l-4 -29l2 -24q0 -8 -13 -25l6 -25q-8 -23 -7 -31q1 -11 -7 -30q-8 -20 -7 -39t-9 -35q-11 -16 4 -54l-6 -13v-24q0 -10 -11 -28v-22l-16 -37l2 -43q0 -11 -3 -21t1 -18t-1 -16l-8 -16t-4 -10q-1 -3 -2 -13t-5 -15q-3 -2 -11 -3t-11 -3t-10 -13t-15 -12
q-12 -2 -20 6q-9 7 -21 7q-22 0 -27 23q0 18 6 24l-6 37q10 20 10 24v12q0 9 6 21t5 33t4 31q6 10 7 13t0 12q-1 8 0 14t5 18t5 20t-3 20q-7 21 8 36q14 29 11 42t-3 17l8 25v59q0 2 2 6q1 3 3 7t1 13t1 13l14 33l-4 45l10 23v34q0 3 10 13q0 6 -1 20t12 35q14 21 10 57z
M287 1106q-4 -4 0 -10t12 0t-4 12z" />
    <glyph glyph-name="J" unicode="J" horiz-adv-x="1175" 
d="M831 549l11 27v10l8 20q2 2 -1 6t-3 9l2 17l-2 26l10 18q0 35 5 40q11 11 11 15l-4 17l4 14v41l11 20q0 9 -1 27t1 28t22 28q20 17 10 23q-10 5 -14 5q-11 7 0 39q6 10 8 12v58l11 41q0 32 8 49q8 18 4 29t-4 18l18 49q0 68 3 74t10 14t-1 22q-8 13 -8 19l11 29v70
q0 35 30 59l29 8l16 8q45 -10 47 -12q24 -17 4 -60l5 -28q0 -8 -6 -26t-4 -38q1 -19 -10 -37t-11 -26l4 -23l-6 -26q-4 -55 -4 -60l-21 -74q-2 -4 -1 -13t-2 -17t-3 -13v-36q0 -11 -10 -21q0 -6 5 -19t-7 -32q-12 -21 -12 -25t3 -15t1 -32l-11 -26q-2 -7 -1 -23t1 -25
q-6 -17 -5 -26q1 -8 -4 -17q-5 -8 -7 -17t-2 -40q0 -42 -6 -56t-6 -29v-19l-6 -9q-3 -6 -5 -11t-1 -25t1 -29l-10 -33q-2 -10 -1 -36q2 -53 -15 -70q-2 -8 -3 -24t-3 -25l-21 -51v-11q-8 -8 -10 -12t-4 -7q-2 -2 -1 -10t0 -11t-8 -10q-8 -8 -8 -36l-10 -10q-29 -51 -33 -55
q-4 -2 -9 -6t-9 -7q-4 -4 -13 -20t-38 -31q-36 -36 -63 -45q-28 -9 -38 -19q-10 -9 -16 -13t-19 -3q-14 0 -18 -2t-7 -5q-5 -5 -12 -5l-32 -14l-18 4q-26 0 -42 -8q-15 -8 -21 -9q-6 0 -14 6q-7 6 -7 9q-4 2 -42 2h-40l-33 -6l-24 16q-4 0 -20 -1q-15 -1 -26 11
q-10 12 -12 14q-4 2 -16 6l-18 6q-6 3 -17 17t-18 14t-14 5t-23 36q-2 2 -16 14q-18 16 -17 34q-1 18 -15 32t-16 18q-2 3 -1 24q1 22 -3 32q-11 27 59 78q6 3 43 -2q16 -8 24 -26t4 -32q-5 -14 -4 -19t2 -8l2 -6q5 -16 4 -26t9 -23q9 -12 11 -14t5 -9t6 -11t12 -9t9 -8
q4 -2 12 -10t18 -16q10 -7 72 -25t86 -15t50 13q22 0 74 15q4 1 71 40t94 89q8 15 21 28q12 12 12 20q0 12 6 19q6 6 6 15q-1 13 12 47t12 59q-1 26 1 34t5 19q3 13 6 23t3 18z" />
    <glyph glyph-name="K" unicode="K" horiz-adv-x="1390" 
d="M354 1040l-10 -33q0 -9 -11 -23q-11 -15 -13 -20t4 -40q0 -24 -7 -29q0 -8 5 -18l-5 -36q1 -18 9 -31t11 -15t9 3t7 12t11 14q9 7 11 7q15 29 33 31t23 6t13 22t22 28q13 10 24 21t49 42q23 34 38 46q65 49 70 55q4 8 11 12t12 8q13 26 26 30t23 15q10 12 14 16
q21 10 32 24q11 13 79 62q18 18 34 38t42 30q2 2 4 6t4 6t6 4q15 8 25 23q10 16 18 20t13 12t28 22q23 13 36 27q13 15 17 19t13 10q10 6 14 10t8 12q10 17 24 17l15 15q25 26 37 26h15l17 -2q34 10 38 10t24 -10q4 0 12 1q16 2 21 -7q4 -9 -5 -23q-10 -14 -16 -25t-14 -20
l-16 -8t-17 -9q-4 -3 -8 -9t-6 -8t-8 -4q-7 -2 -9 -4l-20 -21q-4 -2 -12 -12q-8 -9 -12 -13t-13 -9q-8 -5 -11 -8l-19 -19q-25 -27 -55 -45t-47 -39q-24 -31 -40 -31q-53 -38 -53 -53q-4 -11 -12 -15q-9 -4 -14 -7t-20 -10t-26 -26q-12 -18 -23 -21q-10 -3 -16 -12
q-45 -28 -51 -53q-14 0 -28 -14q-17 -18 -24 -23q-7 -6 -12 -12q-9 -13 -28 -21q-20 -9 -48 -35q-28 -25 -37 -33t-13 -12t-13 -14q-8 -10 -6 -16t2 -16t8 -17q15 -33 19 -37t13 -9t19 -25q9 -19 13 -24t12 -13t27 -37t28 -33q3 -6 12 -14t9 -15q0 -10 13 -23q14 -13 16 -19
t8 -16t20 -26l21 -24l24 -37q18 -36 27 -45t18 -35q4 -4 14 -11t22 -28q13 -22 14 -27q2 -5 4 -7t8 -7q16 -11 16 -24q2 -2 6 -5q4 -4 7 -8t7 -7t4 -12q1 -9 12 -20q11 -10 14 -14t7 -17t19 -30t37 -43q23 -27 33 -35t12 -12t2 -11t1 -9q5 -12 10 -27q5 -14 -7 -23
q-35 -18 -46 -13t-23 17t-28 3q-16 -8 -24 6t-20 14t-17 6q-4 7 -2 25t-3 25t-22 15q-42 21 -42 56q1 12 -15 22t-19 16t-2 21q1 13 -3 21t-24 18t-24 18q-5 8 -11 22q-5 15 -9 22q-2 2 -9 6q-15 9 -15 22q-16 26 -26 35t-12 18q-4 27 -11 31q-23 12 -27 28t-18 27
q-15 11 -19 15t-5 11t-3 10t-5 8t-7 7q-5 3 -5 7q-4 2 -6 10t-4 12q-4 5 -16 13t-16 13t-3 15q0 10 -2 14t-7 9q-5 4 -10 7t-6 13q-1 9 4 21t3 18q-1 6 -19 4t-24 8t-6 23q-2 2 -5 7t-6 7q-15 54 -53 19q-21 -19 -35 -25q-4 -4 -14 -15t-22 -18q-17 -9 -19 -17
q-6 -22 -28 -26q-5 -1 -7 -6q-4 -2 -13 -18t-12 -19t-3 -8l-2 -32q1 -5 -3 -14t-5 -31t-9 -29q0 -8 2 -41t-17 -41t-20 -12q0 -11 15 -11q8 -4 10 -14t-6 -20t-8 -15l4 -28l-4 -15v-17q0 -13 -2 -18l-13 -34q-2 -4 -1 -19t-5 -27t-6 -68v-56l-10 -17q0 -4 1 -17
q1 -12 -3 -18t-29 -16q-34 -14 -50 -2t-24 12q-24 0 -10 68v41q0 8 10 18q0 2 4 25q0 64 1 70t12 16q2 8 0 26t0 24t8 12q6 8 8 14t0 23t0 24l8 30l-4 17q0 6 6 12v11q0 9 2 14l13 24q2 9 0 29t2 31l14 24l-4 19l8 22l-4 27q0 4 9 9t9 11q2 2 0 4t-10 16t5 28q13 13 7 26
q-6 14 -1 26q6 13 6 15q2 2 2 7l8 24q4 8 2 28q-3 34 10 47v50l4 16v37l10 22q2 8 0 38t6 42q9 13 11 17t1 17t-1 20l10 16q2 14 0 46t0 42t8 20t8 17v47q0 4 7 10t5 24q-1 19 -1 23l10 35v11q0 11 4 17q6 9 -6 20q-12 10 -9 15t7 10t4 7q2 1 10 19t15 18h10q6 0 17 6
q44 25 64 5q19 -19 19 -34l-4 -20l-16 -60q-4 -14 -4 -16l4 -12l-11 -19q0 -4 -2 -20t0 -24t1 -12q-1 -5 -7 -16q-6 -12 -7 -18t0 -24q1 -27 -13 -41q-13 -26 -7 -51q5 -25 5 -33l-6 -15v-30l-11 -35v-21zM614 594v-4h7v4h-7zM426 817q-8 -4 -4 -12t12 -3t4 12t-12 3z
M1118 1372q12 12 12 22t-8 9q-12 -4 -12 -21q4 -8 8 -10zM1147 1419q0 -2 6 -4q0 2 -6 4z" />
    <glyph glyph-name="L" unicode="L" horiz-adv-x="999" 
d="M254 1079v45q0 11 3 17t4 11t3 11t0 26t6 32t10 17t-6 24q-7 19 12 26t12 21t-7 20l8 19q2 4 4 30l-2 27l10 51q-2 2 -8 20t-3 23q7 14 24 14q6 3 12 9q38 35 66 14q27 -21 37 -61q1 -3 1 -9t-12 -19t-12 -22v-22l-6 -15v-20q-6 -18 -6 -30v-16q-1 -4 -8 -26t-7 -29
t-1 -11t-5 -9q-4 -6 -4 -10l-2 -39q0 -6 -10 -16t-2 -25q8 -14 8 -20l-11 -32v-7q-8 -16 -8 -29l2 -35l-14 -45v-22l-6 -15v-34l-14 -23l4 -35l-4 -14v-27q-2 -2 -9 -16l9 -31q-4 -10 -14 -26t-13 -26q-2 -11 1 -41t0 -40q-3 -9 -14 -21t-13 -21t2 -24q3 -14 3 -20l-8 -31
q4 -20 2 -39l-10 -28v-52q0 -6 -8 -21t-7 -33q1 -19 1 -24t-5 -15l-7 -14q-2 -3 0 -9q1 -6 -9 -19q-10 -12 -12 -16l6 -16v-101q0 -20 2 -24q2 -3 12 -5t24 -8q13 -6 53 -4t56 2t19 2l35 -4l18 6l27 -6h112l19 6l41 -4l31 8l39 -8l20 8q2 2 18 1q17 -1 21 -1t16 2t22 0l34 5
l26 -13q17 0 27 -4q6 -6 7 -25q1 -22 -7 -32t-8 -22q1 -11 -11 -11t-36 -7t-35 -5l-29 14l-16 -10q-44 -5 -63 1q-19 5 -35 2t-23 -3q-6 0 -12 4q-5 4 -9 5t-12 -1t-11 -2h-7l-13 2l-14 -2l-13 4q-18 -10 -32 -10l-16 14q-4 0 -12 -3q-13 -5 -19 -3q-7 2 -22 -1t-29 0t-20 3
t-17 -4q-10 -4 -45 4l-25 -10q-10 0 -37 7t-43 0t-47 -7l-25 6l-40 -6q-8 0 -17 8q-14 28 -14 38t8 24q11 22 6 35q-5 12 10 26t15 21q0 8 -8 22t-1 30t6 26q-1 12 1 16t8 10t6 12q0 2 -3 9t-1 11t9 14q7 8 7 18t-12 22q-9 36 7 66q16 29 16 71t6 55q8 17 8 29v14l4 15
q2 2 -1 9t-2 15t13 21q6 24 6 41l9 31l-4 16q0 30 6 57l-4 21l14 35q0 4 -4 16t1 25q15 38 14 59q-2 21 16 62q2 7 0 25t6 26t9 11t1 21z" />
    <glyph glyph-name="M" unicode="M" horiz-adv-x="1765" 
d="M152 510q6 6 6 22t6 23q2 8 0 30t2 34t3 23q-1 10 4 30t5 24v13q0 14 6 21t5 22t4 24q6 10 6 15l-4 30q0 3 7 18t4 38q-3 22 -1 26t7 11q9 13 8 27t4 24t7 16v76l9 24q2 5 3 19t5 22l8 19q2 4 1 19t-1 21l10 21q2 6 0 22t12 24q13 8 14 12t-4 11t-5 11v7l2 19l-2 29l4 16
v9q0 2 6 20v26q0 4 3 17t2 26t11 38v29q0 12 2 30t25 29q6 4 18 3t18 -9t5 -11q0 -2 -3 -10q-4 -9 8 -20q11 -10 24 -44q14 -34 21 -43t7 -18q0 -8 1 -11l3 -9t14 -15q17 -11 20 -26q3 -14 9 -22q7 -9 13 -22q6 -14 17 -24t14 -15t2 -16t3 -19t24 -27q26 -24 36 -58
q11 -34 31 -51l2 -12q14 -33 22 -41q8 -7 10 -11t4 -12t7 -10q2 -4 11 -12t12 -19q5 -21 25 -52q19 -32 22 -42q2 -10 12 -20q12 -13 16 -28q3 -15 23 -41q27 -34 29 -46t5 -19q29 -39 46 -31t32 26q14 17 30 33l29 29q13 13 17 23t17 18q24 13 24 27q23 38 41 48
q18 9 29 28q17 28 34 44q17 15 32 36q15 22 46 59q8 5 22 19t20 18q5 4 9 10t8 10q4 5 7 9q20 10 28 27q10 22 26 35t29 31q13 17 19 23t31 21q8 8 27 39t61 55q2 2 4 8q3 6 15 24q12 16 19 25t23 26q25 26 37 57q22 22 29 32q10 15 18 15q9 0 16 5t10 7t8 4t11 -2t6 -23
t5 -22q2 -22 -10 -46t-11 -26l-2 -26l-10 -19v-26q0 -4 -2 -7q-2 -2 -4 -6q-3 -4 -5 -7t-5 -9t-1 -38t2 -42l-10 -55q0 -23 -6 -37q-8 0 -8 -14q-6 -16 -2 -43q0 -3 -10 -23l6 -18q-2 -6 -12 -32t6 -56l-15 -31q-2 -9 -1 -29t1 -30l-10 -15q0 -2 -4 -17q-4 -16 -3 -32t1 -23
l-10 -36v-43l-7 -21v-24q0 -4 -9 -19t-4 -28t4 -16t-11 -23v-58l-12 -37q-2 -10 -2 -30t-13 -47q0 -30 -4 -40q-4 -9 -6 -15t2 -22q4 -15 4 -24q-12 -19 -11 -31t1 -16l-10 -18q-10 -35 -15 -76l2 -27l-4 -14v-25q-8 -15 -8 -17t12 -26q0 -14 -14 -28v-12q0 -23 -26 -42
q-26 -20 -30 -21q-5 -1 -15 5q-9 6 -13 8q-38 4 -40 14t-1 19q2 10 2 12l-2 21l10 18v37l11 23q2 6 1 15t2 20t2 20q-1 8 0 11t5 10q6 10 6 40l4 15l-4 22l14 33q2 8 1 24t1 25l9 19q13 30 12 47q-2 18 0 22l10 43q0 8 -4 33t-2 34t8 16t6 13q4 6 2 26t0 26l11 20v51
q0 5 6 15t8 14t1 17t0 17t5 12q4 7 4 11v62l17 35q0 8 -2 34t1 32q3 5 7 11q4 5 4 11t-1 20t1 20t5 11q3 6 6 11t3 11l2 56q0 12 15 32v84q-4 4 -16 4t-16 -4q-6 -5 -18 -27t-26 -24q0 -2 -10 -17t-11 -19q-6 -10 -24 -19q-7 -5 -15 -17q-23 -31 -40 -40q-18 -8 -20 -19
q-3 -12 -5 -15t-9 -9q-6 -7 -10 -11t-11 -15t-25 -29t-19 -25l-2 -6q-17 -23 -45 -37q-4 -2 -5 -12t-16 -22t-23 -22t-13 -10q0 -12 -28 -32q-28 -21 -31 -34q-4 -14 -10 -19q-7 -5 -12 -9t-9 -6q-5 -6 -13 -16q-10 -14 -27 -26q-16 -11 -16 -25t-17 -28q-16 -14 -22 -19
t-11 -16q-10 -23 -32 -40q-2 -4 -5 -9t-6 -11t-5 -7q-2 -2 -5 -4t-7 -4q-3 -2 -15 -14t-20 -13t-33 15l-27 18q-2 6 -2 22t-16 30q-16 13 -20 23q-4 11 -2 21q2 9 0 13t-12 6t-15 10q0 23 -14 37q0 2 -11 31l-2 18q-4 4 -12 11q-14 12 -14 20v8q-4 6 -16 20t-11 25
q-4 6 -16 18q-13 12 -17 18t-5 18t-15 36t-18 39q-5 15 -17 24t-22 31q-9 22 -17 33l-20 26q-18 22 -20 35q-3 13 -5 17t-7 9t-9 11q-3 5 -7 11t-3 18t-1 19q-23 49 -51 38q-7 -2 -11 -16q-3 -14 -8 -23q-5 -10 -4 -22t-2 -15q-4 -3 -16 -5t-12 -9q-5 -5 5 -8q9 -4 11 -6
q2 -4 2 -39t-2 -43t-7 -23t-7 -24v-43q0 -4 -9 -13t-6 -40q3 -30 3 -40t-13 -36q0 -71 -2 -76l-10 -24q0 -4 1 -16t-1 -15q-2 -4 -8 -13t-6 -14v-63q-16 -16 -14 -43q3 -27 2 -35t-7 -17q-6 -8 -8 -14t-1 -25t1 -25t-5 -13q-5 -8 2 -20q7 -11 -1 -28q-8 -16 -10 -21t-1 -17
q1 -11 -1 -19t-7 -21q-11 -28 -5 -49q5 -22 -5 -35t-10 -20l2 -22l-12 -33q2 -4 8 -10t6 -12l-12 -25q-2 1 -2 -15t2 -20q0 -90 -51 -90l-25 -4l-24 12q-22 0 -25 5q-2 5 -2 24v45q0 12 4 14q16 4 16 8q-10 39 -3 52q7 12 9 17t1 21q-2 16 0 23l10 19q6 33 2 77l12 41l-4 17
q0 14 6 26v41q0 4 17 27z" />
    <glyph glyph-name="N" unicode="N" horiz-adv-x="1636" 
d="M289 1415l8 61q0 8 -4 24q-4 17 0 26l12 18q13 25 25 27q16 2 39 -21t29 -35q8 -14 20 -23t17 -26q6 -18 14 -28q11 -13 9 -29t48 -66q2 -4 4 -12t5 -10q32 -21 36 -43t22 -31q5 -8 23 -39q4 -4 13 -8t13 -19q5 -15 8 -21t12 -15q14 -15 18 -27t12 -19t8 -12q4 -4 8 -19
t26 -37q21 -21 21 -33q1 -12 11 -22q10 -11 12 -13q6 -5 11 -13t19 -22q20 -20 29 -49q22 -22 24 -35q3 -13 24 -38t33 -44t26 -36q12 -16 16 -22t6 -8t2 -9t16 -23t23 -26q6 -9 14 -38q4 -4 13 -11t21 -29q13 -22 19 -28t8 -12q9 -18 13 -30t9 -18q6 -6 14 -16q8 -9 20 -35
t24 -32q14 -7 17 -25q3 -17 15 -26q12 -10 18 -27t27 -35q4 0 7 4t4 4q1 1 6 3t11 9t4 25q-2 17 -1 23t3 10t4 7q1 3 3 7t1 14q-1 11 -1 15q6 6 6 13l-4 39l14 24v31q6 24 6 43q4 12 3 38t6 48q7 21 6 34t7 25q9 12 10 23q1 10 -1 43t2 45l8 24q2 7 2 13v12l2 27q0 6 2 12
l10 22q3 38 -6 52l6 16v16q-1 21 7 30t10 16t0 30t-1 29t11 26q0 10 -2 44t6 47q8 14 10 19t1 16q-2 17 5 25q7 9 6 23q-1 13 -1 19q2 6 9 17t7 20l-10 30l4 17l6 82q0 37 3 42t32 13l31 6l18 6q20 4 42 -17q23 -21 23 -25t-11 -20q-11 -17 -13 -34v-67q0 -8 -8 -24t-7 -36
t-1 -28l-9 -21q-2 -6 -1 -22t0 -22t-5 -16q-4 -12 -5 -16t-2 -17q-1 -17 -10 -29q-9 -11 -6 -47t3 -42l-17 -43q-2 -8 0 -32t-4 -36t-10 -33t-8 -32q-4 -4 -18 -9t-16 -13q-1 -8 9 -9q5 4 13 4q16 0 8 -55q-14 -27 -12 -52q1 -25 1 -36l-14 -49q-2 -10 0 -34t-2 -36l-10 -20
q0 -38 -7 -46q-6 -8 -8 -14t-1 -23t1 -26l-10 -24q-2 -1 -1 -11t0 -13t-3 -8t-2 -7v-43l-10 -21v-32q0 -9 -10 -29v-24q-6 -19 -5 -33q1 -13 -2 -19l-14 -23l4 -45q2 -7 -1 -33t-1 -34t-2 -19t-4 -16l4 -16q-2 -13 -12 -29q-11 -16 -21 -18t-15 0t-8 5t-7 8q-9 11 -29 21
q-4 6 -12 23t-17 26q-10 9 -13 14t-7 15t-7 13t-7 9t-10 10t-7 12q0 8 -2 9t-9 11t-11 15t-9 22t-19 27q-20 14 -18 21q1 7 -7 19t-12 22q-5 11 -8 16t-12 9q-25 11 -26 31q-2 20 -12 30q-10 11 -15 13q0 12 -23 39q-23 28 -33 42t-13 26q-4 12 -12 18t-9 12q-11 33 -27 42
t-18 20q-3 16 -10 21q-7 4 -16 16t-11 24t-19 28t-25 36q-7 20 -10 25t-12 10t-14 10v9q0 9 -11 21q-14 16 -18 29q-2 13 -22 33t-26 28l-2 15q-21 21 -36 49q-16 28 -20 34t-11 13q-7 6 -9 10q-2 3 -4 11t-14 24t-13 20q-2 4 -2 9q0 4 -2 7t-8 8t-8 8t-4 9q-1 5 -9 13
t-16 25t-14 29q-4 12 -16 21q-12 8 -11 20q-1 12 -19 28t-21 21t-6 12q-3 6 -7 12t-6 6t-16 -9t-17 -21q-2 -12 -2 -20t-5 -18t-5 -58v-50q-13 -26 -13 -31l2 -43q-6 -12 -6 -14v-11q0 -8 -5 -24t-4 -44t0 -34t-3 -9t-4 -7q-6 -12 -4 -38t-21 -100v-24q-10 -20 -10 -41
l4 -21q0 -32 -7 -47q-7 -16 -7 -45t-1 -33t-10 -10q0 -14 -4 -20t-7 -12t-5 -16q-2 -9 0 -41t0 -43t-7 -23q-5 -11 -8 -19t-2 -42t1 -47t-11 -21v-39l-8 -35q-2 -4 -2 -13v-12q0 -8 -6 -14q-2 -20 0 -43q6 0 6 -16l-14 -31q0 -9 -2 -13q-3 -4 -17 -13t-22 -17t-28 2
q-19 10 -29 10q-31 0 -28 41q1 12 1 14l-2 25q15 30 13 42q-3 11 5 23t9 19l-5 18q0 11 4 18t2 16q-1 9 -1 13l10 19q2 4 1 15t2 19t3 21v19q6 6 10 14q2 8 0 28t0 31l15 41l4 23l-2 26q0 9 12 17t12 15t-8 14t-6 26l8 23q2 8 1 22t1 23l10 26v31q6 18 6 30v21q0 31 6 44
q9 18 8 29t5 31l-4 25q0 1 10 21v43l6 24v15l8 20q2 5 1 17t1 16l9 20q2 8 1 26t1 28l14 53q0 7 -1 27t1 25t8 12t8 13t0 25q-2 18 0 27l11 27q2 8 1 23t-1 22q10 20 10 22z" />
    <glyph glyph-name="O" unicode="O" horiz-adv-x="1703" 
d="M1155 78l-25 -10q-12 -4 -25 -14q-18 -13 -30 -13h-10q-45 -30 -47 -31l-18 2l-29 -2l-13 4q-2 0 -15 -11t-23 -9t-12 8l-6 12t-9 4t-6 -10l-2 -14q-9 -14 -72 -14l-14 -7q-2 -2 -29 -1t-29 1h-84q-6 3 -21 9q-14 6 -26 7t-23 1q-32 0 -45 15q-14 15 -34 18q-29 3 -42 13
t-29 13q-15 2 -21 4q-6 5 -14 19t-13 20l-12 2q-7 4 -19 11t-14 9t-11 4q-9 3 -17 15q-7 13 -11 17t-15 11q-20 13 -30 38q-4 4 -11 9q-10 7 -14 19t-13 17q-9 6 -13 10q-15 23 -23 43q-8 19 -11 23q-4 4 -7 17q-3 12 -11 24q-9 12 -13 21t-7 35q-4 26 -5 33t-4 10t-9 15
q-2 14 -3 40t-2 35t-12 23l4 37l-4 99l15 22q2 7 -6 21t-9 20l11 21q2 4 3 14t5 16q10 15 10 49t10 49q15 23 15 30v11l8 19q2 4 3 21t15 30q0 4 2 8l4 8q3 6 10 14q7 6 12 20t14 28t9 18l3 7q0 2 12 14q0 10 7 17q7 6 10 10q7 8 8 20q2 12 11 17q14 8 17 16q3 9 17 23
t22 24q8 8 17 18t17 18t13 19q6 4 15 8q10 5 14 9t19 16t24 24q8 11 20 18t32 25q19 19 34 20q14 1 42 23q27 21 31 24t10 3q5 0 7 1q6 4 12 10t22 6h19l39 14q2 2 8 1t10 1l39 18q8 2 22 1t23 1l29 13q27 -5 38 -1q11 3 52 3h43q9 0 16 -3t12 -4t7 -3l31 6l10 -6
q28 0 51 -15q8 -2 31 -1t35 -7q11 -8 30 -8l27 -12q4 0 11 -6l12 -9q4 -2 10 -4q33 -11 49 -31q38 -22 40 -27q3 -5 9 -11t21 -13q14 -6 22 -14q8 -9 12 -15t20 -21t33 -39q16 -25 26 -36q10 -10 14 -15t5 -13t3 -12t12 -18q12 -16 12 -44q9 -9 25 -49l2 -15q2 -4 5 -8
q10 -14 12 -45q1 -31 6 -45q4 -14 6 -22l-4 -37l12 -27v-106l2 -17l-14 -35q0 -6 2 -24t0 -25t-17 -22v-15l-6 -10q0 -2 3 -9t-2 -14q-8 -11 -6 -20q2 -8 -7 -25q-8 -18 -8 -23l-11 -28v-6l-14 -33q-2 -2 -2 -7l-8 -19q-3 -8 -10 -22q-8 -13 -14 -26q-6 -12 -10 -18t-8 -14
q-3 -8 -13 -12q-9 -5 -9 -16t-3 -15t-14 -13q-16 -13 -13 -28t-12 -27t-27 -9t-11 14q2 12 -5 25t-19 -9t8 -33q0 -2 5 -2q18 0 10 -17t-19 -23q-10 -5 -14 -10t-12 -13t-15 -16q-8 -9 -17 -18q-10 -9 -19 -23t-25 -22q-20 -9 -35 -25q-16 -17 -27 -22q-12 -4 -16 -6t-9 -11
t-12 -13h-8zM690 1438v-2h2v2h-2zM1309 1335q-34 17 -37 17q-25 18 -32 33q-8 16 -22 16q-18 0 -26 8t-27 13q-19 4 -23 7q-6 3 -14 8t-14 7t-24 0q-28 -3 -41 10q-25 6 -83 6t-64 -1q-5 -1 -31 -2t-37 -7t-20 -6h-23l-25 -14h-8q-8 0 -15 -6q-9 -8 -21 -7h-11
q-20 -10 -33 -18q-12 -8 -25 -7t-21 -10q-8 -12 -12 -14t-10 -2q-10 0 -21 -15t-25 -21q-18 -7 -32 -24q-15 -17 -37 -12q-22 4 -26 2q-10 -10 -10 -30t-21 -41q-2 -5 -2 -11q0 -10 -18 -23t-20 -22q-1 -8 -6 -14t-27 -35t-27 -40q-4 -10 -18 -24q-17 -18 -15 -31t-12 -39
q-15 -27 -21 -50t-7 -27t0 -12t0 -11t-5 -8q-6 -8 -6 -15v-7q-20 -20 -16 -57t0 -49l-13 -41l2 -54l-4 -12v-13q0 -9 -6 -30l12 -27l-2 -49l17 -32q0 -4 -1 -14t1 -15q2 -4 6 -8q4 -3 4 -7v-12q0 -11 6 -20q6 -8 8 -14l10 -27q10 -32 27 -52q19 -20 23 -25t4 -14t6 -16
t31 -26q51 -54 62 -60t20 -6q10 -20 29 -23q19 -2 33 -15q15 -13 24 -13q8 0 11 -1t5 -4t21 -15t51 -18q33 -5 41 -4t11 0t8 -5t9 -6l23 4l28 -2l19 8q6 2 14 -1t20 -3t48 8l28 -4l37 16q25 0 35 7q16 10 28 9q13 -1 27 8q13 9 16 11t10 4t9 6l29 23h10q11 0 26 13t22 14
t28 15q19 15 25 18t11 3t9 4l20 25t31 31q14 11 23 30q6 7 22 19t24 21t18 31q12 22 16 27l8 10t10 11t6 15t12 23q12 12 13 18q2 6 2 11q0 9 27 54t25 59q-1 14 1 18q2 3 5 7t3 6l8 29q11 19 12 30t2 19t1 16q10 19 10 31v27l10 20q3 52 -2 67q-4 15 -3 30t-5 36l-4 54
q-2 2 -1 15t-1 17l-8 25q-2 2 -2 8v8q-11 16 -10 23q1 10 -15 35v14q-11 46 -20 51q-10 5 -15 10q-2 4 -4 14q-3 13 -23 26t-40 47t-43 34z" />
    <glyph glyph-name="P" unicode="P" horiz-adv-x="1255" 
d="M596 1552l43 -4q21 0 51 -6l49 4q5 0 21 -6q28 -11 70 -7t57 -11l20 -6q11 -4 31 -18q30 -20 47 -19h14q7 -5 13 -13t10 -12q23 -8 41 -18q2 -4 3 -8t2 -6q1 -3 4 -7t14 -16q12 -11 14 -15t14 -12q4 -4 8 -14t15 -21q14 -14 13 -24t4 -18q5 -9 6 -13t0 -13q-1 -13 14 -69
l-3 -24q0 -2 3 -13t-5 -23q-8 -11 -9 -20q-1 -8 1 -30t0 -26q-2 -5 -6 -10q-4 -4 -6 -8t-3 -12t-4 -15q-2 -7 -22 -29t-27 -34t-11 -16l-6 -6q-3 -2 -6 -3t-5 -4t-4 -5q-8 -8 -8 -17q-12 -12 -17 -12q-4 -4 -15 -16t-18 -14q-8 -1 -13 -2q-11 -2 -21 -16q-10 -13 -54 -32
q-4 0 -8 1q-6 1 -24 -17h-9q-10 -3 -18 -9t-12 -7t-10 -1t-10 -1t-9 -5q-6 -4 -11 -4q-6 0 -20 1t-19 -1t-13 -8q-12 -9 -25 -7t-24 -5q-11 -6 -17 -7h-57q-4 0 -18 -9t-25 3l-19 11q-6 0 -14 -8t-16 -7l-15 12l-22 -16l-16 4q-24 -6 -109 -4l-25 4q-45 0 -53 -10
q-12 -20 -12 -68l-4 -18l4 -12v-43q-8 -24 -5 -32q3 -7 3 -9l-13 -39q-2 -4 -1 -10t-1 -9l-8 -22q-2 -2 -2 -8v-9q-10 -15 -6 -23q4 -7 6 -13t-10 -19v-47q0 -4 -5 -12t-4 -21q1 -14 -2 -17l-11 -11q-8 -7 -9 -13q1 -6 11 -16t0 -20q-10 -9 -10 -12q-1 -3 2 -10
q5 -11 -6 -21t-17 -29q0 -4 7 -21t7 -33q4 -14 -3 -42t-13 -34q-7 -6 -17 -12q-10 -4 -20 -11t-14 -9t-8 0q-9 3 -14 11q-6 7 -15 7t-12 3t-13 43q6 24 5 35q-2 21 7 43l8 20q2 8 0 24t-1 22t9 19q8 12 7 19l-4 18l10 23q0 6 -1 19q-1 14 1 18t6 10t4 10l-4 12q4 41 4 45
l14 23l-4 27l17 24q0 4 -8 17t0 28q8 14 6 18t-2 20t14 44l-2 31q6 18 6 49l12 18v37q0 18 11 33q0 4 3 26t2 47q-1 26 4 36t6 13t2 10t3 11l10 19l-8 20l8 25v78l9 22q0 2 -2 6q-1 4 2 6q0 36 18 60l-6 32l6 21q0 4 -1 20t1 21q2 6 12 17q20 22 10 34q-10 11 -8 26t6 22
q4 6 6 12t0 19q-1 13 0 19t5 13q4 8 5 12t0 13q-1 10 0 14t4 8q15 21 1 35q-7 25 15 44t67 15l37 4q6 -6 18 -7t90 5l53 -4q11 0 21 10zM375 1221q-10 -28 -10 -41t1 -18t-1 -7l-13 -35v-51q-10 -19 -10 -25t-2 -21t-6 -25q-6 -10 -7 -16q-1 -5 0 -17t-1 -19l-15 -20
q-2 -6 2 -18t1 -32q-3 -18 -3 -33v-18q6 -4 9 -4t12 6q22 6 44 -3t30 -7l28 10q12 2 44 0t39 0t11 3q4 0 8 2t9 2h8q4 0 13 4q10 4 18 6t38 0t39 -1t19 11q6 2 19 2t25 7t22 6q17 -2 26 5t19 6q12 -1 24 7q13 8 20 8q10 -1 25 13t27 14q6 4 32 26t39 26q13 3 40 36
q26 34 26 40q0 7 2 10t10 12t11 15q0 17 -3 23l7 14v27q13 13 11 23q-2 9 -8 21q-5 11 -3 23q4 26 -11 40q-16 13 -16 23v11q-13 35 -39 48q-8 4 -17 13l-15 15q-11 12 -15 12h-8q-4 0 -23 13t-31 14l-18 3t-10 2t-15 7t-18 6l-24 -6q-7 0 -17 6q-10 5 -21 7t-48 0t-49 0
t-29 6t-23 4h-82q-24 12 -37 10q-12 -2 -28 -10q-8 0 -23 2q-27 3 -34 -34q-8 -37 -11 -46v-31q0 -2 -6 -13t-5 -32q1 -22 1 -28l-6 -15z" />
    <glyph glyph-name="Q" unicode="Q" horiz-adv-x="1722" 
d="M774 -20l-36 10h-13l-16 4l-52 -10l-16 10h-8l-55 22h-23q-2 2 -8 13t-23 9q-16 -3 -21 0t-15 15q-14 18 -29 10q-16 -7 -21 -1q-4 6 -7 8t-19 10t-18 12q-3 4 -8 11t-9 11t-11 5q-8 2 -14 5t-12 5q-6 6 -15 18q-9 11 -15 17t-22 21q-18 15 -24 21t-7 16q-2 15 -19 31
t-25 36t-25 45q-16 24 -19 30t-3 15t-15 27q-15 17 -11 30q7 18 -5 32q-12 15 -13 25q-1 9 -2 15t-1 10q-8 8 -8 21l8 22q-13 13 -11 32q1 19 1 23q-7 7 -7 21q0 15 8 31l9 18l-17 41l11 31q2 6 1 16t-1 14q13 26 11 34q-12 35 5 52q4 2 4 5l2 16l4 10q4 25 4 33q-2 0 -5 9
q-5 15 12 38v10q0 9 5 14t7 8q6 9 11 16t4 19q-1 13 21 43t26 51t13 31q9 11 13 16t10 12t21 34q20 36 36 47q17 12 25 33t15 24q24 10 30 26q7 15 18 23t33 32q23 24 40 35q16 10 27 20t15 12t11 2t11 3t18 16q12 12 20 16t20 5t24 7q18 9 25 16t29 11t28 6t11 5q4 3 9 5
t8 4t12 1q11 -1 28 9t31 8q14 -1 20 -1q20 10 31 10q10 4 72 2t73 0l17 -6q10 0 16 6q22 0 36 -6t24 -6h14q6 -2 13 -8t14 -7l43 -2q16 0 26 -10q31 0 43 -8q11 -7 19 -13t12 -8t12 -2t12 -2t9 -6q4 -4 8 -9q7 -9 15 -9q6 0 18 -12q16 -16 24 -15q8 0 14 -7t11 -11
q4 -3 7 -7t11 -10q7 -6 11 -9t8 -10t8 -11t20 -22t22 -24q6 -8 20 -20q13 -12 23 -33q9 -20 19 -29q10 -10 14 -16t6 -21q4 -19 12 -33q9 -14 9 -25v-13q2 -4 8 -13q10 -14 8 -26t7 -24q8 -12 8 -21l10 -29q4 -10 2 -50t-2 -50l4 -16l-2 -27q-2 -4 -1 -17t-1 -18l4 -20
l-4 -31q0 -6 1 -20t0 -19q-1 -6 -5 -17q-4 -12 -5 -18t0 -21t-1 -21t-8 -19q-6 -11 -7 -19t0 -22q2 -27 -10 -40t-16 -24l-2 -18q-6 -6 -10 -14q0 -44 -7 -49q-6 -5 -8 -11t-4 -9t-10 -10q-14 -12 -14 -26v-14q-9 -27 -21 -39t-16 -22q-4 -9 -15 -16q-10 -7 -14 -11
q-2 -4 -4 -14t-13 -22q-11 -13 -16 -21t-16 -11q-22 0 -22 -27q-19 -34 -43 -51q-37 -28 -41 -39q-3 -2 -9 -2h-8q-8 -4 -15 -16t0 -23t19 -12l8 -2q16 -7 37 -19t29 -15t11 -5t8 -9t7 -9t10 -7q21 -15 12 -32t-28 -14q-18 2 -18 -3q-33 -27 -49 -28l-25 8q-4 2 -9 -1t-7 -3
q-19 12 -28 13q-9 2 -15 5q-6 6 -10 16t-8 16q-3 5 -21 13q-18 7 -21 11t-7 6t-6 4q-3 2 -10 2h-11q-9 4 -15 4t-21 -16t-18 -19q-4 -2 -15 -1t-26 -11q-14 -12 -19 -15q-5 -4 -22 -2t-23 1t-15 -11h-31l-14 -4q-2 -2 -10 -1t-12 0q-3 -1 -13 -7q-9 -6 -15 -8t-19 -1t-19 1
l-13 -6h-26zM489 174h9q31 -8 58 -31t48 -21q30 2 40 -8t29 -9t25 1l25 -10q8 -2 18 -2l41 2h56q20 6 34 3q15 -2 34 9q18 11 24 13t13 1t19 5q13 6 22 6h13q23 12 33 16t21 17q0 8 3 30q4 22 -4 32t-15 15q-15 11 -15 21q-17 36 -10 41q8 6 13 9t13 12q8 8 16 14t29 2
q22 -4 29 -25q7 -22 19 -32q12 -11 14 -15q7 -15 16 -24q11 -10 15 -7t11 2t13 3t12 12t12 13t20 19q15 14 28 27q12 11 18 19t18 18t20 26q9 16 18 21q10 5 13 11l6 12t6 13q4 8 31 52q27 43 26 49q-1 7 1 11l15 26v12q0 7 11 19q18 20 15 41t11 38t16 23t1 21q-1 14 -1 18
l10 23l-2 29q0 16 8 32v56l7 35l-2 26l6 19q0 6 -8 17t-5 23q2 13 1 18t-5 13t-5 14t2 15t3 17t-10 18v30q-12 50 -27 60q0 32 -34 68t-35 47l-14 21q-6 13 -20 21t-27 24t-28 23t-47 31t-48 32q-17 7 -34 10t-23 5t-14 9q-18 12 -69 12q-66 16 -67 16l-33 15l-23 -6
l-28 -13q-25 -6 -39 -3q-19 4 -36 -6q-16 -10 -32 -8q-16 1 -27 -6q-13 -9 -22 -9h-10q-13 -13 -31 -12t-28 -10q-15 -16 -35 -24q-19 -8 -26 -14t-16 -7t-24 -18q-14 -16 -18 -20q-16 -8 -27 -8q-39 -20 -78 -68q-15 -31 -29 -39t-20 -14q-6 -5 -15 -25t-13 -25t-11 -12
q-8 -7 -10 -9t-4 -7l-4 -8t-3 -7t-9 -9t-12 -22q-3 -17 -18 -41t-22 -33q-8 -9 -11 -15t-4 -18q-1 -17 -15 -33q-13 -16 -13 -32v-27q0 -17 -6 -23t-5 -12t-2 -17q-3 -12 -2 -26q1 -19 -6 -29q-7 -11 -7 -27t2 -18l-7 -16v-27l-6 -41q0 -26 10 -49l-4 -17v-41l7 -14
q0 -4 -2 -24q-2 -21 0 -27t12 -16q0 -27 18 -56l22 -34q4 -6 2 -14q-1 -9 14 -27t21 -29q7 -12 10 -16t11 -13q10 -10 14 -21t12 -16q9 -5 16 -16q8 -14 31 -27q22 -14 38 -28q24 -21 34 -21z" />
    <glyph glyph-name="R" unicode="R" horiz-adv-x="1216" 
d="M176 627l8 61v19q8 46 21 59q2 8 0 28t2 32t3 21q-1 11 4 21t5 15l-4 16v29l12 35l-2 26l8 37l-2 33l11 20l4 34q0 9 3 13t5 8q4 7 4 14v9q16 32 16 41l-6 27l6 59v29l-4 16q2 8 10 25t6 34q-1 17 0 22t5 17t4 19l6 39v31q0 22 11 34q14 17 33 17h13q12 6 20 9t20 -5
q13 -8 20 -8q16 8 27 8l28 -4l23 6q6 -6 30 -6h29l14 4q3 0 33 -10h88l25 -11q16 0 41 6q12 -2 34 -10l28 -10q6 -2 16 -1q17 1 28 -9q10 -10 34 -14t48 -21q15 -5 35 -25q23 -23 37 -30q33 -17 45 -46q11 -29 23 -37q16 -10 16 -24v-8q12 -25 24 -89t13 -73l-11 -18
q-2 -7 -1 -23t1 -24q-6 -6 -6 -17v-24q0 -5 -20 -45v-10q0 -19 -10 -28q-13 -11 -23 -33q-9 -22 -28 -38t-22 -26q-4 -9 -24 -23q-19 -14 -43 -37q-38 -37 -59 -37q-23 -24 -37 -24t-24 -7t-28 -12q-18 -6 -24 -10l-26 -14q-22 1 -40 -7q-17 -8 -26 -8l-33 -2l-20 -10l-27 6
q-20 -2 -22 -22q-4 -7 12 -23q16 -35 22 -42t20 -15q13 -8 21 -31q7 -23 15 -32t12 -14t10 -11t8 -19t13 -24q18 -18 18 -29q5 -6 13 -13t11 -11t4 -14q2 -15 8 -19q7 -5 9 -9t4 -6t4 -8t25 -31t28 -40q7 -20 17 -27t12 -15q3 -9 13 -20t16 -24q5 -13 16 -26t16 -21t12 -15
q7 -8 12 -16q5 -9 11 -17t11 -17q4 -9 14 -29t-6 -38q-29 -14 -63 -6l-19 2q-10 6 -25 20t-37 27q-22 12 -27 20q-5 9 -5 14t-1 8t-5 7t-6 10l-7 21q-6 19 -19 35t-19 30q-8 17 -18 25q-11 7 -21 21t-11 20v6q-15 38 -32 48q-16 9 -19 23q-4 15 -6 19q-4 4 -9 12
q-6 8 -16 18t-10 25q0 18 -12 26t-24 25t-16 26q-3 10 -5 14t-7 9t-9 11q-3 6 -7 10t-10 16q-6 11 -8 15t-5 7t-5 7t-7 7q-10 8 -18 37q-7 29 -43 47q-8 2 -25 0q-22 -3 -35 5q-38 22 -73 -13q-2 -4 -1 -20t1 -21q-10 -10 -10 -23l-2 -31q-10 -17 -9 -32q2 -15 -2 -23
t-4 -18v-25q-13 -26 -11 -46q3 -19 1 -23t-8 -14q-6 -9 -5 -31q1 -21 1 -26t-6 -20l4 -35q0 -8 -7 -22t-6 -29q1 -14 -3 -30q-3 -15 2 -25l-11 -27l-2 -45v-20q0 -5 -8 -25q-6 -37 -7 -39t-36 -13t-45 -7t-30 20t-9 54v28q10 28 10 64l11 22v14q0 12 5 20q5 9 7 15l-6 41
q2 2 3 6t4 10q3 5 4 8t0 9t1 10l8 23q2 2 1 15t5 40t6 35l-6 18q3 8 11 22t11 20q3 7 1 29t-2 30q6 6 6 16t10 33zM82 35v4l2 -4h-2zM555 1462q-11 -6 -21 -6t-16 6q-55 8 -94 -18q-12 -15 -12 -39v-33l-17 -51v-39l-10 -18q-2 -8 -1 -22t1 -23q-12 -24 -12 -35l2 -41
q-6 -6 -6 -15q0 -23 -11 -38q-2 -10 0 -46t-10 -61q-6 -25 -6 -63l-10 -42v-10q-2 -4 -11 -13t-1 -20t8 -18l-13 -29q-1 -4 5 -11t14 -9t21 -1t16 1h16q2 0 12 8t17 8q28 -14 33 -14l28 8q2 0 21 -4t55 3q35 6 42 11t16 6t41 2t59 9q16 11 25 19q10 8 16 10q6 4 15 3t21 4
t39 27t31 21q4 0 7 1q19 6 83 89q16 8 23 22q12 17 12 31t4 18t6 5q2 2 4 5t2 7t2 6l15 37l-6 57l6 50l-17 27q0 5 1 30t-18 33q-6 2 -12 13q-5 11 -5 13q-5 4 -11 8q-6 3 -8 7q-19 34 -39 34q-4 2 -19 12q-22 15 -35 14q-13 -2 -33 13t-32 14q-16 -2 -29 6q-13 7 -30 6
q-18 -1 -33 6q-14 7 -26 7h-35l-41 2q-2 0 -14 3q-13 3 -25 -3z" />
    <glyph glyph-name="S" unicode="S" horiz-adv-x="1099" 
d="M289 1161l-2 15q-15 15 -15 25l-10 26q-2 7 4 18q6 9 6 17t-1 36t6 42q8 14 10 18t1 13t1 13q3 4 21 30t23 29t7 7t7 19t9 22q4 4 19 11t22 17q7 9 11 11t11 5t11 6t13 11q17 15 32 14t28 11t21 14l25 -6q8 4 14 10q6 5 15 7t38 0t43 0q18 9 25 11t21 -7q8 0 21 4
q14 4 20 2t14 -10t12 -11q12 -2 39 0q63 5 63 -10l25 -6l8 -5q9 -5 17 -5h12q12 -6 18 -15q4 -2 10 -2h11q27 -12 37 -26l4 -19q10 -43 -19 -63q-12 -8 -28 -8q-9 -7 -14 -7t-10 3q-5 2 -8 4t-12 1t-13 0t-6 4q-3 3 -6 5t-5 4t-14 2t-33 27h-6q-4 0 -19 11t-32 5
q-37 0 -52 2l-24 8h-78q-29 0 -49 -10q-4 0 -16 1t-17 -1q-8 -4 -31 -27h-10l-10 -10q-59 -35 -65 -43q-5 -8 -12 -20t-17 -28q-11 -15 -11 -21v-9q-6 -12 -10 -16l-2 -17v-18l-4 -39q0 -9 7 -19q10 -15 8 -30q-1 -15 12 -30q13 -16 23 -33q9 -17 19 -29t12 -18q3 -6 8 -15
q5 -10 11 -16q7 -5 15 -11t12 -10l84 -88q2 -2 7 -10t52 -53q5 -2 11 -5t12 -8t11 -13q5 -9 14 -15t13 -10t11 -16q6 -11 10 -15q4 -3 11 -11q6 -8 10 -11t5 -7q2 -10 29 -35t42 -56q26 -51 46 -69q19 -18 19 -35q0 -16 2 -19t11 -15t14 -21l-2 -14q0 -6 4 -20t2 -19l-4 -21
l10 -38l-10 -25q0 -6 1 -24t-7 -29q-9 -10 -10 -16t0 -14t-4 -16t-11 -31t-21 -34q-12 -37 -23 -44q-11 -6 -24 -30l-28 -28q-37 -39 -49 -45t-23 -7q-12 -1 -16 -6q-5 -2 -15 -16t-16 -17t-13 0t-11 3l-15 -4q-31 1 -38 -5t-14 -14t-16 -8h-14l-19 -10h-8q-18 4 -63 4
l-29 6l-24 -14q-4 -2 -23 -2l-31 16l-22 -4l-16 4h-50l-24 14q-2 2 -26 8t-26 8q-4 3 -8 7t-7 5t-16 6t-26 4q-14 -1 -28 22q-5 4 -15 11t-15 16t8 41t20 36q37 29 79 -2q22 -22 34 -22t36 -12t66 -25l22 -2q9 0 23 -4l24 -9q8 -2 33 -2l14 6h23q10 0 19 4t40 1q31 -2 35 1
t10 8q8 7 20 7t29 15q25 22 40 26t38 30q24 26 44 48q28 30 33 47t14 30t11 20t2 31q-1 24 -1 31l4 29l-4 31l8 22q0 7 -8 17q-9 10 -11 15t-8 15t-10 20t-6 16q-2 5 -4 20t-25 34q-22 19 -39 28t-22 33t-11 26t-13 4t-16 12q-8 11 -16 25t-13 20t-20 16t-21 16t-17 24
q-9 16 -15 22t-19 13t-43 37t-33 36t-9 20t-23 23q-16 8 -19 13t-4 19t-33 40q-32 27 -35 42t-13 33v10z" />
    <glyph glyph-name="T" unicode="T" horiz-adv-x="1085" 
d="M563 1226q0 -9 -8 -28l4 -22l-8 -35q-2 -8 -3 -32t-3 -36l-10 -22q0 -4 1 -21t-7 -27q-9 -9 -9 -16l10 -29l-20 -40l4 -25l-6 -14q-2 -12 -3 -35t-3 -35q-10 -23 -9 -38t-12 -42q0 -64 -8 -81t-6 -37q2 -21 -5 -36q-7 -14 -6 -27t-4 -21q-8 -14 -8 -25v-13l-6 -26
q-2 -9 0 -25t2 -24l-10 -23q-4 -20 -4 -51l2 -23q0 -6 -6 -16t-8 -16t-1 -29t1 -31l-11 -28v-33q-6 -12 -6 -35l4 -35l-14 -33q-4 -14 -6 -23q-6 -28 -35 -34t-41 -2l-18 12q-1 2 -11 3t-13 5t-3 29l-2 54q0 26 9 38q9 11 9 16v7l9 24q2 6 1 20t1 19l14 21q2 6 -1 15t-3 14
l4 59l4 27l-2 22l8 23q2 12 3 41t3 43l11 18q2 4 1 15t-1 18q10 20 10 22l2 45l4 31q3 3 8 19l-2 18q0 17 7 31t9 23t2 40q1 31 3 45l10 25q2 10 -1 41t6 42t10 15t0 17t1 17q1 4 9 15q8 10 10 17l-2 28q6 22 5 32q-1 11 0 14t3 12q2 8 2 12t-1 20q-1 20 14 38q16 18 10 34
q-7 16 -7 24t11 42q0 4 -1 19t3 25l6 15q2 7 1 23q-1 22 8 35t9 18v12l4 13l-4 12v6q0 10 -4 14q-26 30 -80 12q-4 0 -14 4t-23 -6q-12 -10 -18 -10l-33 6l-33 -4q-4 0 -18 5t-21 3q-41 -27 -54 -17t-36 7q-24 -2 -28 4q-13 8 -19 34t-4 34q2 6 17 26q14 14 20 16t41 3h80
l26 -6q15 15 66 6l31 -10q14 0 30 8l86 -4l33 -11l37 15q9 2 21 -1t18 -3l18 6l23 -4l14 4h84l19 -4l20 4q90 2 100 4t26 2t21 3t33 -3t31 -10q4 -4 4 -15q9 -9 13 -24q0 -24 -24 -50t-44 -24q-10 10 -18 10q-23 -6 -37 -4l-29 8l-21 -2q-2 0 -7 2t-8 1t-13 -6t-19 -5
l-43 13l-26 -11q-1 -2 -9 2t-11 4l-19 -6q-10 0 -12 2t-6 4t-10 6q-7 4 -32 -14q-24 -16 -26 -32t-1 -35q1 -17 -1 -25t-7 -17q-10 -18 -9 -24t-5 -24l4 -37q0 -5 -8 -21v-19z" />
    <glyph glyph-name="U" unicode="U" horiz-adv-x="1470" 
d="M758 -2l-36 -10q-11 0 -26 6l-28 -6h-37l-31 -4l-20 4l-27 -4l-25 4l-51 -4l-41 14h-57q-21 0 -25 2t-14 14t-24 11q-13 0 -18 2t-10 6q-6 4 -12 9q-6 6 -45 30t-38 26q-28 22 -34 39q-7 19 -13 29t-22 35q-15 25 -20 28q-2 7 0 25t0 24t-8 20q-12 26 -6 48l8 23
q2 8 -2 27t-2 30l10 29q0 6 -1 24t7 29q9 11 9 43q-5 27 5 44t7 41q-2 25 0 36l10 26q2 10 2 38t4 42l9 21q2 6 1 21q-1 16 0 20t5 11q10 18 10 118l10 24q2 3 1 11q-2 12 6 30t8 49l2 39q2 4 6 10q8 13 6 37q-2 23 4 41v29q10 20 10 31v26l11 21l-3 12q6 48 4 62
q-1 14 1 18l12 21q2 2 2 6l10 20q0 6 -6 16t2 37q4 31 11 39t9 12q6 10 23 11h18q19 19 56 0q37 -20 12 -61q-8 -12 -8 -40q-12 -24 -14 -30l4 -25q1 -25 -11 -51t-8 -45t-4 -49l-8 -27q-2 -4 -1 -14t-9 -31l2 -16q0 -4 -7 -21t-4 -29l3 -18q-11 -22 -11 -24v-31
q-10 -20 -10 -21v-49q-2 -6 -2 -14l-6 -57l2 -14v-7l-10 -20v-33q-3 -9 -17 -58v-41l-10 -22q0 -7 1 -23t-7 -40t-8 -35l-2 -27l-4 -12v-25l-7 -14q0 -4 2 -32t-1 -33t-6 -9q-11 -15 -11 -39q0 -25 -25 -35q-7 -3 -10 -10q6 6 17 6q14 -4 18 -43v-67q0 -8 5 -14q6 -9 8 -25
t7 -21q5 -4 7 -6l18 -33q12 -16 53 -43l11 -2q18 -18 34 -16q18 2 26 -3q8 -6 32 -10t36 -9q11 -5 29 -4t25 1l16 -6q20 -2 56 0l16 6q22 0 26 -7q5 -7 7 -10t6 -3q14 9 31 12l28 -2q13 0 30 5t28 4t25 6q23 12 33 11t20 5t19 5t13 1t7 4t6 5t27 10t37 27t36 30q4 4 14 17
t16 17q7 3 9 5l20 26q37 46 40 54t1 23t8 29q11 15 13 18q2 4 1 24t-1 26t6 13v24l10 32q0 5 -1 17q-1 15 5 27t6 18l-4 39l10 21q2 8 0 24t0 25l11 23q2 6 1 17t-1 17l16 47q0 6 -1 26q-1 28 12 41q14 14 9 32q-6 18 -6 24t13 64v47q0 6 6 15q11 16 9 38q-1 22 11 47
q0 12 -6 33l21 74v18q0 14 2 19l8 26q2 8 0 28t0 26q2 8 14 17t12 15t-4 12t-10 10q-6 5 -6 10t8 28q25 47 7 71q-5 7 -5 17q10 37 43 47h17q25 10 28 8q61 -23 54 -59q-1 -6 -7 -16q-9 -13 -7 -27q1 -14 -11 -39q0 -27 -3 -37t-2 -28t-11 -42v-34q0 -33 -8 -43
q-8 -9 -7 -13v-45l-16 -41l4 -25q-4 -45 -4 -49q-13 -13 -10 -45q3 -31 -7 -45t-10 -18v-53l-10 -43q-2 -14 -3 -43t-3 -43l-10 -25v-33l-11 -16q-2 -9 -1 -29t0 -28t-7 -21q-6 -11 -8 -19t-1 -26t1 -25l-10 -47q1 -33 -7 -43t-10 -15t-1 -31t1 -35t-10 -19v-27l-16 -42v-7
q-3 -6 -9 -10t-12 -18q-6 -13 -5 -23t-1 -14q-4 -4 -14 -9t-13 -18q-2 -14 -14 -25q-12 -12 -19 -24t-11 -16t-12 -10q-7 -5 -11 -8t-14 -14q-9 -12 -15 -16t-12 -6t-11 -5t-11 -6t-17 -16q-12 -13 -32 -15q-28 -2 -34 -10q-5 -9 -17 -16q-11 -6 -23 -8q-16 -2 -32 -10
t-36 -2l-21 6q-24 -12 -30 -12zM154 221v-8h2v8h-2z" />
    <glyph glyph-name="V" unicode="V" horiz-adv-x="1476" 
d="M467 44q0 8 -12 30q0 6 2 26q1 24 -9 36q-11 12 -9 22q1 10 -6 24t-14 42t-16 34q-2 6 -4 16t-3 14t-3 8q-2 5 -4 9t-2 8v49q-7 14 -10 23l4 21q-2 4 -9 15t-8 26q-2 16 -4 21t-8 12t-6 12l-2 43l-10 18q-2 18 4 27q4 0 10 4t6 8t-14 2t-21 20q-4 8 -1 30q4 32 -12 45
t-14 41q3 28 0 35t-13 19q-9 12 -13 20t-2 27q2 17 1 25t-7 15q-10 12 -9 30t-5 27q-6 10 -6 16v10q-2 4 -8 14t-7 15q-2 6 -1 16t1 17q-12 24 -11 32q1 7 0 10t-5 8t-4 9l-2 33q0 4 -4 9q-22 27 -8 41t2 26q-13 12 -15 16t-1 9t0 7t-5 25q-14 14 -14 33t-6 28t-11 16
q-4 7 -6 12t-2 16t10 28q0 6 -10 16t-12 15q-2 4 -1 11t-7 18t-6 23q1 13 0 19t-4 12q-3 7 -7 13t-4 10t4 12t-1 22q-5 13 1 17t20 10q14 5 21 7q6 2 10 4q5 2 13 2t14 -6q45 -3 45 -25v-10q10 -10 10 -18v-45l17 -47q0 -6 -1 -20t7 -31t8 -23l12 -29q0 -4 -1 -14t6 -21
t10 -31q2 -20 3 -27t2 -15q2 -20 11 -36q8 -16 9 -38t7 -39q7 -6 7 -15t1 -18q1 -10 7 -21q6 -10 8 -18t3 -24t2 -24t7 -22q6 -13 7 -25q1 -18 18 -34v-30q0 -12 8 -34t7 -34t4 -26q7 -18 7 -25v-8q1 -4 7 -14t8 -14q2 -5 1 -18q-1 -14 0 -18t4 -7t6 -8t7 -19q4 -13 3 -25
q-1 -11 3 -21t3 -18t-1 -10l11 -19q4 -6 5 -20q1 -15 3 -21t4 -15q4 -23 16 -36l4 -33q3 -4 7 -8t4 -6l2 -49q10 -19 9 -30t0 -18t9 -25t12 -21q4 0 27 6q39 39 43 53t3 23q-4 32 30 65q24 24 24 40t2 15l19 27q0 4 8 20q3 0 14 16t11 20v7q7 21 15 27t7 10q4 4 4 13
q12 24 18 26q9 3 9 17q24 24 24 33q0 11 8 19t9 25q10 10 10 17l2 4q0 2 17 28t27 45q9 19 16 26q8 7 8 16q0 10 2 14t11 16q14 18 12 32q-1 13 5 19l11 11t8 6q6 10 29 41q2 4 1 13t2 14q4 7 17 20t18 24t11 17t7 14t6 14q5 5 6 8t1 7q0 7 7 11q7 5 20 27q12 21 13 33
q2 23 24 37q16 28 16 36t14 23q14 14 13 21v11q4 4 13 12t11 13t2 11q1 16 9 23t8 15l2 12q4 6 17 14t17 15q3 7 1 21t2 24q4 9 9 15q5 5 25 35t43 31q23 0 29 2q5 2 17 -1t16 -3t7 -1t7 -2q36 -9 12 -69q-4 -12 -16 -23l-24 -20v-6l-27 -51q0 -6 -11 -16q-18 -16 -17 -32
q2 -16 -10 -27q-15 -15 -15 -22v-7q-14 -27 -26 -39t-15 -21l-2 -10q-25 -38 -25 -44q0 -7 -2 -10t-12 -13q-15 -14 -13 -28t-26 -51t-35 -50q-6 -13 -8 -17t-12 -16q-15 -18 -15 -33t-24 -39q-2 -4 -4 -12q-3 -11 -14 -22t-11 -19t-26 -44t-27 -47v-12l-25 -32l-2 -14
q0 -7 -10 -17q-14 -27 -20 -36q-7 -9 -10 -18t-11 -20l-2 -12q-10 -10 -25 -19q-16 -27 -16 -53q-27 -40 -27 -46q0 -10 -10 -18t-16 -20q-7 -12 -15 -19q-12 -10 -12 -20v-6l-12 -24q0 -2 -3 -6t-11 -15q-8 -12 -18 -29q-11 -18 -14 -25q-2 -7 -6 -15l-7 -14
q-23 -38 -23 -48t-12 -22q-16 -16 -15 -25q0 -10 -11 -17q-11 -8 -13 -11t-3 -10q-2 -12 -10 -17t-16 -13q-2 -5 -1 -17t-10 -24t-15 -16t-2 -13q2 -15 -12 -30q-13 -15 -13 -24v-11q-5 -15 -22 -21q-17 -5 -21 -3t-8 11t-13 21q-10 12 -10 16v14zM264 1008q0 15 -14 10
q-10 -10 -3 -17q7 -6 12 -3q5 4 5 10z" />
    <glyph glyph-name="W" unicode="W" horiz-adv-x="2250" 
d="M2097 1378l-10 -17q-1 -22 -17 -39t-16 -40q-26 -26 -26 -38v-15l-25 -45v-8q0 -16 -23 -31q-12 -17 -13 -21l-2 -8q-2 -10 -9 -15q-6 -5 -11 -20t-13 -26q-9 -11 -9 -22q-1 -12 -21 -38t-22 -26q0 -6 6 -25t-15 -30q-20 -12 -26 -19q-2 -4 -4 -12t-13 -27t-10 -30
t-3 -13q-1 -6 -11 -14q-18 -15 -29 -53q-10 -38 -26 -54q-12 -34 -27 -51q-16 -16 -16 -25l-10 -24q-2 -4 -2 -7l-2 -14q-6 -8 -18 -20q-18 -18 -23 -38q-6 -20 -14 -23q-9 -3 -13 -4t-7 -3t0 -10t3 -10l-4 -14v-23q-2 -2 -4 -6t-12 -17t-11 -21q0 -7 -2 -10t-7 -7t-10 -17
t-10 -23q-6 -9 -16 -21q-14 -16 -14 -26v-10q-12 -29 -23 -42q-14 -18 -14 -24v-9l-14 -23v-8l-2 -6l-9 -15q-3 -19 -12 -28q-10 -9 -13 -15t-2 -15t-1 -13l-15 -30q0 -9 -14 -22q-14 -12 -17 -17t-4 -11t-5 -15t-19 -8q-16 0 -16 19q-2 4 -10 17t-5 28l8 20q0 2 -13 10
q-13 9 -15 17t-1 27t-1 26l-8 21q-2 2 -2 14v14q-7 22 -5 39t0 23t-6 12t-4 8l-2 33q0 4 -6 12q-6 9 -8 15t-1 21t1 22q-12 19 -12 32v19l-9 28q-2 6 -1 19t-6 27t-9 20t-1 20t1 21l-16 31q0 4 1 15q2 11 -2 19t-6 9q-10 10 -10 18l2 27q2 12 -2 35q-12 19 -11 33q1 13 1 20
q-10 20 -10 26v27q-6 12 -6 18v45q0 2 -6 9t-9 31q-2 24 -5 33t-4 19t-1 20q0 11 -2 20l-10 18v70q0 8 -9 17t-7 19q1 9 -1 11l-8 26q-2 7 -1 17t0 14t-5 10t-6 11q-4 23 -17 22q-7 1 -16 -19q-8 -20 -10 -24q-14 -10 -39 -65q-25 -54 -25 -59t-1 -7t-3 -5t-3 -5t-3 -5
q-2 -2 -4 -6t-6 -16t-7 -16t-7 -8q-3 -4 -5 -8t-2 -8t-2 -12t-8 -14t-11 -21q-5 -14 -16 -29q-16 -21 -16 -32q-1 -12 -17 -32t-19 -26q-5 -11 -5 -20q0 -8 -14 -34q-14 -25 -15 -35q-10 -14 -12 -22q-2 -9 -5 -15t-16 -20q-20 -22 -20 -32v-7l-10 -18q0 -12 -22 -50
q-30 -53 -31 -62v-7l-21 -30q-22 -29 -23 -42q-2 -14 -18 -36t-19 -28t-3 -10t-2 -7q-3 -3 -9 -15t-14 -24q-18 -26 -18 -42l-25 -49v-7q0 -5 -11 -20q-11 -14 -13 -18q-1 -4 -5 -10q-3 -6 -6 -13q-2 -8 -5 -13t-12 -19q-14 -21 -12 -41t-11 -29q-17 -13 -17 -25v-10
q-6 -18 -26 -38t-33 -8q-13 11 -17 20t-8 14q-4 6 -4 9v13q0 10 -10 33v43l-6 19v33q-3 6 -11 30v25l-12 14q0 10 2 32t-1 30t-8 16t-11 15q-12 14 -9 46q3 33 -6 55q-10 27 -10 63q0 37 -14 62t-12 43q1 19 1 23q-10 30 -10 33l-2 45q0 6 -6 13t-8 13t0 23q3 21 -7 42
q-10 22 -11 35q-1 12 -5 28t-9 28q-7 17 -7 34v42q0 43 -14 57q-2 7 -1 19q2 23 -10 47v17q0 26 -6 39t-1 28t-5 31t-12 21t1 11q4 8 -3 23t-5 26q1 11 -4 14q-6 3 -9 9t-3 20q0 15 -2 21l-10 21v30q0 5 -6 19t-8 32t-7 33l-9 24q-9 24 -5 42t64 41l21 -4q39 -1 45 -11
q7 -10 7 -28l-2 -37q0 -8 2 -17l15 -36l-4 -25l14 -33q2 -10 1 -30t13 -72q15 -54 14 -66t1 -18l20 -35l-6 -51l10 -21q0 -36 7 -46q8 -9 10 -14t1 -25t-1 -27l10 -27q2 -6 -2 -19q-6 -18 8 -46q13 -28 10 -47q-2 -19 0 -25t8 -13t7 -12l-5 -20l17 -28l-4 -23l4 -15v-20
q10 -10 10 -17v-32q14 -27 16 -31t0 -24t11 -40v-20q8 -24 10 -28t1 -12q-1 -9 -1 -11l6 -23v-49q0 -4 10 -24v-31q2 -16 14 -28q25 -27 46 26q10 18 10 23q0 9 12 26q12 18 13 26q0 9 3 12t7 8t11 11t6 18t14 35q16 23 19 26t4 6t0 8t1 9t7 12q7 10 7 18t4 12q6 5 8 14
q2 8 8 16t7 12q0 4 1 8q1 3 6 9t11 19q5 14 9 20q6 11 16 20q10 10 10 29l27 54q0 20 19 45t21 36q1 15 14 29q12 14 20 32q7 18 13 23t14 31t25 42q17 15 20 21t2 16q-1 11 -1 13q0 1 8 19t24 30q24 20 23 38q-3 43 25 71t30 43q1 14 7 22t6 14v9q13 26 25 41l2 16
q4 8 24 27t18 33q-1 14 0 17t5 9t6 10q0 41 25 62q6 6 8 10q18 35 33 31q12 1 17 -23t11 -37t0 -43q0 -6 9 -20t7 -35q-1 -21 2 -35t3 -23t2 -11l10 -27q0 -4 -4 -12q-6 -12 4 -30t10 -34t6 -37l11 -18q0 -4 -1 -16q-1 -13 6 -24q7 -10 8 -34q2 -36 13 -76q0 -6 -1 -19
q-2 -27 11 -54t13 -51t4 -42l14 -41v-12q0 -11 5 -19t7 -12t0 -14q-1 -10 0 -15t4 -11l6 -12t4 -12q1 -5 -2 -16q-3 -10 0 -26t3 -27q10 -10 10 -19v-16q0 -17 17 -40q2 -8 0 -28q-3 -33 10 -46q2 -6 3 -22t7 -31q6 -14 5 -32q-1 -19 0 -27t7 -21t6 -21t-2 -18t11 -23
q12 -12 24 -7t18 14q5 10 9 16t5 9t7 9t6 14t6 17q6 10 20 44q13 34 17 42l8 8q0 2 3 6v9q12 12 24 30v10q0 20 27 54v8q0 8 5 12q4 4 26 41t22 41l2 23l14 31q0 27 27 51t27 31v10q2 6 10 17t16 35q8 25 17 34l10 10v20q5 8 29 42t24 47q0 14 14 29t13 25q0 11 2 15
q0 4 8 13t12 25t16 32q11 16 13 21t3 16q2 19 18 35t27 39l14 28t7 19t10 16q5 4 7 8l10 26v7q0 14 19 39q2 0 13 13t10 24q-1 12 1 16t9 14q12 17 12 29t20 32t65 25q44 6 49 -29q1 -6 0 -12t-1 -13v-11q0 -18 -5 -26t-12 -32q-8 -24 -26 -28q0 -15 -12 -30
q-16 -20 -15 -26z" />
    <glyph glyph-name="X" unicode="X" horiz-adv-x="1593" 
d="M1171 1124q-16 -14 -20 -23t-22 -20q-17 -12 -17 -19q0 -6 -22 -28l-24 -25q-3 -3 -8 -11t-11 -13q-7 -4 -13 -4q-19 -1 -27 -21q-7 -20 -31 -50t-29 -40q-5 -12 -11 -18q-6 -3 -28 -21q-41 -35 8 -84q18 -18 19 -23q4 -18 16 -31q12 -14 17 -29t9 -22t18 -18t21 -20
q5 -32 28 -61t28 -37t9 -18q3 -10 7 -16q4 -5 12 -13q8 -7 10 -11t2 -11t6 -17t18 -23q12 -12 19 -29q8 -17 20 -31q11 -13 14 -19t3 -12q0 -14 11 -23q11 -10 19 -26q7 -16 15 -24t8 -12v-6q5 -9 15 -19t13 -17q6 -14 17 -23q11 -8 13 -27q3 -19 17 -32q15 -13 19 -18
q3 -5 9 -19t5 -35q-1 -20 -10 -23q-50 -18 -106 4q-6 4 -12 17t-22 24q-17 12 -19 30q-2 19 -6 27t-18 19q-24 20 -25 35q-1 16 -9 24t-11 14t-8 13q-5 6 -11 29q-29 29 -41 51l-2 14q-15 15 -15 26q0 25 -27 33q-7 2 -7 7q-4 2 -7 11t-7 16q-4 8 -5 14v9q0 7 -10 17v6
q0 9 -13 15t-18 16q-4 10 -13 21t-9 19v9q-6 12 -12 18t-13 28q-8 21 -27 47q-18 26 -23 33q-5 6 -10 18q-15 35 -29 36q-14 0 -21 -10t-19 -22t-18 -22t-11 -11q0 -2 -9 -10t-9 -15v-4q-11 -23 -37 -44t-28 -30q-1 -8 -2 -12t-3 -6t-5 -3t-7 -3t-6 -2q-16 -16 -17 -27
q-2 -15 -15 -21q-13 -5 -25 -26t-39 -47q-38 -36 -41 -50q-3 -13 -17 -21q-14 -9 -17 -13t-6 -18q-3 -15 -8 -21q-4 -6 -22 -17t-40 -33t-37 -49t-33 -41t-43 -49t-31 -41t-14 -8q-8 -4 -9 -6q-2 -2 -5 -6t-11 -12q-5 -2 -13 -2q-12 0 -19 -7q-29 -29 -85 9q-10 14 -5 25
l7 14t10 15q8 12 17 30q26 13 40 33q13 20 18 27q5 6 9 12t12 12t13 12q6 6 11 17q5 10 25 28t33 36q12 19 23 27t37 46t39 48q12 11 18 18q5 8 11 12t13 15t18 19t15 10q4 3 5 8q6 14 18 27t14 20t16 20t22 23q7 11 9 13t8 4q10 4 19 20t20 24q13 10 22 26t16 22
q11 8 23 23q11 16 27 29q16 12 26 28q13 21 32 35t20 29q1 14 -5 21q-10 12 -16 29t-20 27q-14 9 -16 16t-6 11l-20 23q-4 8 -15 25t-16 31q-6 14 -10 22l-13 16l-2 12q-4 6 -19 23t-18 31q-2 14 -6 19t-17 10q-21 8 -19 23q1 15 -12 35q-13 19 -14 25q-2 12 -17 27t-11 30
q3 14 -7 22q-10 7 -19 11q-15 7 -15 23t-11 23q-11 6 -13 10t-4 11t-6 19t-17 21q-12 10 -16 16q0 15 -16 28t-19 21q-4 7 -8 39q-2 5 -8 13t-7 12q-2 4 4 14q10 12 28 7t42 8q44 6 86 -76q18 -37 26 -44q8 -8 11 -19q3 -16 29 -42l2 -12l8 -12q2 0 3 -7t15 -16t26 -44
t25 -48t19 -29l18 -18q2 -6 3 -23t21 -29q19 -11 19 -27v-11q4 -6 12 -16t21 -34q26 -52 44 -70t24 -32t8 -17t10 -12t13 -7q4 2 16 2t18 8t12 20t11 19q4 4 14 8t13 7t5 7q1 4 5 9t6 10q2 2 7 5t10 9t15 28t31 45t21 25q20 10 23 16l6 14t5 9q6 4 29 15t70 90q2 2 5 16
t14 18t38 36t42 55q14 23 26 33q17 14 24 27q6 13 26 27q19 15 23 22q3 8 5 20t6 15t10 6q10 5 18 12t14 9t18 4q11 1 19 4t37 -6t41 -21t-1 -32t-26 -30q-19 -15 -34 -34t-39 -41q-24 -21 -30 -34t-15 -20t-14 -25q-4 -4 -16 -12t-17 -19q-4 -10 -29 -35l-67 -67
q-6 -8 -20 -31t-30 -37z" />
    <glyph glyph-name="Y" unicode="Y" horiz-adv-x="1376" 
d="M426 904q0 12 -24 39q-32 38 -30 56t-13 29t-14 24t-1 17q-24 24 -29 39q-3 14 -17 30t-14 18q-1 3 -3 13q-3 13 -12 26t-8 23q2 15 -9 25q-11 9 -14 19q-3 11 -18 28q-16 18 -25 40q-9 24 -11 28t-6 9t-21 38t-26 47q-10 14 -20 33q-15 16 -19 26q-4 9 1 27t15 24t35 7
q79 7 95 -47q2 -11 9 -22t8 -14t1 -10q0 -6 2 -10t14 -16t11 -18q0 -8 2 -14t7 -12q5 -7 11 -15q6 -9 9 -15t5 -18q3 -17 17 -35t21 -38t15 -32q9 -12 10 -20t6 -14q5 -7 9 -13t6 -8t3 -5t8 -15q8 -11 8 -15t1 -7l8 -16t15 -23q13 -15 13 -22v-8q14 -41 41 -63l2 -14
q11 -11 9 -26q-2 -14 10 -26q11 -12 19 -24t11 -16t8 -13q36 -77 84 10q1 14 27 39q26 26 26 36t14 25t32 33t21 24q3 5 6 8t15 5q22 4 20 25t40 57q4 6 10 28t24 25q19 3 54 48q4 2 5 14t28 33q6 8 16 28t36 46q26 25 33 34q7 11 11 15l11 11t14 13q6 6 10 12t7 10
q3 5 5 11t4 8q0 2 5 7q7 7 13 22q7 15 15 18q27 19 83 19t60 -4q21 -29 -10 -68q-4 -6 -17 -15t-19 -20t-20 -16q-14 -6 -18 -10t-5 -14t-4 -14q-3 -5 -17 -17q-14 -13 -18 -21t-14 -16q-18 -16 -22 -29t-29 -33q-25 -21 -73 -94q-15 -7 -27 -22q-2 -4 -4 -14t-6 -13
q-4 -4 -18 -10q-13 -5 -19 -13t-16 -28q-14 -28 -25 -36q-11 -7 -19 -19q-12 -18 -27 -20t-15 -10v-16q-11 -22 -31 -32q-24 -39 -58 -78t-43 -46t-18 -23t-24 -15q-15 0 -27 5t-14 -3q-8 -7 -1 -17t17 -12q0 -8 -11 -16t-13 -18t0 -43q2 -34 0 -46l-15 -47l4 -14l-4 -23
q-2 -4 -1 -14t-11 -35q0 -68 -7 -82t-4 -51t-10 -59l-8 -19v-7l4 -13l-6 -31v-31l-10 -18q-2 -9 -1 -25q2 -26 -11 -51q0 -10 3 -57t-26 -64l-14 -2q-27 -10 -39 -11t-39 9q-25 12 -27 29l11 20q0 7 -1 23t5 31t6 20l-4 25l14 32v9l-2 6q0 33 6 48t6 19l2 25q0 10 9 10
q7 21 9 57t5 52q4 16 2 42t4 33t7 12t0 19q-3 37 8 55t8 41q-2 23 0 31l10 17v88q-8 38 -35 65q-2 4 -3 10t-5 14t-11 18q-8 11 -9 17t-15 19v9zM578 758q-8 -4 -7 -15q1 -4 9 -1t4 14zM254 1282q15 7 8 13q-6 5 -12 0t4 -13z" />
    <glyph glyph-name="Z" unicode="Z" horiz-adv-x="1425" 
d="M1036 1552q19 -4 76 -4q22 -6 57 11l27 -9q4 0 15 6t38 3q9 -7 12 -6q41 16 63 -8q11 -11 19 -13q0 -26 -18 -64v-19q0 -15 -5 -20t-18 -7q-18 -3 -21 -15q-4 -11 -17 -26q-14 -15 -18 -20t-6 -11q-3 -6 -6 -10q-5 -8 -5 -17q1 -9 -17 -21q-23 -16 -31 -39
q-7 -24 -24 -24q-14 -9 -19 -19t-23 -25t-21 -33t-18 -28q-21 -13 -21 -22q1 -9 -11 -15q-12 -7 -22 -21t-20 -20q-10 -5 -13 -12q-5 -11 -18 -19q-12 -8 -20 -33q-7 -25 -16 -33l-15 -15l-10 -10t-10 -16q-7 -12 -13 -19q-29 -14 -34 -26q-5 -11 -15 -21t-12 -22
q-3 -13 -7 -19q-8 -8 -25 -19q-24 -15 -34 -35t-22 -25q-13 -5 -17 -8q-4 -2 -4 -12q-1 -10 -17 -27t-19 -21t-10 -24t-15 -22q-14 -6 -15 13v10q-2 10 -14 1t-11 -42l5 -22q-5 -6 -17 -16q-18 -14 -23 -30q-6 -17 -19 -28q-13 -10 -19 -14q-29 -22 -29 -37q-8 -3 -20 -19
t-14 -20q-3 -4 -8 -7t-7 -7t-7 -11q-5 -8 -9 -12q-5 -4 -9 -11q-4 -8 -9 -14l-10 -12t-31 -33t-33 -36q-11 -14 -16 -27t-23 -21q-31 -14 -31 -49q-3 -10 -23 -18t-24 -21q11 -39 26 -39l29 6l27 -2l4 2l51 -8l22 4h54l16 4l16 -4l25 11l27 -7q2 0 16 7h117q4 1 12 -5
q22 -15 49 5l45 -5l15 5h65l15 4q29 -8 47 -7l22 7l25 -9l32 9q10 2 36 1t36 -1q39 13 49 12q10 -2 20 -7t23 -9q36 -12 22 -41q-7 -14 -6 -26q1 -11 -2 -14q-3 -4 -11 -8q-9 -5 -16 -15q-7 -11 -13 -11l-23 6q-4 2 -14 2h-14q-35 9 -48 4l-32 -10l-23 10q-6 2 -14 1t-29 2
t-27 3q-33 -16 -39 -16t-12 6h-33l-24 4l-17 -4h-28q-6 -6 -13 -6l-26 10l-17 -4q-24 4 -28 9t-5 15t-8 9q-7 0 -5 -10q2 -9 -2 -15q-3 -6 -15 -10t-25 1t-38 5h-35q-7 6 -13 6t-13 -10t-23 -1q-15 9 -17 13t-4 16t-3 15q-1 4 -3 7t-5 11t-11 5q-8 0 -9 -19l11 -37
q0 -8 -13 -10l-22 4l-15 -4h-39q-12 -6 -26 -6l-23 10q-7 2 -29 1t-30 0t-20 15t-21 11q15 -23 -4 -30q-8 -3 -16 1q-14 18 -19 19l-14 -25q0 -6 -18 -1t-27 1q-7 -4 -13 -4t-10 9t5 19t9 16q0 5 -4 9t-10 9q-27 22 0 48q14 13 14 20q0 8 2 12t13 14q19 22 24 32
q31 21 37 40t21 27q14 9 26 21t29 44q18 32 26 46t38 39l16 29q24 16 31 23l22 32q4 12 14 21q9 8 13 14q0 10 4 10q4 8 18 14t19 11q6 11 7 19t5 14q4 8 18 22q22 22 38 50q15 27 39 51q25 24 30 29t7 11q3 5 41 48t48 59t18 24t13 12q4 3 11 11q7 9 12 19t30 37t34 38
l33 52q5 6 7 12q14 0 30 23q15 24 21 28q35 23 78 88q2 2 6 13t16 18q12 8 17 12q2 4 5 9q3 4 6 10l5 10t13 15q10 11 17 26t20 18q12 2 15 3t4 10t13 21q12 13 17 23t10 13q23 27 5 47t-36 16q-18 -2 -28 -5t-17 -3l-31 2q-36 -12 -86 0l-57 -10l-29 10l-18 -10
q-15 -2 -38 4l-28 -6l-30 6q-3 0 -12 -3q-29 -10 -44 5l-45 -8q-40 -3 -71 6l-29 -8l-23 2l-18 -10l-25 12l-67 -16l-29 10h-12q-15 0 -27 4q-20 20 -16 51t22 39q4 4 12 4h13q24 12 31 12l26 -4q4 -2 9 -2l22 2h20l21 6l20 -6l47 2l50 -2l19 4l22 -4l92 2l61 -2h96l15 -4
l45 8l29 -4z" />
    <glyph glyph-name="backslash" unicode="\" horiz-adv-x="1230" 
d="M701 504q5 0 24 -19t29 -46q10 -28 20 -44t18 -26q9 -11 16 -23t18 -44q13 -37 22 -49t11 -36q2 -25 15 -38t18 -22t15 -36q11 -27 15 -35t6 -11t5 -5t9 -12t11 -28q5 -20 9 -26t11 -15q8 -9 13 -19t13 -37q12 -42 27 -55q15 -14 22 -32q6 -18 20 -44q15 -26 23 -50
q11 -31 21 -47q10 -17 14 -34t8 -26t7 -15q2 -6 8 -17q6 -10 6 -15q0 -9 -11 -11t-14 -12q-4 -10 -13 -7q-9 2 -23 7t-24 6q-31 3 -43 39q-6 18 -18 31t-18 34q-6 22 -9 27l-6 12t-6 10q-5 7 -5 21q0 15 -16 28t-23 39q-8 26 -12 32t-6 11q-3 4 -7 7q-8 6 -20 51t-28 63
q-15 18 -19 26t-2 26t-7 26l-20 20q-4 8 -9 32t-24 41q-20 17 -24 25t-10 26t-8 22q-3 5 -11 21t-16 25q-9 8 -11 14t-2 17q0 9 -3 15q-8 14 -19 26q-11 11 -14 20t-2 22q2 23 -10 35q-11 11 -26 32q-6 14 -17 52t-22 51q-17 20 -19 39q-2 20 -20 41q-20 20 -26 32t-14 41
t-12 37t-7 11q-2 3 -5 6q-4 4 -12 23t-14 28q-6 10 -17 24q-19 25 -21 36q-2 12 -13 26q-10 14 -10 29t-10 28q-10 14 -14 18q-5 5 -11 19t-7 25t-5 21t-16 24q-11 16 -13 22q-3 11 -5 21t-18 32q-16 23 -22 45t-24 51q-17 29 -23 50t-27 56q-20 34 -25 44t-11 29
q-6 20 -10 28t-13 19q-8 11 -10 17t-5 14q-3 9 -5 13q-57 57 -11 80q4 2 10 2q9 0 19 8q23 18 60 -19l15 -15q18 -20 22 -47q5 -27 12 -39q4 -1 7 -7t7 -11q7 -8 11 -22t15 -28q19 -24 28 -58t22 -52q19 -27 16 -41q-3 -15 20 -40q29 -30 33 -43t23 -53q0 -36 24 -66t27 -44
q4 -14 17 -30q14 -15 23 -35t16 -43q7 -22 9 -30t5 -11q2 -3 5 -5t11 -14t14 -34q11 -40 33 -62q27 -66 38 -79q21 -24 15 -43t3 -31q26 -35 17 -64q-8 -29 -5 -37q10 -12 12 -10t6 10t9 8z" />
    <glyph glyph-name="asciicircum" unicode="^" horiz-adv-x="776" 
d="M401 1227q-8 0 -24 -19t-23 -37q-4 -4 -17 -11t-22 -13q-24 -35 -34 -40q-11 -5 -14 -7t-5 -4t-4 -5t-28 -20t-37 -18l-27 4l-19 -4q-2 0 -7 11t-10 19q-23 37 4 49q28 12 33 20q5 7 8 10t13 7l14 7t5 5q2 3 4 5t4 5q4 5 13 12q10 7 12 15t4 9q28 19 42 41q13 22 18 30
t15 13q8 3 25 26q0 14 6 25q6 6 35 10l31 14q4 0 9 -6t23 -8q31 -3 27 -35q12 -25 17 -26q23 -9 26 -16q2 -7 -1 -12t7 -19q10 -15 20 -23t12 -12q3 -4 5 -10q4 -12 11 -16t12 -15t19 -17q14 -7 19 -16q5 -8 8 -10t16 -8t21 -14t-1 -19l-15 -20t-12 -19q-6 -10 -8 -12l-19 4
l-26 -2q-15 0 -25 8t-14 11t-9 7t-9 6q-3 1 -6 7t-14 12t-21 21t-13 21q-4 6 -17 12q-13 7 -18 11q-2 3 -4 13t-14 26t-21 17z" />
    <glyph glyph-name="grave" unicode="`" horiz-adv-x="567" 
d="M250 1354q13 -23 26 -28q12 -6 23 -34t43 -49q2 -2 4 -9t4 -9t7 -6l7 -7l5 -5q2 -3 3 -5q5 -10 21 -16t19 -15q5 -12 23 -19q41 -17 13 -51q-8 -9 -10 -14l-10 -18q-4 -2 -10 1t-8 3l-27 -4q-35 9 -49 23l-18 18t-7 6q-2 2 -8 5t-10 7q-25 37 -41 47q-16 9 -23 13
q-2 4 -6 15t-10 15q-6 5 -10 8t-6 6q-1 3 -7 8q-6 6 -12 14t-10 12t-8 7t-13 17t-23 25q-13 12 -11 19t22 17t21 17v6q4 2 21 20t23 6q6 -11 24 -13q32 -4 28 -33z" />
    <glyph glyph-name="a" unicode="a" horiz-adv-x="966" 
d="M279 528l29 11h16l28 14q2 2 8 2t10 1t8 4q11 7 24 8t32 9q18 7 24 9t10 -1q5 -3 9 -3h21l53 10l33 -4q22 6 98 4l39 -6q12 2 23 28q12 26 12 31q0 4 -4 11t3 35t-30 71q-2 2 -5 8t-7 7t-15 0t-28 7q-17 9 -21 9t-26 10h-81q-28 0 -38 -9t-25 -7q-14 1 -20 1l-35 -22
q-4 -2 -15 -2t-22 -18t-20 -29q-11 -11 -27 -23t-20 -16t-11 -7q-6 -3 -12 -9q-23 -21 -57 -3q-34 17 -33 25q-16 27 39 94q16 29 28 36t28 14q15 7 34 24q20 18 26 22t14 4q7 -1 11 1t15 10q10 8 16 10t16 0q11 -2 41 7q30 10 56 10t32 1t12 1l29 -5h47q2 0 7 -2
q6 -2 10 -3t8 -3t14 -1t16 -1t15 -6q8 -4 16 -11q7 -7 13 -9q6 -1 16 -5t14 -7t19 -14t26 -32q10 -21 19 -34q10 -13 10 -19l2 -41l10 -20v-18l-4 -32l4 -20q-10 -30 -10 -37l-2 -41l-8 -31q-2 -8 -1 -33t-7 -45q-12 -28 -9 -64q3 -35 -6 -44q-6 -18 -5 -39t-4 -32t-6 -15
t1 -10t3 -12t1 -11q0 -4 -6 -13t-5 -24q1 -14 1 -18t-6 -16l2 -29l-6 -21v-24l-9 -18t-8 -22q0 -13 -12 -13q-14 -15 -40 -15t-37 10t-11 34q0 23 -8 28q-14 0 -38 -20q-26 -23 -40 -23q-15 -1 -33 -17q-17 -16 -23 -18t-13 -2q-13 0 -26 -11t-38 -5q-8 6 -13 4l-34 -15
l-31 11q-12 0 -23 -11q-32 -13 -71 11q-5 2 -17 3t-17 3t-14 9q-14 11 -30 11q-15 0 -23 10t-30 30q-22 18 -28 23q-5 5 -17 29q-9 5 -12 13q-3 7 -8 59t-5 84v33q17 33 15 51t7 26q9 7 12 12t5 7t11 23t51 56q43 36 51 41t13 6q7 1 15 8t15 7zM486 470q-4 -1 -20 -1
q-15 0 -25 -6q-12 -8 -42 -8q-10 -3 -29 -13q-18 -10 -24 -12t-17 -2t-16 -2q-6 -4 -14 -17t-13 -19t-14 -11q-16 -9 -18 -19q-2 -11 -24 -34q-21 -23 -29 -37v-94l10 -19q0 -20 1 -22q0 -2 20 -22t24 -20q4 -1 16 -1q12 1 24 -7t18 -9q4 -1 56 0l52 1q11 0 41 15h12
q11 0 72 34q2 5 33 21q45 24 59 46t33 38q18 16 18 30q0 13 2 15l10 24q0 3 -4 15q-11 32 21 65v39q0 37 -21 43h-86l-18 4l-19 -4q-6 0 -16 3t-17 1q-8 -2 -20 -3t-16 -2t-10 -5t-10 -5z" />
    <glyph glyph-name="b" unicode="b" horiz-adv-x="1079" 
d="M268 1266q0 19 11 34q0 4 -4 15t2 22q6 10 8 15v55l10 23q2 6 1 21t-1 23t6 13v16q0 54 49 59q11 1 25 6t31 -9q16 -15 19 -23t-1 -32t-3 -36t1 -18l-10 -18q-2 -4 -1 -12t-6 -32q-10 -36 -10 -73v-23l-10 -22q-2 -8 -1 -22t1 -21q-12 -25 -11 -41t-1 -20t-15 -31
q-2 -7 0 -25t0 -24t-8 -15q-6 -8 -6 -14l4 -27q-5 -33 -14 -58q-8 -26 -7 -36t-4 -23q-5 -12 -7 -17q-2 -4 0 -22q1 -18 -3 -38t6 -31q10 -10 34 6t34 27q10 10 14 10q3 0 7 2q13 7 22 16q8 8 15 8t10 3l28 14q5 0 15 -1t30 7t33 8l86 -4l49 4q6 0 19 -8t30 -6t23 -2
q35 -25 58 -47q22 -21 40 -30t25 -28q47 -47 53 -66q6 -20 3 -32t-2 -15t15 -15t15 -19q2 -8 2 -47v-86l-6 -19q0 -20 6 -32l-6 -29q0 -4 1 -15q1 -15 -5 -28t-6 -21v-11q-1 -5 -7 -13t-7 -20q-1 -15 -12 -28q-11 -14 -11 -20t-2 -8l-13 -24q-2 -2 -2 -8v-7q-10 -25 -21 -36
l-18 -18q-6 -7 -10 -11t-4 -15q-6 -8 -19 -17t-18 -13q-59 -57 -125 -86q-2 -2 -12 -2q-10 -1 -17 -7t-11 -7t-8 -1q-5 0 -7 -2l-25 -10h-20l-31 -12l-24 2l-19 -4l-18 4q-6 0 -25 -4t-31 6q-18 15 -35 11t-49 24h-6q-2 0 -13 6t-23 5q-17 -1 -25 12q-9 14 -20 19
q-14 6 -27 26q-14 19 -30 9q-15 -10 -17 -38q-2 -27 -32 -47t-50 -5q-2 0 -22 28t-11 66l8 19q2 4 1 10t4 19q9 26 11 53t4 41q3 13 3 22q8 19 9 40q2 41 13 57q0 10 -2 40t4 43q7 13 13 37l-2 33l12 37q2 4 1 15q-1 15 6 31t7 25l-2 13l4 24v23q10 10 10 27l11 39q2 4 1 13
t0 12t1 7l2 9q-4 41 -2 49t11 36t13 40t-2 36t-3 34t11 22q7 12 11 23t1 47t-1 46t7 18q5 7 6 11t13 21v90zM860 439q0 8 17 42l-7 37q4 7 5 21q2 14 -4 22t-9 23q-4 16 -6 22t-3 16t-3 16q-2 5 -11 15q-9 9 -13 15t-10 23q-7 17 -11 23t-26 22q-34 27 -56 29t-61 19
q-38 17 -44 15q-69 -21 -81 -20q-11 1 -17 -1t-13 -7t-9 -7t-8 -2l-35 -10h-11l-18 -18q-7 -9 -24 -17t-25 -21q-8 -12 -15 -14q-42 -40 -45 -51q-3 -17 -23 -39q-26 -29 -26 -76q-6 -6 -6 -12t1 -18t-8 -32q-9 -18 -8 -48t-1 -41l-8 -23q-2 -2 -1 -11t1 -12v-38l8 -19
q29 -76 40 -89t21 -21t22 -20q18 -21 36 -21q31 -15 39 -15q7 0 10 -2l32 -14l21 4l14 -2l17 4q4 0 17 -7t22 -1q8 6 13 7t21 0q15 -1 23 1t41 20t48 20q15 3 28 18q12 16 24 25q13 9 17 15t4 12q0 5 3 8t16 14q13 10 17 16t4 11q2 5 14 21t12 19q1 2 1 7q0 8 7 17q7 8 5 16
q-1 7 5 20t10 24v37l10 20v13z" />
    <glyph glyph-name="c" unicode="c" horiz-adv-x="997" 
d="M125 567q10 20 10 25l10 21q1 21 7 30l14 21t19 25t15 19t11 20q6 13 11 17q5 3 10 9t13 11t23 24q15 18 17 22t5 7t10 5t15 4q10 3 37 24t42 21l79 27h13q13 0 21 5q9 5 30 5h59q19 -6 27 -3t14 3l35 -10l65 -12q4 0 8 -6q10 -15 31 -15q19 -20 29 -22t12 -3
q3 -1 18 -19q15 -17 36 -34t24 -30l6 -13q12 -16 8 -33t-8 -22q-82 -52 -103 -1q-8 19 -21 30q-13 10 -29 26q-19 -1 -33 17q-15 18 -21 20t-16 1t-16 0t-22 7l-24 9q-10 2 -30 0t-29 -2l-37 4q-6 0 -18 -2l-17 -13q-2 -2 -6 -2l-25 -12h-12q-4 -2 -66 -45t-95 -94
q-1 -5 -5 -15t-4 -12q-10 -10 -10 -17v-9l-14 -25l-2 -14q-10 -9 -10 -19v-12q-2 -4 -8 -13t-8 -17q-3 -8 -1 -35q2 -28 2 -37q-20 -40 -10 -74q0 -4 4 -13t5 -13t0 -16q-1 -11 1 -16l10 -20v-16q31 -46 31 -51v-11q0 -9 13 -15t20 -16q8 -10 12 -14h8q10 0 23 -11t24 -16
h25l32 -16q13 0 21 -8q15 0 15 8q8 2 20 4l35 -4q66 5 88 27q27 0 45 18t41 36t25 17l5 10t5 9q2 2 7 5q4 2 22 18t20 16t5 4t11 5t36 -17t34 -35q2 -1 1 -15t-1 -26q-13 -13 -19 -24q-7 -12 -25 -17q-18 -6 -28 -23t-24 -24h-6q-4 -4 -10 -8t-10 -9q-5 -5 -32 -17
q-26 -13 -47 -25t-35 -10q-14 1 -29 -7q-14 -8 -32 -8q-31 -15 -83 -13q-52 3 -56 3l-25 10q-6 0 -32 -2t-32 2t-10 7t-7 5t-5 3t-8 1t-9 2t-11 10q-7 8 -13 12t-15 2q-9 -1 -13 1t-18 20t-27 32q-13 13 -17 23q-5 12 -18 22q-13 9 -26 34q-13 26 -13 32v9q0 6 -10 26v15
l-15 39v49q-6 12 -6 22l8 33v15l2 36v41l11 17v12q0 12 3 16t5 8t4 7q4 8 4 17v9z" />
    <glyph glyph-name="d" unicode="d" horiz-adv-x="1198" 
d="M883 805q0 13 2 29t2 61l16 45l-4 29l8 22q2 7 1 21q-1 21 9 52t8 55q-1 25 -1 36q10 10 10 15q0 6 -2 10t-5 8t-1 8l14 35v26q10 9 10 21v51q2 4 6 11l6 12t0 16q-1 12 1 16l18 62l-10 31l6 28v20q0 23 57 46q2 4 23 -4q57 -10 61 -45q2 -8 -7 -21t-10 -42t-18 -62
q-2 -9 -1 -25t1 -24l-16 -48q0 -6 3 -14t2 -12t-5 -10t-5 -10t0 -12q1 -9 -1 -12t-8 -9t-6 -11l4 -22q3 -46 -9 -65t-12 -27l4 -33l-12 -27q-2 -8 -2 -25v-28q-2 -2 -3 -5t-5 -9t-4 -11l2 -49q-2 -4 -10 -15t-9 -19q-2 -8 0 -35t2 -39q-10 -20 -10 -21l-6 -78q0 -6 -6 -19
t-5 -25t0 -16q-1 -5 -4 -13q-6 -15 -7 -41t-8 -51q-7 -26 -1 -33q3 -38 -5 -54q-9 -16 -11 -22t-1 -21q2 -25 -9 -46q-11 -22 -11 -64l-8 -43l2 -21v-10q-4 -35 -6 -43l-8 -22q-2 -4 -1 -15t-2 -25q-3 -13 0 -26t-3 -25t-6 -16v-6q-33 -33 -41 -33l-7 -2q-2 0 -11 -5
q-19 -10 -35 10q-12 19 -38 30q-2 2 -9 12t-13 11l-35 -15h-6q-13 -7 -28 -24t-25 -17l-31 -10l-23 4q-12 -4 -52 -18t-64 -10q-25 4 -30 5t-9 2t-8 1l-41 2q-29 -5 -49 10q-21 14 -31 18q-11 4 -33 16t-36 22q-14 11 -36 43t-32 38t-18 22q-7 15 -8 18t-10 15
q-16 21 -14 46t-2 32t-14 27q0 8 4 45l-4 41l6 16q0 10 -2 38t0 36t12 23v22q12 16 15 28q4 13 6 18t9 32t16 39q8 11 8 26q12 23 32 47t28 35q7 11 11 17t20 18t25 24q10 13 17 19t30 19q23 12 57 32t47 21l19 2h10q9 0 33 12h26q23 0 50 6t39 4l23 -10q61 1 123 -47
q24 -18 38 -22q14 -3 23 -13q10 -10 15 -18t7 -14q3 -7 7 -13t14 -6t14 4t5 9t3 8q0 3 9 12zM926 645q-14 -4 -11 -22q0 -8 9 -7q12 2 6 25zM604 801q-12 0 -38 5t-30 1q-12 -16 -28 -16l-33 -3q-2 0 -7 -4q-8 -6 -18 -5q-23 3 -96 -60q-4 -4 -20 -13t-20 -20
q-5 -11 -26 -37q-20 -27 -20 -38t-2 -15t-5 -8t-8 -8t-8 -9t-4 -12q-1 -6 -7 -16q-6 -11 -6 -23q-1 -12 -3 -16l-10 -25v-55q0 -11 -10 -41l6 -37l-4 -18l8 -41q2 -4 1 -14t40 -72q27 -49 41 -59t37 -20q23 -9 43 -20q30 -6 49 -6l16 -4l35 4l21 -4l16 4h12q14 0 24 7t15 9
q4 2 10 1q7 0 9 1t7 6q9 9 18 9h9q4 2 8 5t9 5q4 2 8 6q5 3 19 11t20 12t16 15t14 15t11 8q6 3 8 6t5 10q3 6 11 20q7 14 19 34t20 29q4 8 11 39t16 41q2 9 3 29q1 25 13 61v29l5 33q-7 25 -7 37l2 47q0 25 -2 29t-11 9q-14 10 -16 34t-11 27q-26 8 -28 14q-1 5 -3 7
q-4 2 -7 4q-3 3 -9 5t-23 16q-18 14 -31 15q-12 2 -24 12t-16 11t-18 -1t-26 -2z" />
    <glyph glyph-name="e" unicode="e" horiz-adv-x="1040" 
d="M457 899q15 0 47 16h33q45 0 59 -1t30 1t32 -2q14 -4 16 -4l37 -20h6l37 -17h7q14 0 77 -59q30 -15 30 -31v-12q4 -4 15 -12t13 -19q2 -14 16 -29q15 -15 3 -40t5 -25h4q12 -4 12 -20t10 -31v-31q0 -3 2 -27t-1 -31t-5 -9t-7 -4t-21 -12t-37 -3l-31 10l-21 -6h-39l-60 -2
q-15 0 -28 2l-26 11l-29 -15q-4 -2 -11 1t-9 3l-27 -6l-38 6l-32 -4l-20 4h-45l-10 4l-13 -4q-20 0 -41 -1t-34 3t-18 2q-10 -4 -19 -4t-23 11q-30 5 -37 -2q-10 -9 -17 -9h-7q-12 -6 -19 -20q-20 -49 -16 -72l10 -27q-14 -61 11 -94q5 -7 5 -17v-9q4 -11 10 -21
q7 -10 6 -18q-1 -11 8 -17t30 -27t29 -23t12 -5q4 -2 10 -9t10 -9t12 -4t23 -10t27 -9l36 -8q28 -6 54 -2t36 4t13 1q7 2 14 7t24 2q16 -2 48 14q33 17 46 28t18 12q14 4 21 13t9 11t10 7q9 5 19 15t20 13l27 -6q18 0 20 -3q2 -2 5 -12q4 -12 16 -23q36 -31 -10 -73
q-21 -16 -34 -16t-23 -8q-11 -8 -33 -27q-22 -18 -48 -19q-23 -10 -34 -12t-22 -8t-22 -6q-12 0 -18 -1t-19 -7t-20 -6l-31 4l-16 -4h-110l-15 4q-38 0 -52 8q-15 8 -33 15t-19 9q-23 4 -33 11t-27 31q-16 24 -24 28t-14 8q-7 4 -23 22t-18 23q-2 3 0 13q1 10 -2 14t-23 24
l-2 19q-18 18 -17 30q2 11 2 15l-10 18q-4 12 -4 28l4 62l-6 29l10 33q0 2 -3 11t-1 26q15 26 15 48t13 43t13 29q0 7 1 9t3 5l4 6t3 6t0 10q0 7 4 15t23 32q25 31 29 47q3 16 19 34q17 17 28 20t14 6q5 5 12 19t20 20q17 8 40 30t46 22q7 3 37 25l16 2q11 0 21 10zM451 592
q14 -4 47 -4l18 -4l39 8q2 0 27 -10l36 6l23 -6l21 4l18 -4l29 8q4 0 13 -2t23 2q15 4 20 3t15 -4t25 -7t27 3t14 19q1 12 -13 28t-14 29v15q-2 6 -11 16t-17 22q-14 22 -29 23q-4 5 -21 23t-36 18q-3 3 -17 10q-18 0 -25 8t-11 7q-47 0 -71 5t-28 -1q-31 -12 -37 -14l-24 2
q-22 0 -39 -17q-15 0 -23 -8q-6 -2 -61 -45q-4 -2 -17 -5t-20 -17q-6 -15 -12 -20t-13 -12q-24 -21 -37 -42v-15q-2 -2 -2 -6l-2 -8q3 -17 18 -13q15 5 19 3l43 -8l53 6l21 -2z" />
    <glyph glyph-name="f" unicode="f" horiz-adv-x="636" 
d="M264 932l4 69q18 36 6 73l11 23v21q0 2 6 17v30l8 19q2 8 1 23t1 21t8 16q6 9 6 16l2 34l15 17q0 4 -6 16l4 37l-4 55l16 29v11q0 7 2 9t6 8t6 7q2 2 6 12t22 26q17 16 26 28q10 11 15 13t11 3q6 0 6 2l31 6l16 -2h16q29 1 40 -23q10 -24 2 -44q-7 -20 -15 -21
q-8 -2 -23 -1t-17 -2q-2 -2 -4 -14t-7 -16q-6 -2 -20 3t-17 -7q-9 -15 -4 -29q5 -15 1 -25q-3 -9 -3 -19v-23q-2 -6 -12 -23t-7 -39t3 -28l-6 -33l2 -22v-11q0 -12 -14 -26q-14 -15 -15 -21l10 -19q8 -17 -5 -45t-14 -33t-1 -34l-4 -21q-2 -4 -1 -17t-1 -17l-8 -23
q-2 -4 -1 -13t-4 -20t-2 -20q12 -37 124 -7q10 2 26 -2q18 -4 27 -4q21 0 18 -43q-4 -43 -39 -55q0 -2 -22 -2l-25 -1q-25 -1 -25 1l-18 10q-10 2 -35 -10q-4 0 -16 1q-29 2 -38 -29q-5 -17 -3 -34t0 -36l-10 -21q-2 -8 -3 -20t-5 -25q-3 -14 -2 -19t2 -7t-1 -8t-2 -15v-29
l-16 -59q0 -6 1 -19q1 -14 -1 -18t-6 -13t-4 -18q0 -8 -2 -12l-15 -61l6 -45l-14 -41q-2 -4 -2 -12v-9q-10 -10 -10 -24q7 -25 0 -56l8 -26q2 -7 -5 -17q-9 -14 -9 -23v-9l-15 -25v-7q0 -5 -2 -7q-17 -44 -79 -24q-32 10 -24 39q3 11 3 15l-8 23q-8 25 1 34t8 24q-2 17 8 37
q9 20 8 51q-1 30 -1 37t5 15q4 8 6 13q2 6 3 20q2 22 13 45q4 16 4 21l-4 24q1 1 10 19q0 26 15 49l-9 23q0 7 11 22q0 6 -1 22t2 24t9 17t5 16q-1 9 6 23t6 37t-1 29l4 14v19q17 35 10 46t-18 11q-31 12 -47 8q-18 -10 -47 -10t-33 21q10 21 10 41v22q4 16 51 16h52l47 -24
q12 -2 18 16q2 4 1 9t-1 9l-4 17v33z" />
    <glyph glyph-name="g" unicode="g" horiz-adv-x="1085" 
d="M748 5q0 11 16 63q0 32 -26 24t-50 -29t-33 -23t-28 -11q-19 -11 -24 -13t-15 -3t-14 -3t-9 -6q-4 -4 -6 -4h-27l-36 -6q-22 -6 -32 -5q-9 1 -15 1l-29 -6q-6 0 -14 4q-16 8 -28 7t-24 6t-20 8t-27 2t-29 7t-16 14q-6 7 -52 41t-63 72q-2 1 -2 7t-18 40t-21 51
q-2 17 -4 21l-10 19l6 32q-12 25 -6 103l10 31q2 6 1 20t-1 23l11 24q2 4 4 32t28 54q2 6 1 15t-1 14t11 16q0 3 8 23q10 20 36 48t30 32q3 4 4 6q0 2 4 5t6 6t10 8t24 27t35 23q18 18 37 23q2 2 27 18q42 27 84 27l18 10q6 2 21 1t29 4t18 6t16 1t19 -2l24 -10q64 0 83 -11
q25 -14 40 -16t31 -18l20 -20q6 -4 16 -8t16 -8q5 -3 16 -22t24 -22q23 -6 29 25q2 8 -5 32t12 41t34 17l18 -6h27q4 0 9 -4t12 -5t7 -19q0 -17 -6 -29t-7 -26q-1 -13 -7 -28q-6 -16 -5 -38t1 -29q-11 -23 -11 -33t-3 -18t-3 -15v-18l-10 -25q-2 -8 -1 -35t1 -37l-6 -14
q-6 -41 -10 -58t-4 -22l4 -14q0 -8 -10 -23q0 -29 -6 -42t-6 -23q1 -10 1 -18t-6 -41q-6 -34 -12 -46l-12 -28q-2 -8 2 -23t0 -30t-3 -32t-5 -32q-7 -14 -6 -26t-3 -27q-4 -14 1 -30t-6 -33q-13 -20 -13 -46q-24 -36 -22 -48t-22 -42t-42 -56t-22 -31q-5 -5 -19 -13
q-13 -8 -19 -12t-10 -9q-4 -4 -6 -7t-6 -6t-11 -9q-7 -5 -27 -17t-24 -14l-5 -5q-7 -7 -35 -5t-40 -9q-12 -12 -20 -12l-35 4q-19 -3 -49 -20q-35 -5 -50 4q-15 8 -58 8l-21 -2l-29 21q-9 0 -18 -5t-19 4q-13 11 -33 17t-28 15t-12 11t-8 5q-4 2 -7 4q-43 33 -32 61q0 4 6 9
q9 7 14 27q6 19 26 19q19 0 23 -4h19q20 -10 51 -41q38 -26 46 -26q9 0 26 -8q16 -8 94 -9q14 7 20 7t12 -4q7 -4 16 0t21 3t30 5t39 23q20 16 26 18q9 3 16 10t19 11q12 5 23 14q14 12 43 51q28 40 28 51q11 11 24 47v20q10 21 11 23v7zM817 449q4 12 4 67q10 20 10 26
l-4 27l2 37l-12 23v6q0 21 -13 39t-18 29q-8 23 -45 45q-2 2 -6 3t-6 2t-4 4t-5 5t-5 3t-6 1q-3 0 -7 2t-12 12t-12 12t-19 -4q-12 0 -55 10t-54 8q-10 -1 -18 -1l-59 -14q-12 0 -22 -5l-21 -14q-4 -4 -24 -13t-35 -6q-16 3 -17 -5q-2 -7 -2 -12v-11q-4 -16 -28 -36
q-25 -20 -25 -29v-11q-2 0 -11 -16q-10 -15 -18 -23t-10 -12t-3 -8t-2 -6t-4 -5t-4 -7t-1 -8q0 -10 -8 -18t-9 -17v-13l-10 -14q-4 -20 -4 -58q-6 -6 -6 -14v-49q-12 -42 -4 -80l12 -27q2 -4 2 -9t1 -8t4 -8t5 -8t5 -9q4 -6 6 -8q2 -3 8 -20t17 -24q11 -6 13 -8l8 -8
q5 -6 8 -8t10 -5t9 -5q35 -44 67 -40q13 2 19 0l27 -10q6 -2 20 -1t21 -1l33 -10l22 14q8 4 29 8t29 10q8 7 15 6t11 0t10 7q8 8 25 14q45 15 62 55q6 13 12 17q43 29 55 74t21 51v8t1 7t5 6t4 8l6 45l10 18v17z" />
    <glyph glyph-name="h" unicode="h" horiz-adv-x="974" 
d="M190 698l11 27l-4 27l10 20q0 8 -1 26q-1 19 5 28t6 14v71q6 26 6 35q0 10 1 14t2 12q1 7 4 17t2 26q-1 17 5 23q7 6 7 11v41q12 48 12 69v27l14 35l-4 41q0 10 10 45v22l11 25v9q0 9 5 17t5 11v53l10 22q2 10 -4 30t-4 26q10 27 27 32h7l40 17q5 0 11 -4q5 -4 7 -5
q37 -18 37 -29l2 -20l-16 -26q0 -2 8 -12q12 -15 1 -29q-11 -13 -10 -21t-2 -12t-3 -16v-47l-11 -29q-2 -9 0 -27t0 -24l-16 -29l4 -27q0 -6 -8 -15t-7 -30q1 -20 1 -26q0 -7 -5 -13q-9 -11 -6 -34t-9 -54t-9 -48q4 -16 -4 -40t-8 -28l-2 -35q0 -4 -6 -11t-5 -23
q0 -17 -3 -32t10 -23q12 -7 30 5t40 24q21 12 32 19l33 22q20 0 41 10t40 8q19 -1 23 -1l24 4l29 -8l20 4q58 -1 74 -13q20 -16 40 -18t63 -57q2 -2 9 -6t13 -21q7 -16 8 -19t6 -11t7 -12q2 -3 1 -10t4 -16l7 -14v-166q-15 -46 -22 -96l2 -20l-6 -21q-2 -10 1 -44t-13 -69
q-15 -35 -15 -53l6 -30l-6 -15q0 -4 1 -18t-5 -24t-6 -15v-68q0 -10 -10 -26q-9 -15 -17 -19t-17 -5t-13 -3l-23 -8q-16 8 -27 10q-31 6 -24 41q8 16 8 23v47q6 5 6 33v30l14 39q2 4 1 14t2 15l10 18q0 38 6 65q6 26 8 36t0 26t-2 25l14 26v19q-1 5 7 19t8 40v35l6 45
q0 8 -6 14q0 10 1 33t-1 30t-14 27t-14 29q-3 10 -6 15t-43 27t-58 16q-17 -5 -21 -5l-20 4l-35 -4q-51 0 -57 -2t-16 -10t-24 -15t-18 -11t-11 -13q-7 -8 -11 -12q-2 0 -6 -2t-13 -5q-8 -3 -30 -32q-21 -29 -31 -39t-18 -35q-9 -26 -13 -31q-6 -8 -6 -17v-7q-2 -4 -7 -12
q-6 -9 -8 -15t-1 -20t1 -21l-10 -20q-2 -8 -3 -29t-7 -34t-6 -17v-51q-12 -35 -13 -60t-11 -39q-9 -14 -9 -20l6 -55l-10 -21q-2 -8 -1 -26t-1 -27l-10 -23q0 -8 2 -19t-8 -26q-16 -8 -31 -8q-70 -29 -79 15q-3 14 1 43l4 28l-2 19q0 12 8 28v15q24 75 17 82q0 2 -9 10t4 18
t15 20t0 43q-2 34 5 45t8 34t2 29t12 20q0 4 -5 20t21 49q6 0 14 15q0 6 -7 13t-9 11l12 43q2 4 0 14t0 18l7 24q7 24 7 32z" />
    <glyph glyph-name="i" unicode="i" horiz-adv-x="481" 
d="M260 877q42 1 48 -5t15 -9q11 -3 13 -21t-16 -40t-17 -24l4 -24v-37l-8 -27q0 -2 5 -18t-7 -34t-13 -24t1 -15t2 -11t-6 -43v-27l-17 -33q0 -10 5 -33t-4 -46t-10 -28t0 -14q1 -8 -1 -12t-7 -10t-6 -15t-2 -14t-6 -9q-4 -5 -5 -7t1 -8t2 -8l-4 -31l2 -76q0 -36 -9 -48
t-8 -33q2 -20 -11 -46v-20q-19 -35 -62 -25t-49 16t-6 33v29q6 6 6 21v32q6 26 23 49l-7 33q2 6 10 23t9 50q0 33 9 54t9 45q11 23 13 31t-1 46t5 73q8 36 10 47v47q18 27 16 43t0 20t11 25v39l10 20l-6 17l2 24q2 2 2 4q-1 44 26 54h29zM391 1202q0 -12 -2 -15t-7 -8
t-7 -11t4 -17q6 -12 6 -18q0 -7 -3 -13t-6 -8t-11 -8t-11 -6q-31 -25 -42 -27t-29 12t-24 24t5 50v33q-6 27 -4 34t14 19q12 11 17 21q6 10 11 14q4 4 24 8t34 0q43 -14 41 -53q-10 -19 -10 -31z" />
    <glyph glyph-name="j" unicode="j" horiz-adv-x="546" 
d="M365 629l-11 -19v-35q-10 -20 -14 -32l-2 -47q-6 -6 -6 -13l6 -28q-10 -20 -10 -23l-2 -43l-13 -33q-2 -6 -2 -17v-15l-10 -19q-2 -10 -1 -36t-4 -38t-6 -17t2 -15q3 -9 3 -19t-10 -20q-12 -37 -14 -80t-6 -57q-5 -15 -6 -21t0 -19t-1 -20l-10 -22q0 -9 1 -29t-3 -32
t-7 -18q-3 -8 -5 -24t-3 -22l-6 -22l2 -16l-6 -20q0 -4 1 -17t-1 -19t-7 -13q-5 -8 -6 -11t-1 -9t-2 -8q-38 -71 -99 -54q-20 6 -26 27q-2 2 -2 35t2 36t13 9t11 14l7 62q6 20 5 34t1 21l14 53q0 8 -1 25t7 34t10 23v41l11 18q0 4 -1 19t7 27t10 18l-6 37q0 12 6 18v39
l12 27l-2 80l13 30q0 92 28 138l-4 26l6 19v57q0 4 9 12t6 18q-2 11 10 42q-10 23 -8 34l14 23q-6 21 -4 39l14 26q2 11 -1 25t-4 33q-3 30 41 47q20 8 51 1q30 -7 34 -12q4 -4 5 -14t14 -28q0 -10 -14 -24t-13 -40q-6 -6 -6 -12v-57q-10 -33 -13 -35zM467 1250q0 -8 -7 -17
q-7 -10 -9 -16l4 -29l-6 -27q-3 -4 -5 -7t-4 -9q-2 -7 -2 -17t-4 -15t-23 -14t-25 -13q-5 -5 -9 -7q-3 -2 -13 3q-10 6 -13 8t-11 3t-19 7t-6 24q4 17 6 19q1 2 1 6t-1 23q-1 20 1 24t6 11t4 13t-2 28q-2 23 15 31q42 18 47 20q4 3 14 -1t12 -4l22 2q11 -6 11 -16
q16 -22 16 -30z" />
    <glyph glyph-name="k" unicode="k" horiz-adv-x="946" 
d="M141 395q11 22 11 60l10 16q2 6 1 21t9 38q2 14 3 47t7 45q6 11 6 22v30l7 24l-7 19l11 22q2 5 1 21t4 39t5 35l2 36l20 58v82l11 18q2 4 1 16q-1 15 9 25t4 34t4 42t9 28q-2 15 4 25t6 56q0 47 7 61q11 23 10 58q-1 36 6 59q7 24 8 32t-1 34t2 35q5 9 21 16t23 13
q25 20 45 -2q20 -21 18 -33q-2 -13 -1 -34t-16 -45q-3 -9 7 -19t-1 -63q-11 -52 -13 -56t-2 -10q-1 -6 -2 -11t-2 -9t1 -11t1 -11t-5 -12q-4 -7 -6 -10t-1 -17t-2 -26t1 -22q4 -11 -2 -23q-6 -11 -6 -16v-9l-9 -19l7 -26l-9 -21q-2 -9 -3 -27t-3 -26t-7 -12q-5 -5 -11 -10
t-6 -11l4 -23v-30q0 -3 -17 -37q3 -29 2 -39q-2 -10 -2 -15v-47q-2 -8 -5 -15t-5 -15t-4 -14t-1 -22q1 -15 1 -22q-10 -30 -10 -37l-2 -14l-8 -27q-2 -2 0 -6v-8l-7 -20v-33q0 -18 2 -23q14 -25 39 -4q9 6 49 41t58 47t34 30t19 23q4 5 19 11q31 31 40 34q15 5 35 25
q19 19 29 24t14 9t16 15t17 17q6 7 15 13q9 5 34 29t39 33t57 11t68 -18q12 -10 -1 -34t-38 -35q-2 -2 -9 -2q-7 1 -13 -7q-22 -26 -27 -30q-6 -4 -14 -14q-9 -11 -25 -18t-28 -19q-18 -18 -35 -28t-25 -22t-14 -14q-3 -7 -11 -8q-8 -2 -16 -6q-8 -5 -13 -9t-17 -17
q-19 -21 -31 -21q-11 -6 -25 -20t-38 -32q-24 -17 -25 -29q0 -13 12 -29t19 -30q6 -14 10 -18l7 -7t7 -5q8 -4 8 -14q0 -18 27 -27q3 -11 18 -25q17 -14 23 -26t27 -41t37 -46q16 -16 17 -22t15 -20t20 -22t17 -23q10 -15 24 -24t16 -15q1 -7 3 -13t14 -22t12 -17
q4 -27 -30 -40t-40 -11q-7 2 -13 6q-13 8 -21 8t-15 8t-25 24q-31 31 -68 89q-44 69 -59 82t-17 24q-3 11 -16 20t-17 13q-2 4 -4 16t-8 22q-14 21 -38 35q-10 6 -12 20t-6 23t-43 24q-16 0 -34 -18t-27 -19q-4 -4 -10 -9t-11 -10q-4 -6 -12 -12q-29 -22 -22 -80
q2 -16 0 -35l-17 -26l6 -31l-6 -18v-62q0 -6 -5 -17q-7 -16 -6 -30q1 -13 -15 -31q-15 -18 -23 -21t-32 5t-33 8q-10 0 -17 10l-2 15q-16 44 1 67q5 7 5 15v12q9 51 17 67q8 15 10 21v35l16 33l-6 28q0 7 10 37v45zM567 650q0 -5 4 -5t4 4v8q-8 -2 -8 -7zM639 717
q-10 -10 -4 -10q4 -4 8 2t-4 8z" />
    <glyph glyph-name="l" unicode="l" horiz-adv-x="512" 
d="M156 542v19q0 27 9 47t11 28t2 24q0 17 4 27t12 19q9 9 12 9t12 -11t15 3l-18 32q-8 23 -8 35l6 21q-2 4 -9 14t-5 18l8 21q2 8 3 26q1 24 7 35q6 12 6 17v49q10 20 11 24t-1 31q-2 30 9 48t9 29q-1 11 1 15l14 37q0 27 -6 33l6 29v18l25 45l-8 25q0 8 10 28v60l8 24
q2 3 2 11v12q0 10 6 17t3 23t-3 25q-1 10 11 26t26 24q12 2 15 2l26 -11h7q5 0 9 -2q27 -8 28 -22t-11 -39v-21q-10 -20 -10 -26v-43l-17 -64q0 -4 1 -18t-3 -29q-8 -30 -8 -61l-12 -37l2 -33q-5 -5 -9 -19t0 -25t-4 -36l-10 -18l6 -21l-4 -22q-2 -2 -1 -12t0 -13
q-1 -4 -7 -15q-14 -26 -14 -54l-6 -13q-2 -10 0 -33q2 -22 0 -30t-12 -22t-9 -21l4 -29q0 -2 -10 -27v-67l-14 -33q-2 -8 4 -18t6 -17l-17 -35q0 -6 5 -15t-5 -22q-10 -12 -11 -25t0 -27t0 -20q-1 -7 -10 -17q-9 -11 -11 -15t0 -20q3 -24 -7 -34t1 -28t0 -33t-9 -45
q2 -31 0 -41l-10 -18q-2 -6 0 -21t-2 -22l-14 -25l6 -18l-6 -23v-40l-10 -21v-13q0 -22 -15 -26q-4 -2 -8 -2h-8t-8 -2l-26 -8q-12 0 -15 6t-7 7t-9 2t-11 2t-3 14q3 12 3 17v52q0 6 6 15v43l10 45v22q0 6 8 12t7 13l2 61l10 23v43q0 4 4 9t6 11t2 28t4 32l13 24l-8 37
q6 18 6 30z" />
    <glyph glyph-name="m" unicode="m" horiz-adv-x="1488" 
d="M463 872l28 11h9l41 8q14 0 22 8h19q43 0 58 -8q14 -8 27 -7t17 -1t7 -5q3 -4 15 -12t22 -15q8 -7 26 -18t23 -17q7 -10 9 -16t16 -26q13 -20 11 -30t8 -15q15 0 21 13t30 42t38 37t18 9q4 0 9 4t21 18q23 20 36 20t20 4q12 9 19 9h11q4 2 12 7t14 6q5 1 13 -1t11 -2
l14 4h43l16 -4l21 4l14 -4q25 4 29 3q3 -2 11 -14t18 -12q12 0 26 -14q29 -16 31 -19t6 -13q7 -16 29 -33l8 -25q17 -17 16 -40q-2 -24 1 -40t3 -26l-6 -37l10 -27l-10 -23v-73q0 -7 -10 -27l6 -31q-2 -6 -11 -16t-9 -16l-2 -60l-9 -24q-2 -8 -3 -26t-3 -26q-2 -6 -6 -13
t-1 -26t-1 -37t-3 -25t1 -11q-10 -10 -10 -23l4 -27l-10 -28q-2 -4 -1 -15t1 -16l-11 -22q-6 -17 -11 -23t-32 -10l-35 6q-5 0 -11 -1t-13 5q-7 11 -6 32q2 21 2 48q0 48 16 64q2 8 2 25t2 26l11 22l-4 25l-2 34l6 27q2 1 1 9t5 20t5 35q-2 22 15 39v14q12 23 6 38
q-6 16 -4 24q3 8 11 30t8 33l-4 41l10 25q7 52 -4 70t-12 29q-2 23 -25 35t-26 15q-3 2 -8 2t-10 2t-18 12q-13 11 -35 7t-28 -5l-29 11q-10 -1 -26 -13q-17 -12 -19 -13t-6 -1h-8q0 -8 -36 -24q-36 -17 -42 -20q-8 -5 -12 -15q-3 -11 -15 -8q-16 5 -23 -4t-17 -8
q-10 2 -20 -13q-9 -16 3 -30t9 -20t-8 -14t-6 -11t-1 -10t-2 -9l-14 -33v-10q-15 -15 -15 -36t-2 -28l-10 -20v-31l-10 -20l10 -35l-14 -33q-2 -4 1 -11t2 -11q-3 -12 -8 -21t0 -17q5 -9 5 -17t-13 -17q-2 -6 0 -22t0 -23q-2 -6 -16 -24t-8 -29t12 -28t0 -24
q-15 -15 -13 -37t-4 -25q-5 -3 -7 -5q-2 -1 -7 -9q-4 -8 -7 -10q-9 -6 -13 -5t-14 -4q-11 -5 -14 -4t-10 4t-8 4t-13 1t-15 4q-4 6 -4 39l6 43l-2 25l10 30v10q0 7 2 9l15 33l-6 28q6 6 9 31t6 35t2 22q-1 13 0 19t7 15t8 19t-1 38q-3 29 1 40q0 12 11 19q0 6 -1 17
q-1 10 1 16t8 16t6 16q4 6 2 29t-1 28t11 25q0 2 -4 6l-6 27q4 4 4 12l-4 29q0 36 -6 44q-5 6 -17 14t-23 13t-16 9q-15 12 -56 12l-36 10l-30 -4q-31 -2 -33 -2l-20 -10h-6q-5 0 -17 -11t-35 -19q-22 -7 -28 -11t-13 -16q-6 -13 -10 -17t-13 -8q-10 -4 -12 -6t-4 -7t-4 -7
t-8 -7q-8 -7 -12 -22q-3 -15 -14 -25t-14 -16t-7 -22q-6 -23 -14 -33q-9 -10 -9 -28v-23l-8 -25q-2 -7 -1 -25t1 -26q-10 -10 -10 -15l-8 -65q0 -2 -6 -13t-7 -42q4 -24 4 -29l-12 -23v-28q0 -9 -8 -26t-7 -38t-9 -38q-10 -16 -7 -40q2 -24 -1 -36q-3 -13 -15 -19t-21 -11
t-16 -5l-22 8q-2 2 -14 4t-15 7q-4 5 0 21t4 21v47q-2 21 0 24t10 13t6 30q-3 21 6 32q9 12 9 16l-4 33l10 30l-4 23l10 29q0 2 -1 11t1 12t5 8q5 8 5 29v20l4 20q2 4 1 14t5 18q7 8 6 33t0 33t12 22t13 21l-10 21l10 26q2 10 -1 44t3 42q0 8 16 24t9 38q-8 14 -8 20l8 23v7
q0 10 5 18t7 12t3 7t3 5q39 33 72 0q10 -10 15 -22t-4 -25q-9 -15 -13 -23t-7 -10t-10 -5q-12 -5 -12 -14v-9q-21 -70 -14 -79t17 -13q10 -3 12 -9q8 -6 14 -6q5 5 14 20q8 15 14 22t29 38q0 4 -7 17q-7 12 -10 14t-7 -2t-4 -8t1 -18q1 -13 0 -14t-17 -23q-16 -21 -24 -11
t-7 14q2 4 8 10q9 9 7 27t13 31q15 12 17 15t22 18q14 28 31 39t44 26q30 16 40 16zM772 686q-14 -6 -8 -24q8 -10 18 -8t12 14q2 10 -6 16q-6 6 -16 2z" />
    <glyph glyph-name="n" unicode="n" horiz-adv-x="976" 
d="M209 854q15 23 53 23q12 6 20 6t15 -6q33 -21 25 -35t-1 -27q7 -14 12 -16t23 16q21 21 30 21h9q6 13 20 19q13 7 21 6t15 6q11 10 22 10h10q76 27 78 26h62l18 -10q4 -2 11 1q8 3 14 3t22 -9t20 -11t24 0q20 3 26 -3t12 -18t34 -40t36 -42t7 -24q-1 -12 10 -34t12 -28
t1 -70v-65q-10 -22 -10 -38v-26q0 -43 -14 -71q0 -58 -7 -76t-9 -24t0 -24q1 -19 -1 -26l-10 -26v-9l-4 -20l4 -23l-12 -45q-2 -4 0 -14t2 -14l-16 -65v-9q-5 -10 -11 -10q-6 1 -18 -15t-20 -15t-36 9q-26 8 -29 14t-3 14l2 36v33q0 6 4 12t8 18q4 11 3 25t-1 20l10 19
q2 6 1 17t2 16l4 17q0 3 -1 19t1 20t6 8q4 5 4 10q0 4 -1 18t1 19t6 10t4 10l2 30l8 21q-11 40 -3 53q9 13 9 24v15q8 8 17 45v31l14 26q2 9 -7 27q-9 19 -10 29q-2 16 -14 32v12q0 5 -8 9q-8 5 -29 23q-21 19 -24 18h-7q-5 0 -15 11t-16 13t-26 0t-55 0q-46 23 -66 0
q-10 -11 -28 -9t-31 -13q-13 -14 -27 -20q-13 -7 -19 -11q-8 -6 -16 -18t-25 -29q-18 -17 -29 -33l-2 -14q-2 -4 -8 -10q-6 -5 -6 -9q-1 -4 -1 -10t-7 -22t-9 -19q-2 -4 -6 -8t-4 -6v-23l-11 -30q-2 -4 -1 -14t-7 -36t-8 -28v-45q-12 -24 -11 -33t-7 -29q-9 -21 -9 -53v-100
l-16 -33l6 -37l-16 -43v-13q0 -14 -5 -15q-19 -6 -35 -19q-27 -21 -53 3q-26 25 -24 40l12 41q2 4 -2 12t-5 12t4 12q5 7 7 11q0 3 -1 15t8 36t10 31v64q0 4 11 17q19 22 15 76q-3 54 5 69t10 19t1 15q-1 10 1 15l10 18v61q4 11 4 41l10 39v23q0 20 5 29q5 8 7 14t1 39
q-2 33 -2 43l12 20q0 35 2 35zM274 621q-19 19 -21 -6q-1 -9 3 -17t10 -6q16 4 8 29z" />
    <glyph glyph-name="o" unicode="o" horiz-adv-x="1050" 
d="M88 399q14 42 14 65t10 39t8 30q-1 14 1 19t9 14q11 14 12 37q1 24 16 35q14 12 21 33t17 34q11 12 13 16t6 11t9 17t17 13q11 2 15 6t8 13t8 14l21 10q51 51 61 51h15q14 14 26 14t30 15t35 13q16 -1 20 -1t20 12h31q42 0 53 11q6 2 16 -4t12 -7l25 4q6 0 14 -9t29 -7
q20 2 28 1t21 -13l16 -2q8 0 11 -6q3 -8 12 -11t22 -16t25 -20q13 -7 25 -23t22 -23q10 -8 12 -12l3 -14q4 -6 12 -14t14 -16q6 -9 10 -23q5 -15 11 -28t6 -21v-9l14 -39q5 -42 -4 -81q6 -24 4 -52l-10 -25l6 -32q0 -10 -6 -10v-19q-6 -18 -5 -29t-5 -21q-6 -11 -5 -26
t-6 -24q-10 -12 -17 -34q-7 -21 -26 -42q-20 -21 -20 -35t-18 -25t-20 -15q-3 -4 -5 -7q-2 -4 -3 -7q-2 -7 -17 -14t-21 -19t-20 -23q-15 -11 -25 -11q-20 -7 -46 -30t-40 -23l-27 -10q-6 -2 -29 -3t-28 -7q-6 -6 -11 -8t-35 0q-30 1 -38 1l-35 -10l-14 4q-2 2 -11 1t-23 7
q-14 9 -29 9t-37 9q-23 9 -28 14q-15 15 -47 31t-39 28q-8 11 -13 16q-5 6 -7 10q-2 2 -19 14t-19 29q-3 17 -4 22t-3 9t-7 6q-23 9 -19 28q3 19 -7 31q-10 11 -12 17t-1 24t1 25q-6 6 -6 16l4 58zM663 788q-9 0 -21 5t-20 5q-8 -1 -14 2q-8 3 -18 3q-16 -6 -62 -6
q-4 4 -18 4l-33 -19h-12q-8 0 -11 -1t-40 -25q-38 -24 -58 -32q-20 -7 -20 -22q0 -9 -18 -25q-18 -15 -22 -23q-5 -8 -13 -24q-7 -18 -11 -24t-12 -16t-11 -16t-5 -14q-3 -12 -9 -18t-5 -16t0 -13t-4 -7t-5 -7t-3 -7t-3 -14t-1 -43q1 -34 1 -46l-10 -31q-3 -28 2 -37
q4 -8 6 -13t3 -9t0 -16t-1 -17l14 -45q2 -2 2 -7v-7l25 -25q0 -18 16 -27t30 -26q21 -25 41 -25h7q6 -4 14 -7t16 -9q9 -6 24 -5q14 1 46 -4t50 -2q20 3 27 6t13 3h11l33 18h12q8 0 12 2q82 39 129 111q10 16 13 19v4q0 4 20 29t21 34q2 9 7 20t6 20t1 17q0 14 11 33
q11 18 11 23l2 61l9 27l-11 28l11 29q0 5 -11 23v39q-17 39 -21 57t-16 20q-18 4 -25 20q-7 17 -30 27q-24 9 -43 25t-29 16z" />
    <glyph glyph-name="p" unicode="p" horiz-adv-x="1150" 
d="M989 257l-12 -24q-3 -13 -30 -45t-33 -44q-12 -28 -115 -95q-4 -2 -8 -6q-18 -18 -35 -18q-22 -11 -29 -12t-18 -13q-16 -6 -45 4q-6 4 -2 20t-13 17q-4 0 -11 -1t1 -14q8 -12 0 -24t-50 -14t-53 4q-10 6 -15 6l-21 -8q-17 -7 -58 16q-16 14 -22 14h-8q-20 8 -38 22
t-25 16q-7 3 -13 20q-12 2 -38 26t-36 -15t-10 -75q-4 -12 -4 -31v-32l-10 -23q-2 -8 -1 -25t-1 -26l-9 -20q-2 -6 -1 -18t-5 -34v-24q-10 -20 -10 -33v-61q-2 -5 -6 -11t-5 -9t0 -10t-1 -9q-8 -16 -36 -24t-32 -5q-51 8 -53 41l6 28l-2 27q0 17 12 29q0 26 8 35q8 10 10 19
t-1 38q-2 29 0 41l14 23q4 4 2 20t0 23l10 18l-6 39q6 6 6 15v22q2 4 10 14t6 20q-1 9 1 13l10 18v39l4 19q0 6 -1 30t7 37q6 23 5 45q-1 23 -1 33q10 21 11 27t0 38t8 49q10 17 9 31q-2 22 9 33q10 31 6 51q-4 21 -4 25l14 23v18q0 20 9 38t7 33q-1 15 7 23t3 26
q-5 19 -5 25l6 17v37q6 21 4 28t-2 19t14 24q21 18 54 17l22 6q20 -5 30 -23t7 -30q-4 -12 -9 -21q-5 -10 -5 -14t4 -9t14 5q15 14 25 14t16 6q23 45 57 45q23 23 123 47q16 0 45 3t33 2l18 -9l21 11l14 -7q5 0 15 1t14 0t9 -4t21 -12t38 -6q20 3 26 0t14 -16t11 -18
q4 -2 12 -2t14 -5q7 -5 15 -19t19 -26q11 -11 17 -15q6 -5 7 -9q2 -4 4 -7t4 -7q1 -4 11 -14t10 -25l10 -18l2 -15l10 -20q9 -18 4 -35l-8 -23q2 -4 15 -7t9 -23q-3 -20 -4 -27l9 -29l-9 -45q0 -2 5 -32q-3 -17 -11 -25t-6 -28q2 -19 1 -25t-7 -13q-10 -12 -9 -24t-5 -23
q-6 -12 -6 -19v-9l-15 -25v-7zM322 472q-5 -15 -5 -54q-6 -12 -6 -17l4 -22q0 -7 -14 -35q0 -8 10 -53v-25q2 -4 4 -9q1 -5 5 -10t6 -7t2 -8v-7q15 -38 44 -55q9 -6 11 -8q51 -47 94 -62q8 -4 36 -2t38 2q59 -15 66 -14q6 0 15 4t25 6t28 15q13 12 17 13t14 4q9 3 14 7t10 9
t30 18t35 20q3 4 27 35t28 37q2 14 12 24q10 9 15 15q3 18 11 32q11 21 11 28v7q4 37 10 44q5 8 7 11t4 8t0 34t-1 36t7 25t4 29l-10 24q-2 8 0 25t-4 26q-6 8 -9 28t-5 24q-7 11 -18 20q-10 9 -23 30t-29 27q-17 6 -28 21q-11 14 -19 20q-7 6 -27 3q-28 -3 -40 6t-30 7
q-18 -1 -33 4q-14 5 -27 2q-12 -3 -34 -9t-26 -6t-27 -17h-7q-5 0 -7 -2l-17 -12q-4 -2 -24 -5t-35 -32q-5 -5 -16 -9t-23 -19q-12 -16 -12 -25q-4 -6 -12 -13t-9 -11q-13 -29 -35 -56q-13 -29 -11 -40q1 -11 0 -13t-5 -7q-4 -4 -5 -8l-3 -12q-4 -16 -10 -21t-3 -13
q4 -9 5 -12z" />
    <glyph glyph-name="q" unicode="q" horiz-adv-x="1087" 
d="M145 634v9q16 42 29 60q14 17 12 25t9 16q10 8 18 14t14 11t14 18q10 15 25 28t16 19t3 8q4 2 13 5t22 13q12 10 17 12t12 2t10 2t17 6q14 5 32 16q20 11 27 13t29 2q22 -1 56 9t47 10l33 -14q4 0 20 3t29 -7q12 -9 19 -11l14 2q39 -8 59 -22q6 0 15 -13q45 -31 54 -36
t20 -18q10 -13 12 -15q8 -2 19 9t11 19q-4 33 0 33q23 39 44 39h8l12 4q4 -2 11 -9t20 -6q12 1 20 -4t12 -30q4 -28 -4 -39t-9 -19t-8 -19q-7 -10 -7 -29t-4 -33l-6 -21v-26l-7 -19l2 -24q0 -7 -5 -19t-7 -20t0 -33t0 -35l-14 -47l2 -33l-12 -34q-2 -4 -1 -16t-14 -42
q0 -4 1 -9t-2 -21t-3 -21l2 -37l-10 -16q-2 -8 -3 -24t-3 -22q-2 -5 -8 -24t0 -30q9 -17 -4 -38q-14 -21 -11 -47q2 -26 0 -34t-8 -30t-6 -27q0 -8 -7 -17q-7 -8 -9 -62l-5 -12q-1 -4 5 -14t4 -17l-15 -61l2 -35q0 -23 -8 -39v-22q-8 -49 -53 -60l-25 -6q-10 0 -22 6
q-35 18 -21 78l4 25q-6 18 -5 21t16 18q2 6 6 28v33l6 14q0 2 -1 12t1 15q2 4 8 13t6 14l-8 26l8 21q2 4 1 18t16 37v18l10 23v47q0 4 3 12t-5 13q-14 14 -43 -21q0 -4 -10 -14q-5 -4 -19 -9t-20 -9q-49 -37 -72 -46h-16q-32 -16 -50 -16l-32 -10l-47 10q-22 -6 -34 -5
q-13 1 -30 0t-22 1l-25 14l-27 10q-20 0 -28 11t-27 19q-19 9 -29 9q-11 6 -31 32q-22 30 -39 40t-23 31q-7 22 -10 26t-7 10t-8 10q-4 5 -4 9v21q-7 7 -7 28l2 21l-12 24v148l14 37q2 4 2 15q-1 11 1 15l10 23q0 4 -1 23q-1 18 1 24t12 14q14 11 14 24zM256 588
q-25 -50 -25 -67t-2 -23l-8 -13q-2 -6 -2 -15v-13l-10 -27l6 -31q-2 -6 -12 -26l6 -35v-23l10 -22v-8q0 -6 2 -9l8 -20q2 -4 2 -11v-13q1 -11 11 -17t12 -9t4 -9t4 -11l25 -22q27 -29 29 -30t8 -1h8q4 -2 14 -9t17 -7h12l24 -11q5 0 15 2t20 -6q10 -6 18 -6q15 0 21 6
q47 4 49 4q22 11 28 11t10 1q7 2 11 8q4 5 15 10q12 5 22 10t28 11q18 7 26 16q10 9 32 23q32 20 39 36q7 15 21 30v6q4 8 13 22q13 19 13 28v8q11 12 11 22t2 14q0 4 8 16t6 30t0 24l10 25q2 8 1 27t-1 28l10 29v55l2 39l-20 35q-2 2 -5 10t-11 13q-8 4 -11 7q-4 6 -21 37
t-44 37q-5 0 -19 -1q-19 -1 -28 10q-10 12 -25 12q-18 0 -33 11t-27 11l-34 -6q-5 0 -27 4t-27 1t-11 -8t-11 -6q-4 -1 -10 -1t-10 -2q-5 -2 -9 -4q-4 -3 -11 -9t-11 -8t-7 -4t-29 -11t-28 -9q-18 -15 -22 -28t-19 -27q-25 -21 -28 -29t-17 -32q-18 -32 -18 -43v-7z" />
    <glyph glyph-name="r" unicode="r" horiz-adv-x="708" 
d="M502 887q36 0 52 -5t26 -4q8 1 10 -1q49 -49 20 -117q-2 -4 -2 -10t-6 -13q-2 0 -5 -3t-8 -5t-9 -4t-49 20q-44 22 -64 17l-18 -10q-2 -2 -11 0t-24 -13h-8q-9 0 -23 -20t-31 -33q-18 -13 -18 -20v-12q0 -6 -11 -20t-14 -26q-2 -12 -3 -15t-5 -8t-4 -10l-2 -22
q0 -6 -6 -15q-6 -10 -8 -14t-1 -10q2 -12 -4 -19t-6 -18l-2 -37l-8 -28q-2 -6 -1 -16t-2 -22q-3 -10 -3 -18t-1 -11t-5 -7t-4 -8v-45l-11 -21q-2 -4 -1 -12t-2 -16t-3 -11l2 -26l-2 -47q0 -27 -4 -35l-4 -4q-2 -5 -2 -27t-9 -46t-28 -30q-2 -2 -7 1q-8 5 -21 -5t-26 -4
q-14 6 -20 8t-8 4t-5 4t-5 6t-4 9q0 3 3 29t2 35t6 23q7 13 5 37t6 40q9 16 9 24l2 43l8 19q2 6 1 21q-1 16 1 22t4 14t5 16t5 14t1 16q-1 11 1 17l11 19l-13 43l9 12t6 26t6 28t8 15t0 25t0 29l8 25q6 12 6 30l2 56l9 34q2 3 1 9t1 8l10 20q0 8 -2 34t8 42l27 10l28 15
q2 0 27 -6q25 -7 31 -13t14 -21t14 -17t16 10q10 10 11 10l43 31h25q8 4 12 7q5 3 41 3z" />
    <glyph glyph-name="s" unicode="s" horiz-adv-x="837" 
d="M288 100q10 0 18 2q7 2 9 0l23 -8q29 -10 48 -10h26l18 -4l25 10q6 0 22 -1q47 -3 92 61l23 43q2 2 2 12v12l4 14q-4 4 -4 11q-10 53 -43 82q-8 6 -30 17t-28 22q-5 10 -7 12t-7 4q-4 2 -6 4t-6 10t-8 13q-5 4 -19 2q-17 -3 -26 6t-20 13q-11 5 -15 8t-8 7q-3 4 -9 8
t-10 9l-11 2h-5q-6 4 -18 13q-17 13 -27 13q-7 7 -15 19q-12 17 -25 19q-13 3 -18 5q-4 4 -8 16t-7 15q-3 4 -15 12t-17 15l-2 14q-16 37 -16 55l4 21q0 8 -8 32t10 48l21 28q4 4 5 14t3 12q3 4 25 26t35 26t28 20q16 15 51 15q14 14 32 12t31 8q13 11 52 1l24 -9q2 -2 9 -1
t28 -5h29q49 -14 60 -22q11 -9 15 -11t25 -7q19 -5 31 -11t17 -10t17 -12q35 -26 31 -43q-3 -17 -18 -41q-28 -33 -37 -30q-8 3 -17 8t-15 7t-10 3q-5 1 -8 3t-10 1t-16 11q-10 13 -13 15t-8 2t-13 6t-13 9q-4 3 -19 7t-30 6q-14 1 -40 12t-57 6q-32 -5 -42 -15
q-25 -1 -32 -7t-10 -8t-8 -7t-13 -7q-9 -2 -11 -4q-18 -27 -17 -39t-2 -16t-3 -13q0 -64 84 -123q0 -2 15 -13t21 -11l15 -2q14 -9 22 -18t31 -20t61 -37t50 -33t16 -13q8 -11 20 -14t20 -18q7 -15 50 -58q0 -15 9 -36q9 -20 8 -30t2 -14l10 -29l-10 -30q-2 -6 -1 -23
t-6 -27q-6 -10 -7 -19t-3 -13t-5 -8q-5 -7 -5 -16t-16 -24q-16 -14 -27 -25q-10 -11 -30 -20t-30 -19q-10 -9 -18 -11t-23 -3t-20 -3l-47 -13l-15 2h-8q-6 -2 -20 -9t-27 -7q-28 20 -55 25l-37 -9q-4 3 -14 11q-16 14 -34 8q-18 -5 -43 9q-24 13 -30 19t-14 8q-8 3 -28 7
t-27 10q-12 10 -25 32q-20 38 -3 60q17 23 22 33t20 11q17 1 25 -3t25 -19t23 -19q11 -7 31 -15q21 -8 33 -23q12 -6 22 -6z" />
    <glyph glyph-name="t" unicode="t" horiz-adv-x="587" 
d="M428 872q30 0 32 -1t7 -4q4 -3 6 -5t8 -4q5 -2 11 -5t13 -9t3 -20t-10 -21l-8 -8q-2 -3 -8 -13q-5 -11 -11 -10h-25q-6 -6 -15 -6t-21 6h-23l-4 2h-8q-18 -2 -37 -36t-6 -46q3 -19 -5 -39t-8 -53q-14 -42 -14 -72l-4 -16l2 -18l-10 -31q0 -5 1 -19q1 -18 -5 -34l-10 -25
l2 -12l-2 -17q-2 -4 -1 -19t-2 -18l-14 -34q-2 -7 1 -19t3 -16l-4 -49q0 -5 8 -20t10 -22q3 -13 15 -26q15 -12 37 -12h26q6 -6 15 -6q39 -4 43 -33q0 -23 -6 -35q0 -11 -10 -31t-39 -28q-31 -8 -37 -5t-28 18t-52 17h-11q-10 0 -11 2t-4 6t-5 7q-2 2 -16 10t-19 14
q-4 7 -8 27q-5 25 -18 40t-12 32q1 18 1 21l-6 24v10q20 40 18 75q-3 34 -1 48l10 22q0 4 -1 18t1 17q2 4 8 10q8 8 8 28v15q0 21 10 41v17q4 8 16 20t13 21q-20 7 -16 30t4 34t1 15q2 6 7 11q6 6 6 12v37q12 12 11 23t6 28t4 31q-4 6 -18 9t-21 7t-11 22t-10 21
q-16 4 -13 -24q1 -10 -1 -15q-10 -20 -38 -15t-36 33q-12 58 17 58q11 0 20 6t35 6l37 -2q6 0 14 -6q9 -6 21 -4t14 10q9 35 15 45q7 10 7 15v96l11 21q2 6 1 21t4 28q5 14 5 24v23q6 18 6 33v30q21 52 27 58l4 8q2 2 10 7t10 7q51 51 77 0q19 -39 -1 -59v-25l-20 -45v-16
q-10 -35 -11 -41l4 -27q-2 -8 -8 -20q-6 -11 -7 -15t0 -11t0 -10t-5 -9t-4 -9l-2 -36l-4 -15q0 -4 1 -20t-1 -20q-18 -31 1 -40q5 -2 16 1q12 3 42 3zM365 1157q-4 -6 6 -8q4 6 -6 8z" />
    <glyph glyph-name="u" unicode="u" horiz-adv-x="980" 
d="M156 750l14 34l-4 17l2 18l-8 31q4 21 22 32q17 11 26 10t19 3t38 -2t32 -25q2 -8 2 -25q0 -26 -9 -45t-15 -48q-5 -29 -4 -35t-2 -20q-3 -13 -2 -28t-1 -19t-6 -13q-4 -8 -4 -12v-14q0 -9 -2 -11l-8 -23l4 -20l-14 -53q-2 -4 -2 -13t-2 -22q-3 -15 -2 -31t-5 -22t-7 -16
t-5 -83l-4 -18l2 -41l-8 -41q2 -4 16 -25q0 -23 22 -30q5 -2 7 -4l35 -27q8 -4 18 -14q6 -2 18 -1t17 -6q6 -8 9 -11t23 -2t21 1l27 -4q26 6 62 24t44 18q29 -4 86 69q4 6 25 29t22 34q2 10 8 20t6 20q-1 11 9 22q15 23 20 63q6 40 15 49l8 13q2 8 -2 21t-4 20l6 24
q2 6 1 33t5 41q6 13 5 22q-2 21 16 45v101q0 4 6 14t4 17l-8 30q-4 13 4 33t20 31q2 0 47 16q16 4 39 -6t27 -16q4 -5 4 -49t-17 -88t-15 -77q3 -32 -3 -46q-6 -13 -6 -17l-2 -35q0 -12 -10 -37v-43l-17 -51q0 -10 1 -29q1 -25 -7 -42q-8 -16 -8 -25l-2 -45q0 -9 -4 -23
t-5 -19q0 -5 -8 -13t-8 -13v-61q-10 -20 -11 -24t2 -43q3 -40 -12 -56t-46 -31q-14 -4 -39 6t-29 35q-2 10 -7 22t-23 -5q-25 -21 -28 -21q-4 0 -13 -6q-14 -9 -31 -14l-21 -6q-4 -1 -10 -7t-10 -8l-33 -16l-23 4l-28 -4q-8 -2 -24 0t-28 2q-11 0 -29 -6t-33 6t-21 13
q-5 1 -23 -1t-24 3t-14 10t-15 13q-9 8 -29 26t-28 29t-10 19q-3 8 -6 14t-15 18q-11 14 -15 20t-3 21t1 20q-14 56 -14 66t4 20v22l10 23q0 12 -2 50t6 53q9 15 11 21t1 17q-2 30 11 43v45l14 25q4 2 2 32t-2 34q0 2 7 30l-5 37q0 13 11 24v9z" />
    <glyph glyph-name="v" unicode="v" horiz-adv-x="1009" 
d="M926 840q0 -31 -23 -41q-4 0 -8 -2q-3 -2 -13 -5t-10 -16v-8q-6 -12 -11 -17t-5 -11v-11q-4 -6 -14 -17q-20 -22 -29 -53q-14 -21 -31 -28q-28 -33 -24 -46q3 -13 -13 -32t-18 -23t-2 -9t-2 -9t-11 -10t-14 -10q-4 -6 -9 -24q-9 -33 -36 -50q-4 -6 -8 -18q-5 -14 -15 -26
q-11 -12 -14 -27t-14 -29q-10 -15 -12 -19t-2 -9q0 -4 -8 -16t-17 -12q-18 -18 -18 -39q-3 -2 -9 -14t-24 -27t-25 -41q-6 -25 -17 -34q-14 -12 -17 -29q-4 -18 -13 -25q-13 -10 -21 -34q-9 -25 -24 -31q-29 -10 -51 26q-2 4 -3 8t-2 9t-6 17q-10 24 -14 27t-3 19t1 19
l-6 18q0 46 -2 45l-20 53q0 3 -15 23q0 4 1 13t-1 13t-8 11q-6 6 -6 10l-2 33l-10 20q0 4 1 12t-1 14q-2 5 -12 15q-17 17 -17 31v12l-12 41q-2 4 -6 34t-15 36q-10 5 -8 19t-7 28q-9 15 -8 34t-9 32q-14 18 -12 41t-3 36q-6 12 -20 38t-20 40q-15 42 16 70q15 10 35 6
t33 -3q37 3 55 -48q2 -8 1 -24t1 -23l14 -44q0 -10 7 -27t11 -46q6 -42 19 -62q0 -34 7 -44t8 -14q1 -3 0 -9t1 -8l8 -25q17 -43 17 -53t6 -25q6 -14 8 -29t5 -21t5 -19q2 -12 9 -23q6 -10 6 -19t1 -15t7 -12q6 -7 8 -15q2 -9 5 -15q23 -49 52 10q2 4 9 13q6 8 10 21t19 29
q16 17 18 23t2 11q0 6 2 8t8 9q6 6 8 12t4 9q4 6 4 13t12 16q13 9 17 22t19 31q20 24 21 31t15 16q13 8 13 18v13q4 7 13 19t11 18l13 26t14 30q4 8 12 18t11 20q3 13 17 25q13 12 13 19q-1 13 9 20q9 8 18 20l2 19q2 2 4 5t5 6l6 6t5 7q2 3 4 7t7 15t13 19t30 16t26 9
q4 2 36 -12t32 -45z" />
    <glyph glyph-name="w" unicode="w" horiz-adv-x="1503" 
d="M336 356l10 -38q0 -10 5 -18t5 -25t13 -17l33 4h22q6 0 10 9t-4 25t-4 28q19 28 25 45t25 43q18 25 28 53l2 14q4 4 12 11t18 26q9 20 12 24t10 13q9 10 9 23q-1 13 21 33t22 33t6 22q6 8 8 15q1 7 3 11t11 12t11 10t6 11q5 8 7 11t2 8q0 6 2 10t7 15t7 16t12 14t10 28
q2 4 15 29q17 18 33 18t22 -2q2 -2 6 -9q7 -12 11 -16t3 -18t-1 -16l10 -43q2 -6 1 -24q-2 -18 2 -32q4 -12 8 -23t5 -18q0 -7 1 -11t4 -8q3 -5 5 -9t3 -15t5 -18t7 -12q4 -6 3 -16t-1 -17q10 -20 10 -24l-4 -25q0 -4 8 -13t9 -26t11 -31q10 -13 8 -24q-1 -10 0 -14t6 -12
t5 -25t-10 -35q0 -6 12 -15t15 -36q3 -28 18 -33q26 0 33 12q8 12 11 20t6 19q3 9 7 17l6 12t4 7t4 9t14 17q13 11 21 22q0 18 8 24q8 5 9 9q2 4 4 12t5 15t5 11q7 17 23 27t16 24v19q8 8 10 16q4 15 17 23v15q0 20 15 34t18 20l12 18q8 13 8 25q0 13 11 24q11 12 13 17
t6 10q12 14 13 28v10q6 6 24 33l2 10q2 2 8 7q5 5 10 25t13 24q8 5 10 7q33 27 86 13h19q29 -12 6 -72q0 -2 -15 -12q-14 -11 -20 -19q-11 -17 -15 -25q-3 -9 -9 -16q-9 -12 -9 -21t-11 -21q-11 -13 -13 -16t-3 -7q-2 -7 -6 -11t-7 -19q-4 -15 -19 -32q-20 -23 -20 -35
t-22 -41q-46 -60 -46 -71v-7q0 -9 -16 -30q-16 -20 -21 -29l-2 -12q-4 -6 -12 -15q-15 -16 -18 -29t-20 -32q-17 -18 -17 -28q-1 -11 -2 -15t-7 -9q-8 -7 -8 -15q0 -9 -24 -33l-25 -45q-6 -10 -15 -32t-13 -29t-11 -12q-8 -7 -13 -28t-12 -26q-8 -5 -21 -26t-30 -25
q-10 2 -14 0t-8 5t-5 9t-3 11q-3 9 -3 15t-10 17v33l-10 29q0 17 -7 27q-7 9 -7 12l-2 43q0 10 -6 25t-7 43q0 28 -15 58t-14 43t-1 17q0 4 -6 14t-4 20q1 11 0 14q-3 7 -9 13t-6 13l-2 43q0 4 -5 12t-4 17t-11 22q-4 16 -6 53t-11 38q-10 1 -18 -9t-8 -21q-7 -10 -19 -29
t-15 -25t-5 -14q-2 -9 -16 -24t-20 -30t-10 -19t-4 -9t-2 -9l-14 -23v-12q-4 -6 -13 -16t-11 -15q-2 -4 -4 -11q-1 -7 -3 -12q-15 -8 -20 -22q-2 -2 -2 -10t-25 -33l-2 -11q0 -8 -11 -10t-13 -6t-1 -15t-5 -23t-9 -20q-2 -9 -15 -22q-13 -14 -13 -24t-11 -21
q-10 -20 -18 -29q-8 -10 -9 -18t0 -17t-5 -15t-17 -28q-10 -21 -18 -24q-7 -4 -13 -9q-25 -23 -35 -12l-24 43q-6 11 -5 23t1 17l-10 18q-2 6 -1 20t0 19q-2 7 -10 21t-7 27t1 20l-12 16v39l-14 18q-2 6 -1 20t-11 30q-13 17 -13 42t-3 34q-20 59 -21 86q-2 32 -17 58
q-14 26 -14 38t-1 15t-3 7t-3 8t-2 12t-1 17t-6 18l2 27q-2 4 -14 16t-21 52q0 30 -6 39l-13 16v27q0 2 -2 32q6 34 62 29l18 2q6 -3 26 -21q26 -24 25 -51v-20q1 -17 11 -39t12 -30t1 -21q-1 -15 1 -21t7 -15q7 -13 7 -40q13 -39 13 -43l2 -22q0 -5 2 -9l10 -18v-10
q0 -6 6 -21q6 -14 7 -28q1 -16 7 -24q6 -9 6 -14t-1 -22t6 -25q12 -12 12 -29v-18z" />
    <glyph glyph-name="x" unicode="x" horiz-adv-x="1015" 
d="M139 -4l-37 8q-17 0 -20 16q-2 16 4 25l4 16q4 4 14 13t11 14l2 6q20 32 43 47q34 22 62 60q27 37 40 47q14 9 34 38q21 30 27 37t23 15q39 39 39 48t26 30q25 22 29 30t10 11q6 4 5 14q1 10 -21 35t-22 40q0 14 -16 27q-22 16 -25 28t-18 25q-21 18 -21 28t-20 40
q-20 29 -35 59q-14 30 -33 45q-48 39 -15 72q4 4 15 4q33 14 39 15l44 -17q6 0 16 -2q11 -2 23 -28q17 -35 34 -56t19 -33q4 -14 13 -25q9 -12 11 -24t19 -33t24 -41q6 -20 10 -26t20 -22t28 -14t22 14q20 22 40 22q20 10 26 39q5 28 15 41q9 13 19 25t26 38t40 49
q25 22 38 46q13 23 24 29q10 7 36 13t29 8q3 1 17 -1t23 -1q10 1 12 -3q17 -8 21 -31t-5 -33t-23 -20q-14 -9 -19 -15q-4 -6 -8 -14q-3 -8 -7 -11t-11 -8t-9 -10q-18 -14 -29 -31q-10 -18 -26 -30t-32 -39q-15 -27 -30 -34q-14 -7 -18 -11t-9 -13q-9 -15 -15 -18
q-6 -2 -25 -28q-19 -25 -25 -31q-4 -2 -12 -5q-7 -3 -13 -6t-11 -17t-9 -19q-4 -6 -4 -10q0 -5 12 -19t14 -22t14 -20t13 -19v-4q16 -25 22 -29q5 -4 10 -14t8 -14t5 -9q2 -6 5 -11t5 -9q4 -3 14 -11q16 -12 15 -24q0 -11 33 -54t41 -58t11 -17t10 -6q6 -3 10 -9t7 -19
t10 -31t1 -26q-6 -9 -30 -22t-60 8q-4 2 -17 2t-16 12l-6 18q-4 13 -21 13q-10 6 -18 21q-4 2 -2 21t-10 18q-2 4 -5 15t-18 20q-14 10 -17 15t-3 12t-2 9q-29 72 -62 105q-16 11 -16 39q-11 20 -23 20q-17 0 -32 -21q-16 -21 -33 -27t-21 -19q-4 -12 -14 -25t-26 -25
q-15 -11 -25 -25t-11 -19q-2 -9 -20 -25t-20 -28q-3 -16 -25 -27q-36 -36 -60 -66t-34 -37q-9 -6 -23 -6h-16z" />
    <glyph glyph-name="y" unicode="y" horiz-adv-x="1005" 
d="M567 401l11 21v4q2 4 10 13t12 23t6 17l39 64q1 15 19 33q26 26 28 42q3 17 7 26q3 10 13 24t10 22q1 8 6 16t12 17q12 14 12 20q0 5 2 9t10 11t14 13t6 43q6 17 28 33t44 22q6 0 21 -10h13q25 0 25 -24v-21l5 -16l-13 -23q-7 -11 -30 -39t-23 -38q0 -13 -14 -28t-26 -48
q-13 -33 -25 -47q-12 -15 -16 -25t-15 -24q-12 -14 -11 -21t-14 -30q-14 -22 -16 -31q-5 -18 -23 -37q0 -14 -13 -25t-13 -25t-19 -38t-49 -84l-2 -15q-4 -8 -17 -21q-22 -22 -22 -33q1 -11 -15 -27t-16 -21v-8q-5 -29 -20 -39q-16 -10 -18 -14t-3 -10q0 -5 -2 -9t-11 -16
q-9 -11 -11 -19t-1 -19t-3 -19q-5 -8 -17 -21q-12 -15 -15 -19t-3 -7t-2 -5l-12 -22q-2 -2 -2 -8v-7q-6 -10 -21 -27t-23 -33q-8 -17 -12 -20q0 -4 -8 -12v-25l-14 -26l-2 -10q0 -2 -20 -21t-34 -44q-14 -26 -23 -31q-9 -6 -18 -11q-10 -4 -16 -9t-10 -7t-9 -2h-10
q-21 -21 -50 -23t-50 14q-8 8 -10 31q-5 57 43 68q2 2 9 1t17 6q9 7 11 7l28 17q15 14 15 22t3 11l11 11t12 13q2 4 5 11q2 7 6 14q8 17 20 30t12 19t14 20t13 23q0 8 2 13t11 15q14 16 14 24v7q16 16 16 31q16 31 15 44t-7 25q-6 13 -6 29q0 21 -10 35t-9 35t-4 29
q-6 7 -7 11t0 12q1 10 -8 22t-9 33q0 22 -4 38q-10 18 -10 21v6l-21 45v28q-10 30 -10 42v24l-23 59q0 30 -7 40t-8 14t-3 16t-4 16t-7 16q-4 12 -6 15q-2 4 -2 11q0 6 -1 10t-7 12t-7 12t0 15t-5 21t-23 62q-8 39 15 62q22 22 45 16q4 0 15 -5t31 -8q19 -3 21 -9t4 -9t1 -7
v-8l12 -40q2 -8 0 -42t5 -48t10 -36t14 -36q10 -14 11 -49q2 -34 13 -45q2 -10 10 -45v-33q12 -12 14 -31q1 -19 3 -25t5 -10q5 -8 5 -46l10 -27q2 -6 3 -19t3 -20l11 -24v-21q2 -2 3 -5t4 -7t6 -17q3 -12 8 -20t20 8q14 20 26 34t11 25q-3 26 36 64q4 7 10 21t8 17t6 6
q5 5 5 14v8l16 27v5zM309 393q0 8 -6 10q-4 -6 -6 -8t0 -9t8 -5q4 4 4 12z" />
    <glyph glyph-name="z" unicode="z" horiz-adv-x="993" 
d="M279 756h-15q-41 18 -45 49q0 6 1 10t2 9t3 19q1 14 7 19t32 13q26 7 41 1q16 -6 41 -6q0 6 20 6l37 -10l21 4l22 -8l23 8q4 0 17 -3t37 3t57 0l22 -6l37 6q8 2 41 -4l14 4h23l22 -4l19 4l19 -4h9l60 13q4 1 13 -9t15 -10h12q9 0 21 -15t-7 -41q-19 -27 -19 -31
q0 -5 -7 -14t-35 -33q-33 -28 -39 -38t-14 -12t-13 -8t-22 -29q-26 -35 -42 -43q-17 -8 -31 -28q-14 -19 -14 -26q0 -8 -6 -14t-15 -14l-20 -16t-19 -15q-17 -34 -45 -53t-72 -74q-4 -2 -11 -5q-15 -6 -23 -31q-9 -24 -41 -44q-2 -2 -8 -3q-10 -2 -21 -24t-26 -34t-26 -27
q-11 -14 -15 -17t-10 -6q-18 -11 -21 -21t-11 -17q-8 -8 -7 -9t-1 -9q8 -12 17 -8q10 3 11 3h21l80 -2q73 2 79 -3q7 -5 12 -16q6 -11 10 -16q6 -6 7 -16q2 -10 9 -10q7 2 -6 22q-2 9 2 23t12 16q2 4 30 3t32 -1t28 4t46 -2q44 -12 73 3q39 3 47 -5t10 -28q4 -58 -24 -70
t-37 -12l-23 8h-28l-21 -4q-6 0 -18 3t-21 1l-28 -10l-23 10q-42 5 -89 -4q-52 12 -110 0l-16 4h-94l-21 -10q-4 2 -11 6t-16 8t-25 -4q-15 -8 -24 -10t-34 4q-48 12 -38 45q3 10 3 14l-6 27q2 12 20 24t22 18t10 19q10 19 29 30q19 10 23 18t8 13t20 19q14 15 20 21t10 11
t8 11t8 9t39 37t45 46t16 22l12 18q10 16 58 60q49 43 70 71q22 28 30 38q27 14 38 32q12 19 14 23t7 5q5 2 7 4q6 6 10 12t25 20q22 15 27 23q6 8 14 17q26 28 -3 57q-21 19 -40 0q-29 -6 -65 10l-15 -10q-49 -8 -64 4q-14 12 -20 12t-13 -8q-6 -8 -12 -10t-15 3t-13 5
l-27 -10l-33 14q-6 2 -16 -5t-13 -8t-44 -1z" />
    <glyph glyph-name="dieresis" unicode="&#xa8;" horiz-adv-x="569" 
d="M440 1128q0 -6 -4 -12t-7 -9t-10 -8t-25 -19t-27 -15q-9 -2 -29 12t-26 24t5 52v31q-6 27 -4 34q3 7 15 20q12 12 18 22t11 13t25 8t34 -1q41 -12 39 -51q0 -4 -4 -11l-5 -10t-1 -13t-1 -12t-8 -8t-7 -11t5 -18t6 -18zM208 1080q-18 -14 -29 -15q-11 -2 -29 12t-24 25
t5 51v31q-6 27 -4 34q3 7 15 19t18 21q6 10 10 14t24 8t35 0q41 -14 39 -51l-8 -21q-2 -4 -1 -14t-3 -12q0 -4 -6 -10t-8 -10q-2 -5 5 -16q7 -12 6 -18q-3 -21 -16 -27q-11 -7 -29 -21z" />
    <glyph glyph-name="Agrave" unicode="&#xc0;" 
d="M1169 301l-14 35v43l-10 20q-2 1 -1 11t0 13t-3 7t-6 22q-3 18 -15 24q-12 5 -22 4t-14 1t-11 8q-8 7 -13 7t-11 -4t-19 -11t-69 2l-39 -8q-11 0 -17 6h-31q-12 0 -18 -6h-29l-14 -4l-29 10q-18 2 -30 -2t-24 -1t-99 3l-19 6q-23 -8 -45 -4t-31 3t-14 1t-11 1
q-5 -1 -25 -9t-32 -12t-12 -16l-12 -24q-13 -24 -22 -36q-17 -21 -17 -31q-10 -10 -11 -28t-18 -38q-16 -19 -25 -37l-13 -26q0 -17 -21 -38q-2 -3 -4 -9t-4 -10t-11 -16q-13 -17 -17 -38q-4 -20 -12 -25q-9 -5 -19 -6t-15 -5q-4 -8 -3 -22q3 -38 -29 -56q-31 -19 -70 -6
q-4 2 -9 1q-6 -1 -10 -1q-28 0 -17 32t16 37t15 10t13 10q2 5 -2 14q-7 16 12 32t20 29q1 14 12 29q15 20 15 32q0 13 12 20t15 12q2 5 1 17t3 19t23 22q0 8 26 54q0 17 5 19t9 4q23 7 25 34q3 28 14 38q11 9 15 15l2 15q2 4 7 12t6 18t11 22t11 17q2 4 5 12q4 11 21 32
t20 35q2 14 11 22q16 13 16 26l13 23v7q0 9 11 21q11 13 14 19t7 20q3 14 5 18t28 31q26 26 27 45q2 19 5 24t8 13q5 7 9 15q3 8 11 19t8 21q0 9 2 12t8 10t15 21t21 23q13 8 16 12t1 14t1 15q2 5 12 15q12 12 16 32q3 19 10 22q22 11 20 24q-2 18 14 32t28 48q12 35 14 40
q2 4 11 11t13 18q3 12 6 18q3 7 16 17q19 15 19 25q-1 10 13 30t14 29q0 10 11 21t13 23q2 18 17 33l12 21q0 2 -1 10t10 15q12 8 14 11t6 8t8 8t10 3t14 -2t13 -3q26 -4 14 -58l-4 -21l17 -24v-33q0 -4 10 -14q2 -6 1 -20t-1 -17q0 -4 10 -21v-22q0 -5 3 -10t2 -11
q-2 -9 5 -16t7 -15v-10l16 -24q-2 -24 2 -33t3 -21t0 -16t5 -13q6 -14 6 -19v-7q2 -2 11 -14q2 -9 3 -29q2 -33 10 -47q9 -15 8 -27t0 -16t15 -31q0 -4 -1 -14t7 -22q10 -13 12 -37q1 -24 7 -40t6 -21v-40q12 -13 12 -31t3 -22l12 -18v-25l10 -18q2 -7 3 -23t3 -22t6 -16
q4 -9 4 -14v-19q0 -13 2 -19l13 -39q0 -4 -2 -14q-2 -9 -1 -15t7 -13q8 -9 8 -19v-10q14 -21 14 -33l2 -19q11 -11 11 -34t2 -25l12 -21q4 -4 3 -18t-1 -22t10 -17v-29q4 -8 11 -15t5 -21q-1 -13 1 -18t15 -25t11 -50q-3 -31 13 -53q2 -4 2 -20v-25q0 -25 -25 -33h-33
q-59 -3 -59 24v11q-2 6 -7 14q-5 9 -7 13t-1 10t-9 32t-11 35l4 37q-10 10 -10 19l-12 51q-11 22 -11 34v17zM836 1180v-11l-15 -24v-12q0 -18 -18 -32q-26 -21 -24 -32t-11 -24q-12 -13 -14 -18t-6 -19t-6 -18t-8 -11q-5 -6 -7 -13q-3 -11 -12 -20q-8 -8 -18 -33t-20 -39
q-11 -14 -23 -35t-30 -35q-17 -14 -16 -28q4 -34 -46 -94q-5 -6 -9 -12l-2 -13q0 -5 -11 -25t-10 -26q8 -18 25 -22l29 6q68 -4 79 -1t37 -2t37 -5l23 10q4 2 12 0t12 -2l18 2l19 -10l29 10q6 2 18 -1t25 -3l25 4h104l25 -4l16 4q2 0 9 -3t11 -1q27 12 19 39q-2 4 -6 9t-4 9
v14q0 14 -17 31q-2 6 -2 20t-3 20q-3 5 -7 9q-4 5 -4 9t1 19t-1 19t-17 21t-10 41q10 20 -2 36t-13 21q-1 3 2 15t1 18t-7 13q-8 11 -6 23q1 12 -7 28q-9 16 -9 22l-2 35l-8 14q-6 24 -6 49q-6 12 -6 23l-21 74q0 6 3 21t1 22q-31 69 -80 -27q-4 -9 -17 -23q-19 -22 -19 -32
zM950 1954q0 -4 5 -9t7 -9t11 -9q10 -4 14 -12q4 -9 10 -21q7 -12 13 -20t16 -17t14 -13t6 -10q2 -9 9 -14q8 -5 15 -16q8 -12 16 -15q20 -7 26 -18t21 -18q15 -6 22 -12q6 -7 4 -15t-5 -13t-8 -13t-11 -19q-7 -11 -9 -13t-9 2q-7 3 -9 3l-27 -4q-32 8 -45 21l-21 21
q-7 7 -15 10q-10 4 -35 42q-5 5 -19 13t-18 12q-2 4 -5 13t-7 13t-11 10q-8 5 -10 8t-12 13q-11 9 -13 13q-8 11 -13 16q-5 4 -13 18q-8 13 -27 27t-1 25q5 2 9 4t17 8t10 14q0 2 3 4t21 20t23 7q5 -12 23 -14q28 -3 28 -33z" />
    <glyph glyph-name="Aacute" unicode="&#xc1;" 
d="M1169 301l-14 35v43l-10 20q-2 1 -1 11t0 13t-3 7t-6 22q-3 18 -15 24q-12 5 -22 4t-14 1t-11 8q-8 7 -13 7t-11 -4t-19 -11t-69 2l-39 -8q-11 0 -17 6h-31q-12 0 -18 -6h-29l-14 -4l-29 10q-18 2 -30 -2t-24 -1t-99 3l-19 6q-23 -8 -45 -4t-31 3t-14 1t-11 1
q-5 -1 -25 -9t-32 -12t-12 -16l-12 -24q-13 -24 -22 -36q-17 -21 -17 -31q-10 -10 -11 -28t-18 -38q-16 -19 -25 -37l-13 -26q0 -17 -21 -38q-2 -3 -4 -9t-4 -10t-11 -16q-13 -17 -17 -38q-4 -20 -12 -25q-9 -5 -19 -6t-15 -5q-4 -8 -3 -22q3 -38 -29 -56q-31 -19 -70 -6
q-4 2 -9 1q-6 -1 -10 -1q-28 0 -17 32t16 37t15 10t13 10q2 5 -2 14q-7 16 12 32t20 29q1 14 12 29q15 20 15 32q0 13 12 20t15 12q2 5 1 17t3 19t23 22q0 8 26 54q0 17 5 19t9 4q23 7 25 34q3 28 14 38q11 9 15 15l2 15q2 4 7 12t6 18t11 22t11 17q2 4 5 12q4 11 21 32
t20 35q2 14 11 22q16 13 16 26l13 23v7q0 9 11 21q11 13 14 19t7 20q3 14 5 18t28 31q26 26 27 45q2 19 5 24t8 13q5 7 9 15q3 8 11 19t8 21q0 9 2 12t8 10t15 21t21 23q13 8 16 12t1 14t1 15q2 5 12 15q12 12 16 32q3 19 10 22q22 11 20 24q-2 18 14 32t28 48q12 35 14 40
q2 4 11 11t13 18q3 12 6 18q3 7 16 17q19 15 19 25q-1 10 13 30t14 29q0 10 11 21t13 23q2 18 17 33l12 21q0 2 -1 10t10 15q12 8 14 11t6 8t8 8t10 3t14 -2t13 -3q26 -4 14 -58l-4 -21l17 -24v-33q0 -4 10 -14q2 -6 1 -20t-1 -17q0 -4 10 -21v-22q0 -5 3 -10t2 -11
q-2 -9 5 -16t7 -15v-10l16 -24q-2 -24 2 -33t3 -21t0 -16t5 -13q6 -14 6 -19v-7q2 -2 11 -14q2 -9 3 -29q2 -33 10 -47q9 -15 8 -27t0 -16t15 -31q0 -4 -1 -14t7 -22q10 -13 12 -37q1 -24 7 -40t6 -21v-40q12 -13 12 -31t3 -22l12 -18v-25l10 -18q2 -7 3 -23t3 -22t6 -16
q4 -9 4 -14v-19q0 -13 2 -19l13 -39q0 -4 -2 -14q-2 -9 -1 -15t7 -13q8 -9 8 -19v-10q14 -21 14 -33l2 -19q11 -11 11 -34t2 -25l12 -21q4 -4 3 -18t-1 -22t10 -17v-29q4 -8 11 -15t5 -21q-1 -13 1 -18t15 -25t11 -50q-3 -31 13 -53q2 -4 2 -20v-25q0 -25 -25 -33h-33
q-59 -3 -59 24v11q-2 6 -7 14q-5 9 -7 13t-1 10t-9 32t-11 35l4 37q-10 10 -10 19l-12 51q-11 22 -11 34v17zM836 1180v-11l-15 -24v-12q0 -18 -18 -32q-26 -21 -24 -32t-11 -24q-12 -13 -14 -18t-6 -19t-6 -18t-8 -11q-5 -6 -7 -13q-3 -11 -12 -20q-8 -8 -18 -33t-20 -39
q-11 -14 -23 -35t-30 -35q-17 -14 -16 -28q4 -34 -46 -94q-5 -6 -9 -12l-2 -13q0 -5 -11 -25t-10 -26q8 -18 25 -22l29 6q68 -4 79 -1t37 -2t37 -5l23 10q4 2 12 0t12 -2l18 2l19 -10l29 10q6 2 18 -1t25 -3l25 4h104l25 -4l16 4q2 0 9 -3t11 -1q27 12 19 39q-2 4 -6 9t-4 9
v14q0 14 -17 31q-2 6 -2 20t-3 20q-3 5 -7 9q-4 5 -4 9t1 19t-1 19t-17 21t-10 41q10 20 -2 36t-13 21q-1 3 2 15t1 18t-7 13q-8 11 -6 23q1 12 -7 28q-9 16 -9 22l-2 35l-8 14q-6 24 -6 49q-6 12 -6 23l-21 74q0 6 3 21t1 22q-31 69 -80 -27q-4 -9 -17 -23q-19 -22 -19 -32
zM1148 1947q20 -7 23 -15q2 -8 -12 -20q-14 -10 -17 -16l-10 -15t-13 -15t-9 -10t-5 -8l-6 -6t-6 -7q-4 -6 -18 -16t-16 -23q-3 -13 -20 -21q-17 -9 -22 -15t-13 -18q-8 -10 -12 -16t-12 -9q-7 -3 -9 -5t-5 -6q-4 -4 -14 -11q-11 -7 -18 -14q-8 -7 -19 -11q-10 -3 -16 -5
l-27 4l-18 -4q-2 0 -8 13t-15 25q-22 30 5 41q6 3 13 6q13 5 25 24q4 4 14 8t12 6q8 5 11 13t8 10q5 3 8 5t5 5q2 2 4 9q3 12 22 27q18 15 25 30q6 15 10 23q5 8 15 13q10 4 12 10l10 17q0 14 5 22t23 10t22 11q4 8 12 6t19 -15q11 -12 14 -13t3 -9t20 -15z" />
    <glyph glyph-name="Acircumflex" unicode="&#xc2;" 
d="M1169 301l-14 35v43l-10 20q-2 1 -1 11t0 13t-3 7t-6 22q-3 18 -15 24q-12 5 -22 4t-14 1t-11 8q-8 7 -13 7t-11 -4t-19 -11t-69 2l-39 -8q-11 0 -17 6h-31q-12 0 -18 -6h-29l-14 -4l-29 10q-18 2 -30 -2t-24 -1t-99 3l-19 6q-23 -8 -45 -4t-31 3t-14 1t-11 1
q-5 -1 -25 -9t-32 -12t-12 -16l-12 -24q-13 -24 -22 -36q-17 -21 -17 -31q-10 -10 -11 -28t-18 -38q-16 -19 -25 -37l-13 -26q0 -17 -21 -38q-2 -3 -4 -9t-4 -10t-11 -16q-13 -17 -17 -38q-4 -20 -12 -25q-9 -5 -19 -6t-15 -5q-4 -8 -3 -22q3 -38 -29 -56q-31 -19 -70 -6
q-4 2 -9 1q-6 -1 -10 -1q-28 0 -17 32t16 37t15 10t13 10q2 5 -2 14q-7 16 12 32t20 29q1 14 12 29q15 20 15 32q0 13 12 20t15 12q2 5 1 17t3 19t23 22q0 8 26 54q0 17 5 19t9 4q23 7 25 34q3 28 14 38q11 9 15 15l2 15q2 4 7 12t6 18t11 22t11 17q2 4 5 12q4 11 21 32
t20 35q2 14 11 22q16 13 16 26l13 23v7q0 9 11 21q11 13 14 19t7 20q3 14 5 18t28 31q26 26 27 45q2 19 5 24t8 13q5 7 9 15q3 8 11 19t8 21q0 9 2 12t8 10t15 21t21 23q13 8 16 12t1 14t1 15q2 5 12 15q12 12 16 32q3 19 10 22q22 11 20 24q-2 18 14 32t28 48q12 35 14 40
q2 4 11 11t13 18q3 12 6 18q3 7 16 17q19 15 19 25q-1 10 13 30t14 29q0 10 11 21t13 23q2 18 17 33l12 21q0 2 -1 10t10 15q12 8 14 11t6 8t8 8t10 3t14 -2t13 -3q26 -4 14 -58l-4 -21l17 -24v-33q0 -4 10 -14q2 -6 1 -20t-1 -17q0 -4 10 -21v-22q0 -5 3 -10t2 -11
q-2 -9 5 -16t7 -15v-10l16 -24q-2 -24 2 -33t3 -21t0 -16t5 -13q6 -14 6 -19v-7q2 -2 11 -14q2 -9 3 -29q2 -33 10 -47q9 -15 8 -27t0 -16t15 -31q0 -4 -1 -14t7 -22q10 -13 12 -37q1 -24 7 -40t6 -21v-40q12 -13 12 -31t3 -22l12 -18v-25l10 -18q2 -7 3 -23t3 -22t6 -16
q4 -9 4 -14v-19q0 -13 2 -19l13 -39q0 -4 -2 -14q-2 -9 -1 -15t7 -13q8 -9 8 -19v-10q14 -21 14 -33l2 -19q11 -11 11 -34t2 -25l12 -21q4 -4 3 -18t-1 -22t10 -17v-29q4 -8 11 -15t5 -21q-1 -13 1 -18t15 -25t11 -50q-3 -31 13 -53q2 -4 2 -20v-25q0 -25 -25 -33h-33
q-59 -3 -59 24v11q-2 6 -7 14q-5 9 -7 13t-1 10t-9 32t-11 35l4 37q-10 10 -10 19l-12 51q-11 22 -11 34v17zM836 1180v-11l-15 -24v-12q0 -18 -18 -32q-26 -21 -24 -32t-11 -24q-12 -13 -14 -18t-6 -19t-6 -18t-8 -11q-5 -6 -7 -13q-3 -11 -12 -20q-8 -8 -18 -33t-20 -39
q-11 -14 -23 -35t-30 -35q-17 -14 -16 -28q4 -34 -46 -94q-5 -6 -9 -12l-2 -13q0 -5 -11 -25t-10 -26q8 -18 25 -22l29 6q68 -4 79 -1t37 -2t37 -5l23 10q4 2 12 0t12 -2l18 2l19 -10l29 10q6 2 18 -1t25 -3l25 4h104l25 -4l16 4q2 0 9 -3t11 -1q27 12 19 39q-2 4 -6 9t-4 9
v14q0 14 -17 31q-2 6 -2 20t-3 20q-3 5 -7 9q-4 5 -4 9t1 19t-1 19t-17 21t-10 41q10 20 -2 36t-13 21q-1 3 2 15t1 18t-7 13q-8 11 -6 23q1 12 -7 28q-9 16 -9 22l-2 35l-8 14q-6 24 -6 49q-6 12 -6 23l-21 74q0 6 3 21t1 22q-31 69 -80 -27q-4 -9 -17 -23q-19 -22 -19 -32
zM1029 1786q-1 4 -1 10t-14 22t-21 17q-8 0 -35 -29q-2 -4 -6 -15t-21 -21q-17 -9 -24 -15q-23 -34 -31 -38q-8 -3 -11 -5l-6 -4t-6 -6t-29 -22t-40 -19l-26 4l-13 -4h-6q-2 0 -7 11q-5 12 -10 20t-10 20t2 20q7 7 21 12q18 6 24 16t19 16l16 8t5 5q2 3 4 5t4 5t4 5t8 6t8 6
t4 10q2 7 13 14t21 21q11 13 18 21q8 16 14 29q4 4 14 8q11 4 13 8t7 9q5 4 5 14t6 18t35 12l31 15q6 0 10 -6t12 -9q29 -2 34 -11t4 -19t9 -21q1 -9 11 -12q10 -4 18 -9t5 -12q-3 -6 1 -18t19 -24q14 -13 17 -17q4 -5 6 -12t7 -11q6 -4 13 -15q11 -16 23 -21t17 -14
q4 -9 19 -16t22 -13q6 -5 3 -15t-5 -15t-9 -13t-13 -18t-8 -13l-19 4q-2 0 -11 -2t-19 0t-14 5q-5 3 -9 5t-8 5t-7 6q-4 2 -8 6t-7 6t-6 7q-5 8 -16 13t-19 20q-9 15 -13 20t-17 12q-12 6 -16 10t-5 8z" />
    <glyph glyph-name="Adieresis" unicode="&#xc4;" 
d="M1169 301l-14 35v43l-10 20q-2 1 -1 11t0 13t-3 7t-6 22q-3 18 -15 24q-12 5 -22 4t-14 1t-11 8q-8 7 -13 7t-11 -4t-19 -11t-69 2l-39 -8q-11 0 -17 6h-31q-12 0 -18 -6h-29l-14 -4l-29 10q-18 2 -30 -2t-24 -1t-99 3l-19 6q-23 -8 -45 -4t-31 3t-14 1t-11 1
q-5 -1 -25 -9t-32 -12t-12 -16l-12 -24q-13 -24 -22 -36q-17 -21 -17 -31q-10 -10 -11 -28t-18 -38q-16 -19 -25 -37l-13 -26q0 -17 -21 -38q-2 -3 -4 -9t-4 -10t-11 -16q-13 -17 -17 -38q-4 -20 -12 -25q-9 -5 -19 -6t-15 -5q-4 -8 -3 -22q3 -38 -29 -56q-31 -19 -70 -6
q-4 2 -9 1q-6 -1 -10 -1q-28 0 -17 32t16 37t15 10t13 10q2 5 -2 14q-7 16 12 32t20 29q1 14 12 29q15 20 15 32q0 13 12 20t15 12q2 5 1 17t3 19t23 22q0 8 26 54q0 17 5 19t9 4q23 7 25 34q3 28 14 38q11 9 15 15l2 15q2 4 7 12t6 18t11 22t11 17q2 4 5 12q4 11 21 32
t20 35q2 14 11 22q16 13 16 26l13 23v7q0 9 11 21q11 13 14 19t7 20q3 14 5 18t28 31q26 26 27 45q2 19 5 24t8 13q5 7 9 15q3 8 11 19t8 21q0 9 2 12t8 10t15 21t21 23q13 8 16 12t1 14t1 15q2 5 12 15q12 12 16 32q3 19 10 22q22 11 20 24q-2 18 14 32t28 48q12 35 14 40
q2 4 11 11t13 18q3 12 6 18q3 7 16 17q19 15 19 25q-1 10 13 30t14 29q0 10 11 21t13 23q2 18 17 33l12 21q0 2 -1 10t10 15q12 8 14 11t6 8t8 8t10 3t14 -2t13 -3q26 -4 14 -58l-4 -21l17 -24v-33q0 -4 10 -14q2 -6 1 -20t-1 -17q0 -4 10 -21v-22q0 -5 3 -10t2 -11
q-2 -9 5 -16t7 -15v-10l16 -24q-2 -24 2 -33t3 -21t0 -16t5 -13q6 -14 6 -19v-7q2 -2 11 -14q2 -9 3 -29q2 -33 10 -47q9 -15 8 -27t0 -16t15 -31q0 -4 -1 -14t7 -22q10 -13 12 -37q1 -24 7 -40t6 -21v-40q12 -13 12 -31t3 -22l12 -18v-25l10 -18q2 -7 3 -23t3 -22t6 -16
q4 -9 4 -14v-19q0 -13 2 -19l13 -39q0 -4 -2 -14q-2 -9 -1 -15t7 -13q8 -9 8 -19v-10q14 -21 14 -33l2 -19q11 -11 11 -34t2 -25l12 -21q4 -4 3 -18t-1 -22t10 -17v-29q4 -8 11 -15t5 -21q-1 -13 1 -18t15 -25t11 -50q-3 -31 13 -53q2 -4 2 -20v-25q0 -25 -25 -33h-33
q-59 -3 -59 24v11q-2 6 -7 14q-5 9 -7 13t-1 10t-9 32t-11 35l4 37q-10 10 -10 19l-12 51q-11 22 -11 34v17zM836 1180v-11l-15 -24v-12q0 -18 -18 -32q-26 -21 -24 -32t-11 -24q-12 -13 -14 -18t-6 -19t-6 -18t-8 -11q-5 -6 -7 -13q-3 -11 -12 -20q-8 -8 -18 -33t-20 -39
q-11 -14 -23 -35t-30 -35q-17 -14 -16 -28q4 -34 -46 -94q-5 -6 -9 -12l-2 -13q0 -5 -11 -25t-10 -26q8 -18 25 -22l29 6q68 -4 79 -1t37 -2t37 -5l23 10q4 2 12 0t12 -2l18 2l19 -10l29 10q6 2 18 -1t25 -3l25 4h104l25 -4l16 4q2 0 9 -3t11 -1q27 12 19 39q-2 4 -6 9t-4 9
v14q0 14 -17 31q-2 6 -2 20t-3 20q-3 5 -7 9q-4 5 -4 9t1 19t-1 19t-17 21t-10 41q10 20 -2 36t-13 21q-1 3 2 15t1 18t-7 13q-8 11 -6 23q1 12 -7 28q-9 16 -9 22l-2 35l-8 14q-6 24 -6 49q-6 12 -6 23l-21 74q0 6 3 21t1 22q-31 69 -80 -27q-4 -9 -17 -23q-19 -22 -19 -32
zM1153 1795q0 -12 -8 -18q-8 -7 -9 -13t5 -18q6 -11 6 -17t-3 -13t-15 -15q-11 -7 -27 -21t-28 -15q-11 -2 -29 12q-17 15 -23 23t-2 37l6 16v31q-6 29 -5 36l29 37q3 5 15 17q31 15 57 8q43 -14 39 -53l-8 -21v-13zM967 1794q-1 -13 -9 -20q-14 -11 -2 -32q12 -22 -17 -43
q-7 -5 -23 -19t-28 -15q-11 -2 -31 12q-19 15 -23 23t0 37l6 16l-6 64q2 8 14 20q12 11 18 21t12 14t24 8q20 4 34 0q41 -12 39 -51l-8 -21v-14z" />
    <glyph glyph-name="Ccedilla" unicode="&#xc7;" horiz-adv-x="1560" 
d="M1225 1458q0 4 -8 13q-9 9 -11 -1t4 -12l7 -2q2 0 8 2zM782 -237l11 26v2l4 12q2 3 1 13t-1 14q9 9 4 27l-6 28v2q0 2 -2 4l-11 19v6l-16 14h-6l-12 11h-10l-9 4q0 2 -2 2t-8 2t-1 8q19 23 11 35q-6 2 -14 -2t-19 -4l-24 10q-8 0 -38 -1t-37 1t-16 8t-13 7t-11 1
q-10 0 -17 7t-17 5q-11 -1 -14 0q-9 3 -12 6t-23 7q-19 3 -28 15q-9 11 -25 17q-22 9 -36 26q-15 17 -22 19q-7 1 -10 2t-8 2q-24 5 -35 30q-4 7 -26 30t-35 39q-13 17 -23 25t-12 13q-3 5 -6 16q-4 14 -8 21q-5 7 -5 10v8q0 9 -16 17q-11 5 -15 9q-2 4 -3 18t-24 47l-2 17
q-14 14 -14 26v66q-10 10 -10 14l-2 33l-9 16q0 4 6 17t0 28t-6 20t6 16t1 22q-5 12 -3 16l11 25q0 4 -4 16t0 29l14 26q2 6 -4 23t10 33q2 8 3 28t10 42q10 22 12 28t3 18t8 24q7 11 9 24q3 19 9 27q6 9 4 19q-1 11 11 21t14 16q1 5 2 8t1 5l25 35v7q0 8 8 14t8 14v12
q2 0 14 18t13 24q0 5 2 8t5 7t7 7t12 11t12 17q5 15 18 17t17 18t8 19t19 8q14 5 24 19q11 13 20 19t11 10t5 13q5 14 17 14q12 -1 36 21q35 32 43 32t25 10q26 16 37 25q10 8 18 8h10q6 3 15 13q8 10 14 12t14 1t12 1t11 7t11 6t15 3q10 2 20 10t23 9q6 4 26 2t27 0l35 8
q4 2 12 1t19 3q12 4 25 3t20 -1l20 6l25 -6h98q4 0 10 -4q7 -4 13 -6t22 -3t22 -2t18 -7q20 -11 36 -5q17 6 26 -7t48 -33h12q18 0 38 -18t36 -25q16 -9 21 -13t13 -11t15 -12q6 -5 14 -11t24 -22t23 -27q6 -11 12 -20t5 -31q0 -22 -5 -33q-5 -9 -34 -21t-35 -3t-6 16
q0 14 -18 14h-11q-12 2 -23 13t-12 25q2 14 2 17q-4 8 -12 8q-11 0 -24 16q-12 16 -21 15l-22 10h-8q-8 1 -22 15t-25 14t-14 1t-8 7q-10 13 -28 5t-27 8q-10 17 -15 19t-20 2q-15 -1 -20 -1q-6 6 -11 6t-13 -1t-24 3t-23 1t-10 -5t-7 -3t-14 5q-9 6 -17 5t-19 -8t-23 -8
t-66 11q-4 -2 -13 -10q-15 -13 -27 -12t-21 -5t-20 -11t-17 -12q-7 -7 -12 -9t-21 -4q-16 -1 -17 -3l-18 -8q-10 0 -24 -11q-21 -16 -30 -17q-8 -1 -11 -5t-11 -8t-29 -16q-2 -2 -4 -8t-5 -10t-9 -5q-6 -2 -9 -4t-9 -10q-7 -8 -11 -10l-18 -9t-22 -23q-7 -15 -11 -19t-13 -9
q-9 -4 -13 -6q-5 -6 -9 -15q-4 -10 -9 -16t-21 -20t-20 -20t-6 -8q-1 -3 -2 -7q0 -3 -14 -19t-18 -20q-20 -20 -20 -33v-14q-4 -6 -14 -14q-14 -11 -13 -28q0 -16 -13 -33t-12 -35q2 -18 -7 -29q-9 -12 -10 -18t0 -18q1 -19 -10 -37t-10 -34t-9 -48q-11 -33 -14 -53t1 -79
l4 -14l-4 -39l6 -19q0 -2 -1 -10t0 -12t5 -10q7 -11 6 -26t4 -22q5 -8 6 -11t1 -9t1 -9t6 -10q9 -13 7 -32t26 -56q26 -36 32 -42t9 -15q3 -8 6 -12t8 -9q5 -4 10 -10t8 -9t7 -10q7 -11 17 -12q9 -2 12 -14t27 -22q24 -11 47 -33q21 -22 27 -24t15 -2h13q2 -2 6 -4t8 -3
q4 -2 7 -3q4 -1 6 -3q15 -14 29 -14h12l20 -10h27l59 -15h111q23 0 41 8t30 8q12 -1 16 0q5 1 12 5q6 4 10 5t11 0t11 1l27 14q9 0 16 11q8 4 33 12t37 16l16 15h8l17 10q23 0 29 8q5 8 7 12t11 10q10 5 13 9t7 9t7 10q6 10 20 13q14 2 18 7q8 16 19 26q16 14 21 24
q12 27 61 0q17 -11 19 -23q4 -18 20 -33q16 -14 -7 -39q-22 -33 -40 -38q-19 -4 -24 -10t-19 -21q-40 -45 -95 -63q-28 -28 -45 -28q-4 -2 -16 -14t-33 -11q-21 0 -31 -3t-28 -17t-29 -19h-25l-22 -6q-6 6 -16 6t-26 -9q-18 -9 -30 -11q-14 -2 -26 1t-27 3t-27 -24
q-3 -5 2 -5h8l21 -24q1 -5 11 -17t10 -22l4 -10v-5q0 -8 6 -14v-18l2 -9l-4 -12v-33l-4 -8v-3q-2 -10 -7 -13v-7l-4 -10v-3l-4 -11q0 -4 -1 -5t-10 -13t-11 -18q-4 -10 -15 -17q-12 -14 -12 -17q-8 0 -14 -6l-21 -12q-2 -2 -4 -2h-2q-23 -8 -26 -8h-4l-13 -4h-41q-8 0 -12 4
l-25 4q-6 6 -9 6t-3 2l-16 8l-6 8l-9 9l-4 2q-8 8 -8 12l-2 4q-13 13 3 23t24 8t10 -8t8 -15q8 -6 13 -8t16 -14l35 -4h14l12 -2l22 10h3q2 0 4 2l20 14q43 27 43 52z" />
    <glyph glyph-name="Egrave" unicode="&#xc8;" horiz-adv-x="1198" 
d="M494 104l249 2q9 9 16 9t13 -4t23 -11t37 6t28 15q62 -18 64 -49q0 -7 -15 -27v-11q0 -11 -7 -18t-30 7q-2 -1 -7 -9q-8 -12 -22 -12h-12l-24 -8q-9 -2 -21 3q-18 7 -51 5l-24 2q-7 2 -17 -2t-15 -4l-30 10q-6 2 -18 -3t-17 -5l-18 4l-45 -4l-16 4q-46 -15 -59 -9l-17 9
q-10 2 -35 0l-29 -10q-34 -2 -50 5t-37 5q-20 -2 -39 4l-21 -4q-6 0 -31 1t-28 -1q-15 -10 -23 -10l-29 10h-25q-19 0 -28 19q-2 1 -2 37t6 46t8 26q3 16 9 24t5 30t-1 27l6 23l-6 22q16 16 11 27q-5 10 -5 15l14 40q2 2 2 14v15l4 14v35q17 34 17 54t-1 36q-1 18 1 24t6 15
q4 8 4 12l2 33q14 35 14 72v45q2 4 7 13t4 27q-1 19 1 23q0 4 4 9t6 9q3 4 5 9q2 4 1 18t-1 19l10 49q2 4 1 16q-1 11 0 17t8 15t7 15v62l11 20q2 2 1 16t-1 21q0 32 9 48t9 69l-2 37q0 4 4 8q6 6 6 14v6l11 25v20q0 10 6 17v59l10 16v52l4 15v12q1 16 13 22t12 31
q0 38 53 38q3 7 47 -2l79 4q34 -2 46 -8l39 6q25 2 74 0t73 -2l30 13q10 0 32 -13l41 7q13 0 22 -7q10 0 74 5l29 -5l32 9q2 2 6 1q3 -1 7 -1t26 8q22 7 50 -13q51 -37 22 -75q-29 -39 -50 -32q-21 6 -38 -11q-6 -2 -23 0l-32 14q-2 2 -45 2l-37 -6q-3 0 -11 3t-12 2t-11 -6
t-13 -5l-43 10q-10 4 -46 2t-47 3q-12 5 -17 6t-10 -3t-9 -8t-12 -5t-17 5q-10 6 -15 6l-32 -12q-6 -2 -14 2t-15 4l-26 -10l-23 10q-8 2 -42 -3t-42 -13l-2 -13q-10 -10 -10 -24v-51q-2 -6 -8 -16t-8 -20q-3 -9 -6 -32t-5 -29t-1 -23q1 -18 0 -26t-6 -27t-7 -25t-1 -19
q2 -21 -12 -39q0 -8 1 -33t-1 -32t-8 -15t-8 -15v-57q0 -4 -10 -26t-2 -42q4 -8 30 -8h52l30 6h54q117 -6 159 5l27 -5q10 -2 57 0l37 11l33 -11h55q49 29 78 -13q22 -30 4 -53q-5 -6 -12 -24q-6 -6 -31 -16l-12 -8q-12 -6 -60 -2l-20 10q-16 2 -26 -4q-11 -6 -17 -4l-33 10
l-26 -6l-29 6l-35 -8l-37 8l-37 -12l-41 10l-28 -4q-25 -6 -39 0q-15 6 -28 2q-14 -5 -43 3q-48 13 -70 -9q-12 -6 -14 -14t-5 -40q-2 -35 -14 -59v-29q0 -4 -10 -14v-33l-5 -16v-16q0 -12 -2 -15l-10 -20l6 -25q0 -16 -6 -22v-33q0 -9 -10 -29v-37q-5 -26 -11 -43
q-5 -18 -3 -55l-11 -31q-2 -4 -2 -12v-10l-4 -15v-38q0 -32 5 -40t83 -8q41 6 61 2t36 -2q14 14 30 10q15 -5 26 -4t17 1zM354 813q-12 -6 -7 -13t16 -2t4 15h-13zM563 1965q0 5 3 7l14 14t20 14q8 3 12 -5t11 -10q29 -2 32 -11q8 -8 7 -24q12 -21 22 -25q11 -4 23 -30
q13 -26 26 -38t17 -16t5 -7t4 -9t9 -9q7 -3 11 -12q4 -8 14 -16q17 0 25 -14q9 -14 13 -17q3 -2 17 -8q32 -14 14 -45q-18 -30 -24 -39l-19 4l-26 -2q-17 -1 -36 15q-20 16 -23 18t-5 4t-4 5q-5 8 -23 15q-4 4 -7 8t-6 9q-3 4 -7 9t-6 9q-6 5 -20 13t-17 12q-2 4 -6 17
t-14 19q-11 7 -17 13q-18 18 -20 22q-2 5 -10 11t-16 20q-10 14 -24 26t-12 19q2 8 19 15q16 6 20 10t4 9z" />
    <glyph glyph-name="Eacute" unicode="&#xc9;" horiz-adv-x="1198" 
d="M494 104l249 2q9 9 16 9t13 -4t23 -11t37 6t28 15q62 -18 64 -49q0 -7 -15 -27v-11q0 -11 -7 -18t-30 7q-2 -1 -7 -9q-8 -12 -22 -12h-12l-24 -8q-9 -2 -21 3q-18 7 -51 5l-24 2q-7 2 -17 -2t-15 -4l-30 10q-6 2 -18 -3t-17 -5l-18 4l-45 -4l-16 4q-46 -15 -59 -9l-17 9
q-10 2 -35 0l-29 -10q-34 -2 -50 5t-37 5q-20 -2 -39 4l-21 -4q-6 0 -31 1t-28 -1q-15 -10 -23 -10l-29 10h-25q-19 0 -28 19q-2 1 -2 37t6 46t8 26q3 16 9 24t5 30t-1 27l6 23l-6 22q16 16 11 27q-5 10 -5 15l14 40q2 2 2 14v15l4 14v35q17 34 17 54t-1 36q-1 18 1 24t6 15
q4 8 4 12l2 33q14 35 14 72v45q2 4 7 13t4 27q-1 19 1 23q0 4 4 9t6 9q3 4 5 9q2 4 1 18t-1 19l10 49q2 4 1 16q-1 11 0 17t8 15t7 15v62l11 20q2 2 1 16t-1 21q0 32 9 48t9 69l-2 37q0 4 4 8q6 6 6 14v6l11 25v20q0 10 6 17v59l10 16v52l4 15v12q1 16 13 22t12 31
q0 38 53 38q3 7 47 -2l79 4q34 -2 46 -8l39 6q25 2 74 0t73 -2l30 13q10 0 32 -13l41 7q13 0 22 -7q10 0 74 5l29 -5l32 9q2 2 6 1q3 -1 7 -1t26 8q22 7 50 -13q51 -37 22 -75q-29 -39 -50 -32q-21 6 -38 -11q-6 -2 -23 0l-32 14q-2 2 -45 2l-37 -6q-3 0 -11 3t-12 2t-11 -6
t-13 -5l-43 10q-10 4 -46 2t-47 3q-12 5 -17 6t-10 -3t-9 -8t-12 -5t-17 5q-10 6 -15 6l-32 -12q-6 -2 -14 2t-15 4l-26 -10l-23 10q-8 2 -42 -3t-42 -13l-2 -13q-10 -10 -10 -24v-51q-2 -6 -8 -16t-8 -20q-3 -9 -6 -32t-5 -29t-1 -23q1 -18 0 -26t-6 -27t-7 -25t-1 -19
q2 -21 -12 -39q0 -8 1 -33t-1 -32t-8 -15t-8 -15v-57q0 -4 -10 -26t-2 -42q4 -8 30 -8h52l30 6h54q117 -6 159 5l27 -5q10 -2 57 0l37 11l33 -11h55q49 29 78 -13q22 -30 4 -53q-5 -6 -12 -24q-6 -6 -31 -16l-12 -8q-12 -6 -60 -2l-20 10q-16 2 -26 -4q-11 -6 -17 -4l-33 10
l-26 -6l-29 6l-35 -8l-37 8l-37 -12l-41 10l-28 -4q-25 -6 -39 0q-15 6 -28 2q-14 -5 -43 3q-48 13 -70 -9q-12 -6 -14 -14t-5 -40q-2 -35 -14 -59v-29q0 -4 -10 -14v-33l-5 -16v-16q0 -12 -2 -15l-10 -20l6 -25q0 -16 -6 -22v-33q0 -9 -10 -29v-37q-5 -26 -11 -43
q-5 -18 -3 -55l-11 -31q-2 -4 -2 -12v-10l-4 -15v-38q0 -32 5 -40t83 -8q41 6 61 2t36 -2q14 14 30 10q15 -5 26 -4t17 1zM754 1950q0 10 5 18t34 10q8 2 12 14t23 -6l22 -22q2 0 2 -7t20 -15q36 -15 11 -36q-14 -11 -24 -26q-9 -14 -16 -20t-9 -10t-11 -13q-9 -8 -12 -14
q-25 -13 -29 -29q-3 -17 -23 -28t-29 -25t-14 -19t-12 -9q-8 -3 -10 -5t-5 -7t-10 -8t-11 -9q-4 -5 -10 -8t-9 -5q-26 -13 -37 -10q-12 2 -16 2l-18 -4q0 2 -11 20q-17 17 -21 32q-3 15 2 21t19 11q20 9 26 17q6 9 16 15q11 7 15 9t6 5q3 3 5 7t4 7t8 6t8 7t4 9q3 9 19 22
t25 32q10 19 14 27t9 10q5 3 10 5t7 5t7 9q4 5 4 15z" />
    <glyph glyph-name="Ecircumflex" unicode="&#xca;" horiz-adv-x="1198" 
d="M494 104l249 2q9 9 16 9t13 -4t23 -11t37 6t28 15q62 -18 64 -49q0 -7 -15 -27v-11q0 -11 -7 -18t-30 7q-2 -1 -7 -9q-8 -12 -22 -12h-12l-24 -8q-9 -2 -21 3q-18 7 -51 5l-24 2q-7 2 -17 -2t-15 -4l-30 10q-6 2 -18 -3t-17 -5l-18 4l-45 -4l-16 4q-46 -15 -59 -9l-17 9
q-10 2 -35 0l-29 -10q-34 -2 -50 5t-37 5q-20 -2 -39 4l-21 -4q-6 0 -31 1t-28 -1q-15 -10 -23 -10l-29 10h-25q-19 0 -28 19q-2 1 -2 37t6 46t8 26q3 16 9 24t5 30t-1 27l6 23l-6 22q16 16 11 27q-5 10 -5 15l14 40q2 2 2 14v15l4 14v35q17 34 17 54t-1 36q-1 18 1 24t6 15
q4 8 4 12l2 33q14 35 14 72v45q2 4 7 13t4 27q-1 19 1 23q0 4 4 9t6 9q3 4 5 9q2 4 1 18t-1 19l10 49q2 4 1 16q-1 11 0 17t8 15t7 15v62l11 20q2 2 1 16t-1 21q0 32 9 48t9 69l-2 37q0 4 4 8q6 6 6 14v6l11 25v20q0 10 6 17v59l10 16v52l4 15v12q1 16 13 22t12 31
q0 38 53 38q3 7 47 -2l79 4q34 -2 46 -8l39 6q25 2 74 0t73 -2l30 13q10 0 32 -13l41 7q13 0 22 -7q10 0 74 5l29 -5l32 9q2 2 6 1q3 -1 7 -1t26 8q22 7 50 -13q51 -37 22 -75q-29 -39 -50 -32q-21 6 -38 -11q-6 -2 -23 0l-32 14q-2 2 -45 2l-37 -6q-3 0 -11 3t-12 2t-11 -6
t-13 -5l-43 10q-10 4 -46 2t-47 3q-12 5 -17 6t-10 -3t-9 -8t-12 -5t-17 5q-10 6 -15 6l-32 -12q-6 -2 -14 2t-15 4l-26 -10l-23 10q-8 2 -42 -3t-42 -13l-2 -13q-10 -10 -10 -24v-51q-2 -6 -8 -16t-8 -20q-3 -9 -6 -32t-5 -29t-1 -23q1 -18 0 -26t-6 -27t-7 -25t-1 -19
q2 -21 -12 -39q0 -8 1 -33t-1 -32t-8 -15t-8 -15v-57q0 -4 -10 -26t-2 -42q4 -8 30 -8h52l30 6h54q117 -6 159 5l27 -5q10 -2 57 0l37 11l33 -11h55q49 29 78 -13q22 -30 4 -53q-5 -6 -12 -24q-6 -6 -31 -16l-12 -8q-12 -6 -60 -2l-20 10q-16 2 -26 -4q-11 -6 -17 -4l-33 10
l-26 -6l-29 6l-35 -8l-37 8l-37 -12l-41 10l-28 -4q-25 -6 -39 0q-15 6 -28 2q-14 -5 -43 3q-48 13 -70 -9q-12 -6 -14 -14t-5 -40q-2 -35 -14 -59v-29q0 -4 -10 -14v-33l-5 -16v-16q0 -12 -2 -15l-10 -20l6 -25q0 -16 -6 -22v-33q0 -9 -10 -29v-37q-5 -26 -11 -43
q-5 -18 -3 -55l-11 -31q-2 -4 -2 -12v-10l-4 -15v-38q0 -32 5 -40t83 -8q41 6 61 2t36 -2q14 14 30 10q15 -5 26 -4t17 1zM354 813q-12 -6 -7 -13t16 -2t4 15h-13zM725 1839q-9 1 -23 -15t-18 -26t-6 -14q-6 -4 -20 -11q-17 -9 -27 -24q-11 -15 -21 -25q-4 -2 -7 -4t-7 -3
t-6 -3t-6 -7t-30 -21t-34 -19q-10 -2 -19 0t-14 2l-16 -4q-2 3 -7 13t-17 30t-4 27q9 8 27 16q18 9 29 23t25 14q15 16 18 20t9 8q8 5 12 14q3 10 20 23t28 32t17 27t14 12q9 3 11 7q2 5 7 11q4 6 6 15t8 17t24 10t27 9q10 6 14 6t8 -6t24 -8q32 -3 28 -33q12 -25 14 -27
t8 -4q27 -9 21 -21q-5 -12 6 -24q10 -12 19 -22t13 -13q4 -4 5 -10q2 -6 4 -8t7 -6t9 -14t10 -13q5 -2 10 -5t12 -7t11 -13t20 -14q15 -6 19 -14q12 -8 -3 -27q-15 -20 -17 -24l-13 -19q-4 -2 -10 0t-8 2l-27 -2q-11 0 -17 5q-7 5 -12 8q-6 2 -10 6t-9 8t-8 6q-11 7 -11 14
q-4 2 -11 4l-8 6q-4 6 -11 18t-12 17q-4 5 -18 13t-17 12q-4 6 -6 14t-14 24t-20 17z" />
    <glyph glyph-name="Edieresis" unicode="&#xcb;" horiz-adv-x="1198" 
d="M494 104l249 2q9 9 16 9t13 -4t23 -11t37 6t28 15q62 -18 64 -49q0 -7 -15 -27v-11q0 -11 -7 -18t-30 7q-2 -1 -7 -9q-8 -12 -22 -12h-12l-24 -8q-9 -2 -21 3q-18 7 -51 5l-24 2q-7 2 -17 -2t-15 -4l-30 10q-6 2 -18 -3t-17 -5l-18 4l-45 -4l-16 4q-46 -15 -59 -9l-17 9
q-10 2 -35 0l-29 -10q-34 -2 -50 5t-37 5q-20 -2 -39 4l-21 -4q-6 0 -31 1t-28 -1q-15 -10 -23 -10l-29 10h-25q-19 0 -28 19q-2 1 -2 37t6 46t8 26q3 16 9 24t5 30t-1 27l6 23l-6 22q16 16 11 27q-5 10 -5 15l14 40q2 2 2 14v15l4 14v35q17 34 17 54t-1 36q-1 18 1 24t6 15
q4 8 4 12l2 33q14 35 14 72v45q2 4 7 13t4 27q-1 19 1 23q0 4 4 9t6 9q3 4 5 9q2 4 1 18t-1 19l10 49q2 4 1 16q-1 11 0 17t8 15t7 15v62l11 20q2 2 1 16t-1 21q0 32 9 48t9 69l-2 37q0 4 4 8q6 6 6 14v6l11 25v20q0 10 6 17v59l10 16v52l4 15v12q1 16 13 22t12 31
q0 38 53 38q3 7 47 -2l79 4q34 -2 46 -8l39 6q25 2 74 0t73 -2l30 13q10 0 32 -13l41 7q13 0 22 -7q10 0 74 5l29 -5l32 9q2 2 6 1q3 -1 7 -1t26 8q22 7 50 -13q51 -37 22 -75q-29 -39 -50 -32q-21 6 -38 -11q-6 -2 -23 0l-32 14q-2 2 -45 2l-37 -6q-3 0 -11 3t-12 2t-11 -6
t-13 -5l-43 10q-10 4 -46 2t-47 3q-12 5 -17 6t-10 -3t-9 -8t-12 -5t-17 5q-10 6 -15 6l-32 -12q-6 -2 -14 2t-15 4l-26 -10l-23 10q-8 2 -42 -3t-42 -13l-2 -13q-10 -10 -10 -24v-51q-2 -6 -8 -16t-8 -20q-3 -9 -6 -32t-5 -29t-1 -23q1 -18 0 -26t-6 -27t-7 -25t-1 -19
q2 -21 -12 -39q0 -8 1 -33t-1 -32t-8 -15t-8 -15v-57q0 -4 -10 -26t-2 -42q4 -8 30 -8h52l30 6h54q117 -6 159 5l27 -5q10 -2 57 0l37 11l33 -11h55q49 29 78 -13q22 -30 4 -53q-5 -6 -12 -24q-6 -6 -31 -16l-12 -8q-12 -6 -60 -2l-20 10q-16 2 -26 -4q-11 -6 -17 -4l-33 10
l-26 -6l-29 6l-35 -8l-37 8l-37 -12l-41 10l-28 -4q-25 -6 -39 0q-15 6 -28 2q-14 -5 -43 3q-48 13 -70 -9q-12 -6 -14 -14t-5 -40q-2 -35 -14 -59v-29q0 -4 -10 -14v-33l-5 -16v-16q0 -12 -2 -15l-10 -20l6 -25q0 -16 -6 -22v-33q0 -9 -10 -29v-37q-5 -26 -11 -43
q-5 -18 -3 -55l-11 -31q-2 -4 -2 -12v-10l-4 -15v-38q0 -32 5 -40t83 -8q41 6 61 2t36 -2q14 14 30 10q15 -5 26 -4t17 1zM354 813q-12 -6 -7 -13t16 -2t4 15h-13zM883 1795q-1 -12 -9 -19q-15 -11 -2 -33q12 -22 -6 -36q-4 -3 -11 -8t-23 -19t-28 -15q-12 -2 -30 12
q-18 15 -23 23t-1 37l6 16v31q-6 29 -5 36t23 27q8 17 17 23q7 6 27 11t34 1q43 -14 39 -53l-8 -21v-13zM696 1794q0 -13 -8 -19q-8 -7 -9 -13t5 -16q6 -11 6 -17q0 -11 -8 -19t-31 -26t-34 -19q-11 -2 -31 12q-20 15 -23 23q-4 8 0 37l6 16l-6 64q3 8 15 20q12 11 18 21
t11 14t25 8t34 0q41 -12 39 -51l-9 -21v-14z" />
    <glyph glyph-name="Igrave" unicode="&#xcc;" horiz-adv-x="595" 
d="M197 807l20 72l-4 28q0 11 10 31q0 4 -1 15t1 17t8 20q9 23 8 55q-1 31 6 60t7 54l-2 17q0 6 6 12t13 15t6 26q-1 18 -1 24l7 25v45q0 5 7 15t7 22l6 83q0 44 2 44q8 17 32 31q23 14 45 17t37 -13t15 -37l-10 -21q-4 -8 -5 -28t5 -31l-6 -21q0 -6 1 -23t-26 -52
q-2 -5 1 -13t3 -14t-6 -18q0 -6 1 -22t-7 -52q-8 -34 -8 -39l-4 -10l4 -35l-10 -20q0 -3 4 -13t-6 -25q-9 -15 -9 -32q-6 -12 -6 -15v-38l-10 -21v-29l-4 -18q0 -4 3 -14q3 -11 1 -17t-8 -16q-11 -18 -8 -50q3 -33 -7 -51t-11 -44q-1 -27 -5 -40q-4 -12 -3 -20t1 -10
l-14 -31l2 -14l-4 -29l2 -24q0 -8 -13 -25l6 -25q-8 -23 -7 -31q1 -11 -7 -30q-8 -20 -7 -39t-9 -35q-11 -16 4 -54l-6 -13v-24q0 -10 -11 -28v-22l-16 -37l2 -43q0 -11 -3 -21t1 -18t-1 -16l-8 -16t-4 -10q-1 -3 -2 -13t-5 -15q-3 -2 -11 -3t-11 -3t-10 -13t-15 -12
q-12 -2 -20 6q-9 7 -21 7q-22 0 -27 23q0 18 6 24l-6 37q10 20 10 24v12q0 9 6 21t5 33t4 31q6 10 7 13t0 12q-1 8 0 14t5 18t5 20t-3 20q-7 21 8 36q14 29 11 42t-3 17l8 25v59q0 2 2 6q1 3 3 7t1 13t1 13l14 33l-4 45l10 23v34q0 3 10 13q0 6 -1 20t12 35q14 21 10 57z
M287 1106q-4 -4 0 -10t12 0t-4 12zM209 1963q0 7 3 8q2 1 14 13t20 16q8 3 11 -5t21 -10q18 -3 24 -11q5 -8 5 -24q13 -21 18 -24t11 -5t16 -25t19 -30q9 -8 15 -16l10 -10t5 -9q3 -6 5 -9t5 -5q3 -3 6 -5q6 -5 11 -14t19 -15t22 -16q5 -10 22 -17t22 -12q17 -16 -19 -52
q-8 -18 -11 -21l-18 4l-27 -2q-16 -1 -36 15q-19 16 -23 18t-8 9t-15 10q-11 4 -22 24q-12 19 -29 28q-16 9 -20 13q-5 11 -7 17q-1 7 -6 9q-2 4 -10 10q-11 8 -17 15q-6 8 -13 16q-7 7 -10 11t-7 7t-13 17q-10 14 -24 26q-24 19 -8 26q16 8 27 13q12 5 12 12z" />
    <glyph glyph-name="Iacute" unicode="&#xcd;" horiz-adv-x="753" 
d="M197 807l20 72l-4 28q0 11 10 31q0 4 -1 15t1 17t8 20q9 23 8 55q-1 31 6 60t7 54l-2 17q0 6 6 12t13 15t6 26q-1 18 -1 24l7 25v45q0 5 7 15t7 22l6 83q0 44 2 44q8 17 32 31q23 14 45 17t37 -13t15 -37l-10 -21q-4 -8 -5 -28t5 -31l-6 -21q0 -6 1 -23t-26 -52
q-2 -5 1 -13t3 -14t-6 -18q0 -6 1 -22t-7 -52q-8 -34 -8 -39l-4 -10l4 -35l-10 -20q0 -3 4 -13t-6 -25q-9 -15 -9 -32q-6 -12 -6 -15v-38l-10 -21v-29l-4 -18q0 -4 3 -14q3 -11 1 -17t-8 -16q-11 -18 -8 -50q3 -33 -7 -51t-11 -44q-1 -27 -5 -40q-4 -12 -3 -20t1 -10
l-14 -31l2 -14l-4 -29l2 -24q0 -8 -13 -25l6 -25q-8 -23 -7 -31q1 -11 -7 -30q-8 -20 -7 -39t-9 -35q-11 -16 4 -54l-6 -13v-24q0 -10 -11 -28v-22l-16 -37l2 -43q0 -11 -3 -21t1 -18t-1 -16l-8 -16t-4 -10q-1 -3 -2 -13t-5 -15q-3 -2 -11 -3t-11 -3t-10 -13t-15 -12
q-12 -2 -20 6q-9 7 -21 7q-22 0 -27 23q0 18 6 24l-6 37q10 20 10 24v12q0 9 6 21t5 33t4 31q6 10 7 13t0 12q-1 8 0 14t5 18t5 20t-3 20q-7 21 8 36q14 29 11 42t-3 17l8 25v59q0 2 2 6q1 3 3 7t1 13t1 13l14 33l-4 45l10 23v34q0 3 10 13q0 6 -1 20t12 35q14 21 10 57z
M532 1954q0 10 6 18t23 10q18 2 23 14t23 -6q17 -18 21 -20t3 -9q1 -7 21 -15t21 -14q2 -12 -11 -20q-14 -8 -18 -16q-3 -8 -9 -17t-13 -15q-8 -6 -10 -10t-11 -14q-15 -15 -23 -21q-15 -11 -17 -24q-3 -13 -23 -24q-20 -12 -33 -31q-13 -18 -21 -22q-9 -4 -11 -6t-4 -5
t-7 -7l-20 -16q-24 -19 -41 -19l-26 2l-19 -4q0 2 -10 20q-17 17 -21 32q-3 15 2 21t22 12q17 7 27 23q10 15 25 15q4 4 8 7q3 3 6 9t11 12q8 5 12 15q4 11 20 23t25 31t13 27t14 12q10 3 12 8t6 9q4 5 4 15z" />
    <glyph glyph-name="Icircumflex" unicode="&#xce;" horiz-adv-x="757" 
d="M197 807l20 72l-4 28q0 11 10 31q0 4 -1 15t1 17t8 20q9 23 8 55q-1 31 6 60t7 54l-2 17q0 6 6 12t13 15t6 26q-1 18 -1 24l7 25v45q0 5 7 15t7 22l6 83q0 44 2 44q8 17 32 31q23 14 45 17t37 -13t15 -37l-10 -21q-4 -8 -5 -28t5 -31l-6 -21q0 -6 1 -23t-26 -52
q-2 -5 1 -13t3 -14t-6 -18q0 -6 1 -22t-7 -52q-8 -34 -8 -39l-4 -10l4 -35l-10 -20q0 -3 4 -13t-6 -25q-9 -15 -9 -32q-6 -12 -6 -15v-38l-10 -21v-29l-4 -18q0 -4 3 -14q3 -11 1 -17t-8 -16q-11 -18 -8 -50q3 -33 -7 -51t-11 -44q-1 -27 -5 -40q-4 -12 -3 -20t1 -10
l-14 -31l2 -14l-4 -29l2 -24q0 -8 -13 -25l6 -25q-8 -23 -7 -31q1 -11 -7 -30q-8 -20 -7 -39t-9 -35q-11 -16 4 -54l-6 -13v-24q0 -10 -11 -28v-22l-16 -37l2 -43q0 -11 -3 -21t1 -18t-1 -16l-8 -16t-4 -10q-1 -3 -2 -13t-5 -15q-3 -2 -11 -3t-11 -3t-10 -13t-15 -12
q-12 -2 -20 6q-9 7 -21 7q-22 0 -27 23q0 18 6 24l-6 37q10 20 10 24v12q0 9 6 21t5 33t4 31q6 10 7 13t0 12q-1 8 0 14t5 18t5 20t-3 20q-7 21 8 36q14 29 11 42t-3 17l8 25v59q0 2 2 6q1 3 3 7t1 13t1 13l14 33l-4 45l10 23v34q0 3 10 13q0 6 -1 20t12 35q14 21 10 57z
M287 1106q-4 -4 0 -10t12 0t-4 12zM412 1837q-8 0 -35 -29q-2 -4 -6 -13t-6 -13q-6 -4 -21 -12t-28 -25q-13 -16 -19 -22t-14 -11q-9 -4 -19 -14q-49 -33 -63 -35l-27 4l-16 -4q-2 0 -8 11l-10 20q-5 8 -10 21t2 19q6 6 20 13q14 6 18 8t14 17q4 4 14 8t14 6q3 2 5 5t4 5
t4 5t4 5t5 4q2 2 6 4t6 5q2 2 4 9t4 9q37 25 61 76q4 4 14 8t23 27q2 14 8 22t24 11t28 9q8 6 13 7q5 0 7 -2t3 -4t5 -4t9 -5q29 -2 33 -10t4 -17q-1 -9 3 -15q5 -6 7 -12q2 -5 20 -14t13 -17t4 -20q8 -13 21 -24t17 -22q3 -12 9 -16q7 -4 13 -14q7 -14 21 -21q15 -6 19 -14
q4 -9 8 -11t18 -8q13 -6 15 -12q19 -12 -21 -52q-10 -18 -12 -20l-18 4l-27 -2q-17 -1 -35 15q-17 16 -25 21t-8 11q-16 8 -20 12t-11 16t-11 18q-4 5 -18 12q-13 7 -17 12q-2 4 -5 14q-2 10 -6 12q-20 29 -28 29z" />
    <glyph glyph-name="Idieresis" unicode="&#xcf;" horiz-adv-x="663" 
d="M197 807l20 72l-4 28q0 11 10 31q0 4 -1 15t1 17t8 20q9 23 8 55q-1 31 6 60t7 54l-2 17q0 6 6 12t13 15t6 26q-1 18 -1 24l7 25v45q0 5 7 15t7 22l6 83q0 44 2 44q8 17 32 31q23 14 45 17t37 -13t15 -37l-10 -21q-4 -8 -5 -28t5 -31l-6 -21q0 -6 1 -23t-26 -52
q-2 -5 1 -13t3 -14t-6 -18q0 -6 1 -22t-7 -52q-8 -34 -8 -39l-4 -10l4 -35l-10 -20q0 -3 4 -13t-6 -25q-9 -15 -9 -32q-6 -12 -6 -15v-38l-10 -21v-29l-4 -18q0 -4 3 -14q3 -11 1 -17t-8 -16q-11 -18 -8 -50q3 -33 -7 -51t-11 -44q-1 -27 -5 -40q-4 -12 -3 -20t1 -10
l-14 -31l2 -14l-4 -29l2 -24q0 -8 -13 -25l6 -25q-8 -23 -7 -31q1 -11 -7 -30q-8 -20 -7 -39t-9 -35q-11 -16 4 -54l-6 -13v-24q0 -10 -11 -28v-22l-16 -37l2 -43q0 -11 -3 -21t1 -18t-1 -16l-8 -16t-4 -10q-1 -3 -2 -13t-5 -15q-3 -2 -11 -3t-11 -3t-10 -13t-15 -12
q-12 -2 -20 6q-9 7 -21 7q-22 0 -27 23q0 18 6 24l-6 37q10 20 10 24v12q0 9 6 21t5 33t4 31q6 10 7 13t0 12q-1 8 0 14t5 18t5 20t-3 20q-7 21 8 36q14 29 11 42t-3 17l8 25v59q0 2 2 6q1 3 3 7t1 13t1 13l14 33l-4 45l10 23v34q0 3 10 13q0 6 -1 20t12 35q14 21 10 57z
M287 1106q-4 -4 0 -10t12 0t-4 12zM563 1784q-10 -10 -3 -25q7 -14 7 -20q0 -7 -3 -13t-6 -9t-11 -8q-9 -5 -25 -19t-27 -15q-11 -3 -29 13t-25 24q-6 8 5 51v33q-6 27 -4 34q2 8 14 20t17 21q22 34 70 21q43 -14 41 -53q-2 -4 -5 -11t-5 -10q-2 -4 -1 -14q0 -10 -10 -20z
M387 1804q0 -12 -16 -28q-2 -8 4 -20t6 -22q0 -11 -8 -17q-9 -5 -15 -9t-22 -18t-28 -15q-11 -1 -29 13t-23 18q-10 19 -3 36q7 18 7 34v18q-6 27 -4 34q2 8 14 20t17 21q6 9 11 13q4 4 24 8t34 0q43 -12 39 -51q0 -12 -8 -20v-15z" />
    <glyph glyph-name="Ograve" unicode="&#xd2;" horiz-adv-x="1703" 
d="M1155 78l-25 -10q-12 -4 -25 -14q-18 -13 -30 -13h-10q-45 -30 -47 -31l-18 2l-29 -2l-13 4q-2 0 -15 -11t-23 -9t-12 8l-6 12t-9 4t-6 -10l-2 -14q-9 -14 -72 -14l-14 -7q-2 -2 -29 -1t-29 1h-84q-6 3 -21 9q-14 6 -26 7t-23 1q-32 0 -45 15q-14 15 -34 18q-29 3 -42 13
t-29 13q-15 2 -21 4q-6 5 -14 19t-13 20l-12 2q-7 4 -19 11t-14 9t-11 4q-9 3 -17 15q-7 13 -11 17t-15 11q-20 13 -30 38q-4 4 -11 9q-10 7 -14 19t-13 17q-9 6 -13 10q-15 23 -23 43q-8 19 -11 23q-4 4 -7 17q-3 12 -11 24q-9 12 -13 21t-7 35q-4 26 -5 33t-4 10t-9 15
q-2 14 -3 40t-2 35t-12 23l4 37l-4 99l15 22q2 7 -6 21t-9 20l11 21q2 4 3 14t5 16q10 15 10 49t10 49q15 23 15 30v11l8 19q2 4 3 21t15 30q0 4 2 8l4 8q3 6 10 14q7 6 12 20t14 28t9 18l3 7q0 2 12 14q0 10 7 17q7 6 10 10q7 8 8 20q2 12 11 17q14 8 17 16q3 9 17 23
t22 24q8 8 17 18t17 18t13 19q6 4 15 8q10 5 14 9t19 16t24 24q8 11 20 18t32 25q19 19 34 20q14 1 42 23q27 21 31 24t10 3q5 0 7 1q6 4 12 10t22 6h19l39 14q2 2 8 1t10 1l39 18q8 2 22 1t23 1l29 13q27 -5 38 -1q11 3 52 3h43q9 0 16 -3t12 -4t7 -3l31 6l10 -6
q28 0 51 -15q8 -2 31 -1t35 -7q11 -8 30 -8l27 -12q4 0 11 -6l12 -9q4 -2 10 -4q33 -11 49 -31q38 -22 40 -27q3 -5 9 -11t21 -13q14 -6 22 -14q8 -9 12 -15t20 -21t33 -39q16 -25 26 -36q10 -10 14 -15t5 -13t3 -12t12 -18q12 -16 12 -44q9 -9 25 -49l2 -15q2 -4 5 -8
q10 -14 12 -45q1 -31 6 -45q4 -14 6 -22l-4 -37l12 -27v-106l2 -17l-14 -35q0 -6 2 -24t0 -25t-17 -22v-15l-6 -10q0 -2 3 -9t-2 -14q-8 -11 -6 -20q2 -8 -7 -25q-8 -18 -8 -23l-11 -28v-6l-14 -33q-2 -2 -2 -7l-8 -19q-3 -8 -10 -22q-8 -13 -14 -26q-6 -12 -10 -18t-8 -14
q-3 -8 -13 -12q-9 -5 -9 -16t-3 -15t-14 -13q-16 -13 -13 -28t-12 -27t-27 -9t-11 14q2 12 -5 25t-19 -9t8 -33q0 -2 5 -2q18 0 10 -17t-19 -23q-10 -5 -14 -10t-12 -13t-15 -16q-8 -9 -17 -18q-10 -9 -19 -23t-25 -22q-20 -9 -35 -25q-16 -17 -27 -22q-12 -4 -16 -6t-9 -11
t-12 -13h-8zM690 1438v-2h2v2h-2zM1309 1335q-34 17 -37 17q-25 18 -32 33q-8 16 -22 16q-18 0 -26 8t-27 13q-19 4 -23 7q-6 3 -14 8t-14 7t-24 0q-28 -3 -41 10q-25 6 -83 6t-64 -1q-5 -1 -31 -2t-37 -7t-20 -6h-23l-25 -14h-8q-8 0 -15 -6q-9 -8 -21 -7h-11
q-20 -10 -33 -18q-12 -8 -25 -7t-21 -10q-8 -12 -12 -14t-10 -2q-10 0 -21 -15t-25 -21q-18 -7 -32 -24q-15 -17 -37 -12q-22 4 -26 2q-10 -10 -10 -30t-21 -41q-2 -5 -2 -11q0 -10 -18 -23t-20 -22q-1 -8 -6 -14t-27 -35t-27 -40q-4 -10 -18 -24q-17 -18 -15 -31t-12 -39
q-15 -27 -21 -50t-7 -27t0 -12t0 -11t-5 -8q-6 -8 -6 -15v-7q-20 -20 -16 -57t0 -49l-13 -41l2 -54l-4 -12v-13q0 -9 -6 -30l12 -27l-2 -49l17 -32q0 -4 -1 -14t1 -15q2 -4 6 -8q4 -3 4 -7v-12q0 -11 6 -20q6 -8 8 -14l10 -27q10 -32 27 -52q19 -20 23 -25t4 -14t6 -16
t31 -26q51 -54 62 -60t20 -6q10 -20 29 -23q19 -2 33 -15q15 -13 24 -13q8 0 11 -1t5 -4t21 -15t51 -18q33 -5 41 -4t11 0t8 -5t9 -6l23 4l28 -2l19 8q6 2 14 -1t20 -3t48 8l28 -4l37 16q25 0 35 7q16 10 28 9q13 -1 27 8q13 9 16 11t10 4t9 6l29 23h10q11 0 26 13t22 14
t28 15q19 15 25 18t11 3t9 4l20 25t31 31q14 11 23 30q6 7 22 19t24 21t18 31q12 22 16 27l8 10t10 11t6 15t12 23q12 12 13 18q2 6 2 11q0 9 27 54t25 59q-1 14 1 18q2 3 5 7t3 6l8 29q11 19 12 30t2 19t1 16q10 19 10 31v27l10 20q3 52 -2 67q-4 15 -3 30t-5 36l-4 54
q-2 2 -1 15t-1 17l-8 25q-2 2 -2 8v8q-11 16 -10 23q1 10 -15 35v14q-11 46 -20 51q-10 5 -15 10q-2 4 -4 14q-3 13 -23 26t-40 47t-43 34zM1153 1663l-16 4l-29 -2q-19 -1 -37 15t-21 18t-9 9t-23 15q-19 29 -25 35t-19 13t-20 12q-2 4 -6 16t-14 20t-12 10q-2 3 -8 8
t-13 13q-6 8 -13 15q-7 6 -16 20t-27 29q-18 16 1 25q33 17 35 26q-2 4 1 5t21 20t27 0q2 -4 8 -7q29 -2 35 -11t4 -23q13 -23 23 -26q15 -5 23 -28q9 -23 24 -37q16 -14 20 -18t6 -10t5 -11t10 -10q6 -4 9 -8t5 -7q5 -8 18 -13q13 -6 18 -15t26 -18q35 -16 8 -53
q-5 -8 -11 -18t-8 -13z" />
    <glyph glyph-name="Oacute" unicode="&#xd3;" horiz-adv-x="1703" 
d="M1155 78l-25 -10q-12 -4 -25 -14q-18 -13 -30 -13h-10q-45 -30 -47 -31l-18 2l-29 -2l-13 4q-2 0 -15 -11t-23 -9t-12 8l-6 12t-9 4t-6 -10l-2 -14q-9 -14 -72 -14l-14 -7q-2 -2 -29 -1t-29 1h-84q-6 3 -21 9q-14 6 -26 7t-23 1q-32 0 -45 15q-14 15 -34 18q-29 3 -42 13
t-29 13q-15 2 -21 4q-6 5 -14 19t-13 20l-12 2q-7 4 -19 11t-14 9t-11 4q-9 3 -17 15q-7 13 -11 17t-15 11q-20 13 -30 38q-4 4 -11 9q-10 7 -14 19t-13 17q-9 6 -13 10q-15 23 -23 43q-8 19 -11 23q-4 4 -7 17q-3 12 -11 24q-9 12 -13 21t-7 35q-4 26 -5 33t-4 10t-9 15
q-2 14 -3 40t-2 35t-12 23l4 37l-4 99l15 22q2 7 -6 21t-9 20l11 21q2 4 3 14t5 16q10 15 10 49t10 49q15 23 15 30v11l8 19q2 4 3 21t15 30q0 4 2 8l4 8q3 6 10 14q7 6 12 20t14 28t9 18l3 7q0 2 12 14q0 10 7 17q7 6 10 10q7 8 8 20q2 12 11 17q14 8 17 16q3 9 17 23
t22 24q8 8 17 18t17 18t13 19q6 4 15 8q10 5 14 9t19 16t24 24q8 11 20 18t32 25q19 19 34 20q14 1 42 23q27 21 31 24t10 3q5 0 7 1q6 4 12 10t22 6h19l39 14q2 2 8 1t10 1l39 18q8 2 22 1t23 1l29 13q27 -5 38 -1q11 3 52 3h43q9 0 16 -3t12 -4t7 -3l31 6l10 -6
q28 0 51 -15q8 -2 31 -1t35 -7q11 -8 30 -8l27 -12q4 0 11 -6l12 -9q4 -2 10 -4q33 -11 49 -31q38 -22 40 -27q3 -5 9 -11t21 -13q14 -6 22 -14q8 -9 12 -15t20 -21t33 -39q16 -25 26 -36q10 -10 14 -15t5 -13t3 -12t12 -18q12 -16 12 -44q9 -9 25 -49l2 -15q2 -4 5 -8
q10 -14 12 -45q1 -31 6 -45q4 -14 6 -22l-4 -37l12 -27v-106l2 -17l-14 -35q0 -6 2 -24t0 -25t-17 -22v-15l-6 -10q0 -2 3 -9t-2 -14q-8 -11 -6 -20q2 -8 -7 -25q-8 -18 -8 -23l-11 -28v-6l-14 -33q-2 -2 -2 -7l-8 -19q-3 -8 -10 -22q-8 -13 -14 -26q-6 -12 -10 -18t-8 -14
q-3 -8 -13 -12q-9 -5 -9 -16t-3 -15t-14 -13q-16 -13 -13 -28t-12 -27t-27 -9t-11 14q2 12 -5 25t-19 -9t8 -33q0 -2 5 -2q18 0 10 -17t-19 -23q-10 -5 -14 -10t-12 -13t-15 -16q-8 -9 -17 -18q-10 -9 -19 -23t-25 -22q-20 -9 -35 -25q-16 -17 -27 -22q-12 -4 -16 -6t-9 -11
t-12 -13h-8zM690 1438v-2h2v2h-2zM1309 1335q-34 17 -37 17q-25 18 -32 33q-8 16 -22 16q-18 0 -26 8t-27 13q-19 4 -23 7q-6 3 -14 8t-14 7t-24 0q-28 -3 -41 10q-25 6 -83 6t-64 -1q-5 -1 -31 -2t-37 -7t-20 -6h-23l-25 -14h-8q-8 0 -15 -6q-9 -8 -21 -7h-11
q-20 -10 -33 -18q-12 -8 -25 -7t-21 -10q-8 -12 -12 -14t-10 -2q-10 0 -21 -15t-25 -21q-18 -7 -32 -24q-15 -17 -37 -12q-22 4 -26 2q-10 -10 -10 -30t-21 -41q-2 -5 -2 -11q0 -10 -18 -23t-20 -22q-1 -8 -6 -14t-27 -35t-27 -40q-4 -10 -18 -24q-17 -18 -15 -31t-12 -39
q-15 -27 -21 -50t-7 -27t0 -12t0 -11t-5 -8q-6 -8 -6 -15v-7q-20 -20 -16 -57t0 -49l-13 -41l2 -54l-4 -12v-13q0 -9 -6 -30l12 -27l-2 -49l17 -32q0 -4 -1 -14t1 -15q2 -4 6 -8q4 -3 4 -7v-12q0 -11 6 -20q6 -8 8 -14l10 -27q10 -32 27 -52q19 -20 23 -25t4 -14t6 -16
t31 -26q51 -54 62 -60t20 -6q10 -20 29 -23q19 -2 33 -15q15 -13 24 -13q8 0 11 -1t5 -4t21 -15t51 -18q33 -5 41 -4t11 0t8 -5t9 -6l23 4l28 -2l19 8q6 2 14 -1t20 -3t48 8l28 -4l37 16q25 0 35 7q16 10 28 9q13 -1 27 8q13 9 16 11t10 4t9 6l29 23h10q11 0 26 13t22 14
t28 15q19 15 25 18t11 3t9 4l20 25t31 31q14 11 23 30q6 7 22 19t24 21t18 31q12 22 16 27l8 10t10 11t6 15t12 23q12 12 13 18q2 6 2 11q0 9 27 54t25 59q-1 14 1 18q2 3 5 7t3 6l8 29q11 19 12 30t2 19t1 16q10 19 10 31v27l10 20q3 52 -2 67q-4 15 -3 30t-5 36l-4 54
q-2 2 -1 15t-1 17l-8 25q-2 2 -2 8v8q-11 16 -10 23q1 10 -15 35v14q-11 46 -20 51q-10 5 -15 10q-2 4 -4 14q-3 13 -23 26t-40 47t-43 34zM1190 1954q0 10 5 18t34 10q8 2 12 14t23 -6l22 -22q2 0 2 -7t20 -15t23 -17q2 -8 -12 -19q-14 -10 -17 -16l-10 -15t-13 -15t-9 -12
t-12 -13q-9 -8 -12 -11t-11 -9q-13 -10 -16 -23t-22 -24q-20 -12 -27 -22q-7 -11 -12 -17q-5 -5 -8 -9t-10 -7q-8 -3 -10 -5t-4 -5t-9 -8t-18 -15t-17 -13q-7 -2 -12 -4t-11 -2l-27 2l-18 -4q0 2 -10 20q-47 47 0 65q20 8 26 18q7 11 17 15q10 3 13 6q9 9 12 15t12 12
q9 5 11 13q4 12 20 25q15 12 24 31q10 19 14 27t14 12q11 3 13 8t6 9q4 5 4 15z" />
    <glyph glyph-name="Ocircumflex" unicode="&#xd4;" horiz-adv-x="1703" 
d="M1155 78l-25 -10q-12 -4 -25 -14q-18 -13 -30 -13h-10q-45 -30 -47 -31l-18 2l-29 -2l-13 4q-2 0 -15 -11t-23 -9t-12 8l-6 12t-9 4t-6 -10l-2 -14q-9 -14 -72 -14l-14 -7q-2 -2 -29 -1t-29 1h-84q-6 3 -21 9q-14 6 -26 7t-23 1q-32 0 -45 15q-14 15 -34 18q-29 3 -42 13
t-29 13q-15 2 -21 4q-6 5 -14 19t-13 20l-12 2q-7 4 -19 11t-14 9t-11 4q-9 3 -17 15q-7 13 -11 17t-15 11q-20 13 -30 38q-4 4 -11 9q-10 7 -14 19t-13 17q-9 6 -13 10q-15 23 -23 43q-8 19 -11 23q-4 4 -7 17q-3 12 -11 24q-9 12 -13 21t-7 35q-4 26 -5 33t-4 10t-9 15
q-2 14 -3 40t-2 35t-12 23l4 37l-4 99l15 22q2 7 -6 21t-9 20l11 21q2 4 3 14t5 16q10 15 10 49t10 49q15 23 15 30v11l8 19q2 4 3 21t15 30q0 4 2 8l4 8q3 6 10 14q7 6 12 20t14 28t9 18l3 7q0 2 12 14q0 10 7 17q7 6 10 10q7 8 8 20q2 12 11 17q14 8 17 16q3 9 17 23
t22 24q8 8 17 18t17 18t13 19q6 4 15 8q10 5 14 9t19 16t24 24q8 11 20 18t32 25q19 19 34 20q14 1 42 23q27 21 31 24t10 3q5 0 7 1q6 4 12 10t22 6h19l39 14q2 2 8 1t10 1l39 18q8 2 22 1t23 1l29 13q27 -5 38 -1q11 3 52 3h43q9 0 16 -3t12 -4t7 -3l31 6l10 -6
q28 0 51 -15q8 -2 31 -1t35 -7q11 -8 30 -8l27 -12q4 0 11 -6l12 -9q4 -2 10 -4q33 -11 49 -31q38 -22 40 -27q3 -5 9 -11t21 -13q14 -6 22 -14q8 -9 12 -15t20 -21t33 -39q16 -25 26 -36q10 -10 14 -15t5 -13t3 -12t12 -18q12 -16 12 -44q9 -9 25 -49l2 -15q2 -4 5 -8
q10 -14 12 -45q1 -31 6 -45q4 -14 6 -22l-4 -37l12 -27v-106l2 -17l-14 -35q0 -6 2 -24t0 -25t-17 -22v-15l-6 -10q0 -2 3 -9t-2 -14q-8 -11 -6 -20q2 -8 -7 -25q-8 -18 -8 -23l-11 -28v-6l-14 -33q-2 -2 -2 -7l-8 -19q-3 -8 -10 -22q-8 -13 -14 -26q-6 -12 -10 -18t-8 -14
q-3 -8 -13 -12q-9 -5 -9 -16t-3 -15t-14 -13q-16 -13 -13 -28t-12 -27t-27 -9t-11 14q2 12 -5 25t-19 -9t8 -33q0 -2 5 -2q18 0 10 -17t-19 -23q-10 -5 -14 -10t-12 -13t-15 -16q-8 -9 -17 -18q-10 -9 -19 -23t-25 -22q-20 -9 -35 -25q-16 -17 -27 -22q-12 -4 -16 -6t-9 -11
t-12 -13h-8zM690 1438v-2h2v2h-2zM1309 1335q-34 17 -37 17q-25 18 -32 33q-8 16 -22 16q-18 0 -26 8t-27 13q-19 4 -23 7q-6 3 -14 8t-14 7t-24 0q-28 -3 -41 10q-25 6 -83 6t-64 -1q-5 -1 -31 -2t-37 -7t-20 -6h-23l-25 -14h-8q-8 0 -15 -6q-9 -8 -21 -7h-11
q-20 -10 -33 -18q-12 -8 -25 -7t-21 -10q-8 -12 -12 -14t-10 -2q-10 0 -21 -15t-25 -21q-18 -7 -32 -24q-15 -17 -37 -12q-22 4 -26 2q-10 -10 -10 -30t-21 -41q-2 -5 -2 -11q0 -10 -18 -23t-20 -22q-1 -8 -6 -14t-27 -35t-27 -40q-4 -10 -18 -24q-17 -18 -15 -31t-12 -39
q-15 -27 -21 -50t-7 -27t0 -12t0 -11t-5 -8q-6 -8 -6 -15v-7q-20 -20 -16 -57t0 -49l-13 -41l2 -54l-4 -12v-13q0 -9 -6 -30l12 -27l-2 -49l17 -32q0 -4 -1 -14t1 -15q2 -4 6 -8q4 -3 4 -7v-12q0 -11 6 -20q6 -8 8 -14l10 -27q10 -32 27 -52q19 -20 23 -25t4 -14t6 -16
t31 -26q51 -54 62 -60t20 -6q10 -20 29 -23q19 -2 33 -15q15 -13 24 -13q8 0 11 -1t5 -4t21 -15t51 -18q33 -5 41 -4t11 0t8 -5t9 -6l23 4l28 -2l19 8q6 2 14 -1t20 -3t48 8l28 -4l37 16q25 0 35 7q16 10 28 9q13 -1 27 8q13 9 16 11t10 4t9 6l29 23h10q11 0 26 13t22 14
t28 15q19 15 25 18t11 3t9 4l20 25t31 31q14 11 23 30q6 7 22 19t24 21t18 31q12 22 16 27l8 10t10 11t6 15t12 23q12 12 13 18q2 6 2 11q0 9 27 54t25 59q-1 14 1 18q2 3 5 7t3 6l8 29q11 19 12 30t2 19t1 16q10 19 10 31v27l10 20q3 52 -2 67q-4 15 -3 30t-5 36l-4 54
q-2 2 -1 15t-1 17l-8 25q-2 2 -2 8v8q-11 16 -10 23q1 10 -15 35v14q-11 46 -20 51q-10 5 -15 10q-2 4 -4 14q-3 13 -23 26t-40 47t-43 34zM1065 1837q-9 1 -23 -15t-17 -28t-22 -23q-18 -10 -23 -15t-14 -17q-10 -13 -14 -17t-8 -5t-7 -3l-6 -4t-6 -7t-29 -21t-40 -19
l-27 2l-18 -2q-2 0 -9 16t-13 23q-21 30 17 44q18 7 24 15q5 8 21 17t19 12l8 8q3 4 5 7t8 7q9 6 12 14q3 9 22 25q20 17 44 62q4 4 14 8t12 8t7 9q6 4 6 14t6 18t35 12l30 15q7 0 11 -6q4 -5 22 -9q30 -6 27 -34q11 -24 15 -25q3 -2 18 -11t9 -18t7 -22l16 -16t9 -10
q5 -5 7 -8t5 -10q2 -8 9 -14t9 -8t3 -5q5 -15 17 -19q19 -6 23 -16q4 -9 21 -17q16 -8 21 -13q5 -4 2 -14t-5 -15t-9 -13t-13 -20t-9 -11l-18 4l-27 -4q-17 4 -25 11q-8 8 -18 14q-13 9 -19 16q-6 8 -14 11t-18 19t-15 23q-4 6 -18 13t-18 12q-2 4 -4 13t-14 25t-21 17z" />
    </font>
</defs>
</svg>
